<svg width="24" height="25" viewBox="0 0 24 25" fill="none" xmlns="http://www.w3.org/2000/svg">
<path d="M19.87 17.912C20.422 18.2027 20.877 18.134 21.235 17.706C21.5923 17.2773 21.6383 16.806 21.373 16.292L19.462 12.708L17.796 16.831L19.87 17.912ZM14.562 17H16.646L19.085 10.973C19.237 10.5963 19.2626 10.2917 19.162 10.059C19.062 9.82567 18.872 9.65233 18.592 9.539L16.592 8.739C16.2886 8.61233 15.9953 8.59667 15.712 8.692C15.4293 8.78867 15.2713 9.00167 15.238 9.331L14.562 17ZM7.35398 17H9.43798L8.76198 9.254C8.72864 8.994 8.57698 8.81133 8.30698 8.706C8.03698 8.60067 7.73698 8.61133 7.40698 8.738L5.40698 9.538C5.10698 9.66467 4.93131 9.864 4.87998 10.136C4.82798 10.4067 4.86531 10.7113 4.99198 11.05L7.35398 17ZM4.13098 17.912L6.20398 16.831L4.57698 12.708L2.62698 16.369C2.33564 16.8957 2.38498 17.351 2.77498 17.735C3.16498 18.1183 3.61698 18.1773 4.13098 17.912ZM10.438 17H13.562L14.35 8.088C14.3833 7.78467 14.3073 7.52733 14.122 7.316C13.9366 7.10533 13.6793 7 13.35 7H10.65C10.4013 7 10.165 7.096 9.94098 7.288C9.71698 7.48 9.61998 7.72133 9.64998 8.012L10.438 17ZM3.52998 19.038C2.94998 19.038 2.46664 18.8397 2.07998 18.443C1.69398 18.0463 1.50098 17.5663 1.50098 17.003C1.50098 16.8163 1.52364 16.6337 1.56898 16.455C1.61498 16.2763 1.67964 16.1017 1.76298 15.931L4.07698 11.5C3.85698 10.9233 3.83031 10.3517 3.99698 9.785C4.16364 9.21833 4.51198 8.82733 5.04198 8.612L7.04198 7.812C7.32664 7.69 7.61764 7.62833 7.91498 7.627C8.21298 7.62567 8.47864 7.714 8.71198 7.892C8.76531 7.37067 8.97464 6.925 9.33998 6.555C9.70531 6.185 10.152 6 10.68 6H13.35C13.87 6 14.316 6.17533 14.688 6.526C15.06 6.87667 15.2856 7.30667 15.365 7.816C15.5603 7.62867 15.8066 7.55367 16.104 7.591C16.4013 7.629 16.686 7.70233 16.958 7.811L18.958 8.611C19.496 8.827 19.86 9.215 20.05 9.775C20.24 10.335 20.2106 10.8933 19.962 11.45L22.277 15.88C22.351 16.0253 22.413 16.171 22.463 16.317C22.513 16.463 22.538 16.615 22.538 16.773C22.538 17.395 22.3223 17.9283 21.891 18.373C21.4596 18.8163 20.9363 19.038 20.321 19.038C20.1696 19.038 20.026 19.0207 19.89 18.986C19.7533 18.9507 19.6166 18.8973 19.48 18.826L17.854 18H6.13398L4.61898 18.788C4.45364 18.8793 4.27898 18.944 4.09498 18.982C3.91098 19.0193 3.72331 19.038 3.52998 19.038Z" fill="#060809"/>
</svg>
