<svg width="24" height="25" viewBox="0 0 24 25" fill="none" xmlns="http://www.w3.org/2000/svg">
<path d="M7.44 16.415C7.9619 16.415 8.385 15.9919 8.385 15.47C8.385 14.9481 7.9619 14.525 7.44 14.525C6.91809 14.525 6.495 14.9481 6.495 15.47C6.495 15.9919 6.91809 16.415 7.44 16.415Z" fill="#060809"/>
<path d="M8.85001 13.79C9.10682 13.79 9.31501 13.5818 9.31501 13.325C9.31501 13.0682 9.10682 12.86 8.85001 12.86C8.5932 12.86 8.38501 13.0682 8.38501 13.325C8.38501 13.5818 8.5932 13.79 8.85001 13.79Z" fill="#060809"/>
<path fill-rule="evenodd" clip-rule="evenodd" d="M22.725 14V13.865C22.7325 13.7301 22.7325 13.5949 22.725 13.46V12.965C22.6419 12.8451 22.5667 12.7198 22.5 12.59V12.185C22.5 12.05 22.5 11.93 22.38 11.81C22.3311 11.7035 22.2909 11.5931 22.26 11.48V11.405C22.2011 11.2941 22.1509 11.1788 22.11 11.06C22.0661 10.9571 22.016 10.8569 21.96 10.76L21.78 10.415V10.28C21.3593 9.60006 20.8554 8.97523 20.28 8.42002H16.155L17.13 4.76002C17.2042 4.50433 17.3769 4.28854 17.61 4.16002C17.73 4.10481 17.8605 4.07623 17.9925 4.07623C18.1246 4.07623 18.2551 4.10481 18.375 4.16002L21.18 5.22502L21.855 3.48502L19.05 2.00002C18.6809 1.85834 18.2861 1.79586 17.8913 1.81664C17.4965 1.83742 17.1104 1.94099 16.7582 2.12063C16.406 2.30027 16.0955 2.55196 15.8469 2.85937C15.5983 3.16678 15.4171 3.52304 15.315 3.90502L14.22 8.07502H10.965C10.8549 6.87773 10.2924 5.76747 9.39222 4.9704C8.49204 4.17333 7.32185 3.74942 6.12003 3.78502C4.88218 3.74441 3.67843 4.19455 2.77095 5.03741C1.86348 5.88026 1.3258 7.04754 1.27503 8.28502C1.27396 9.20014 1.55192 10.0938 2.07184 10.8469C2.59176 11.6 3.32893 12.1767 4.18503 12.5C4.1921 12.6249 4.1921 12.7501 4.18503 12.875V13.34C4.17758 13.4749 4.17758 13.6101 4.18503 13.745V14.42C4.27851 16.7809 5.28758 19.0127 6.99841 20.6423C8.70923 22.2719 10.9874 23.1714 13.35 23.15C15.7561 23.2269 18.0945 22.3462 19.8521 20.7011C21.6096 19.056 22.6428 16.781 22.725 14.375V14ZM13.35 21.275C11.4411 21.3522 9.57944 20.6692 8.17344 19.3757C6.76744 18.0821 5.93188 16.2838 5.85003 14.375C5.86155 12.7353 6.48164 11.1584 7.59003 9.95002H19.125C20.2467 11.179 20.8628 12.7862 20.85 14.45C20.749 16.3455 19.9051 18.1248 18.5012 19.4023C17.0974 20.6798 15.2466 21.3527 13.35 21.275ZM3.15003 8.34502C3.16917 7.97121 3.26214 7.60489 3.42358 7.2672C3.58503 6.92951 3.81174 6.62713 4.09065 6.37751C4.36955 6.12789 4.69513 5.93597 5.04859 5.81282C5.40205 5.68968 5.77639 5.63774 6.15003 5.66002C6.85923 5.62458 7.55672 5.85103 8.10985 6.29631C8.66298 6.74158 9.03318 7.37461 9.15003 8.07502H6.79503C6.21549 8.62643 5.71115 9.25181 5.29503 9.93502C5.29789 9.97497 5.29789 10.0151 5.29503 10.055L5.11503 10.4C5.06883 10.4871 5.02873 10.5773 4.99503 10.67C4.49401 10.5051 4.05228 10.197 3.72439 9.78378C3.39651 9.37059 3.19683 8.87041 3.15003 8.34502Z" fill="#060809"/>
</svg>
