<svg width="18" height="19" viewBox="0 0 18 19" fill="none" xmlns="http://www.w3.org/2000/svg">
<path d="M14.25 3.5H12.75V2.75C12.75 2.55109 12.671 2.36032 12.5303 2.21967C12.3897 2.07902 12.1989 2 12 2C11.8011 2 11.6103 2.07902 11.4697 2.21967C11.329 2.36032 11.25 2.55109 11.25 2.75V3.5H6.75V2.75C6.75 2.55109 6.67098 2.36032 6.53033 2.21967C6.38968 2.07902 6.19891 2 6 2C5.80109 2 5.61032 2.07902 5.46967 2.21967C5.32902 2.36032 5.25 2.55109 5.25 2.75V3.5H3.75C3.15326 3.5 2.58097 3.73705 2.15901 4.15901C1.73705 4.58097 1.5 5.15326 1.5 5.75V14.75C1.5 15.3467 1.73705 15.919 2.15901 16.341C2.58097 16.7629 3.15326 17 3.75 17H14.25C14.8467 17 15.419 16.7629 15.841 16.341C16.2629 15.919 16.5 15.3467 16.5 14.75V5.75C16.5 5.15326 16.2629 4.58097 15.841 4.15901C15.419 3.73705 14.8467 3.5 14.25 3.5ZM15 14.75C15 14.9489 14.921 15.1397 14.7803 15.2803C14.6397 15.421 14.4489 15.5 14.25 15.5H3.75C3.55109 15.5 3.36032 15.421 3.21967 15.2803C3.07902 15.1397 3 14.9489 3 14.75V9.5H15V14.75ZM15 8H3V5.75C3 5.55109 3.07902 5.36032 3.21967 5.21967C3.36032 5.07902 3.55109 5 3.75 5H5.25V5.75C5.25 5.94891 5.32902 6.13968 5.46967 6.28033C5.61032 6.42098 5.80109 6.5 6 6.5C6.19891 6.5 6.38968 6.42098 6.53033 6.28033C6.67098 6.13968 6.75 5.94891 6.75 5.75V5H11.25V5.75C11.25 5.94891 11.329 6.13968 11.4697 6.28033C11.6103 6.42098 11.8011 6.5 12 6.5C12.1989 6.5 12.3897 6.42098 12.5303 6.28033C12.671 6.13968 12.75 5.94891 12.75 5.75V5H14.25C14.4489 5 14.6397 5.07902 14.7803 5.21967C14.921 5.36032 15 5.55109 15 5.75V8Z" fill="#828282"/>
</svg>
