<svg width="24" height="25" viewBox="0 0 24 25" fill="none" xmlns="http://www.w3.org/2000/svg">
<path fill-rule="evenodd" clip-rule="evenodd" d="M15 2.90002H9.00002C6.99962 3.70042 5.79962 4.90042 5.40002 6.50002V18.5C5.40002 19.4548 5.77931 20.3705 6.45444 21.0456C7.12957 21.7207 8.04524 22.1 9.00002 22.1H15C15.9548 22.1 16.8705 21.7207 17.5456 21.0456C18.2207 20.3705 18.6 19.4548 18.6 18.5V6.50002C18.2004 4.90042 17.0004 3.70042 15 2.90002ZM6.60002 18.5V6.65962C6.91682 5.57962 7.76282 4.73362 9.23882 4.10002H14.76C16.236 4.73362 17.082 5.57962 17.3988 6.65962V18.5C17.3988 19.1365 17.146 19.747 16.6959 20.1971C16.2458 20.6472 15.6353 20.9 14.9988 20.9H8.99882C8.3623 20.9 7.75186 20.6472 7.30177 20.1971C6.85168 19.747 6.60002 19.1365 6.60002 18.5Z" fill="#060809"/>
<path fill-rule="evenodd" clip-rule="evenodd" d="M8.40002 11.9C8.40002 13.1731 8.90574 14.394 9.80591 15.2941C10.7061 16.1943 11.927 16.7 13.2 16.7C14.4731 16.7 15.694 16.1943 16.5941 15.2941C17.4943 14.394 18 13.1731 18 11.9C18 10.627 17.4943 9.4061 16.5941 8.50592C15.694 7.60575 14.4731 7.10004 13.2 7.10004C11.927 7.10004 10.7061 7.60575 9.80591 8.50592C8.90574 9.4061 8.40002 10.627 8.40002 11.9ZM16.8 11.9C16.8 12.3728 16.7069 12.8409 16.526 13.2777C16.3451 13.7145 16.0799 14.1113 15.7456 14.4456C15.4113 14.7799 15.0145 15.0451 14.5777 15.226C14.1409 15.4069 13.6728 15.5 13.2 15.5C12.7273 15.5 12.2591 15.4069 11.8224 15.226C11.3856 15.0451 10.9887 14.7799 10.6544 14.4456C10.3201 14.1113 10.055 13.7145 9.87406 13.2777C9.69314 12.8409 9.60002 12.3728 9.60002 11.9C9.60002 10.9453 9.97931 10.0296 10.6544 9.35445C11.3296 8.67932 12.2452 8.30004 13.2 8.30004C14.1548 8.30004 15.0705 8.67932 15.7456 9.35445C16.4207 10.0296 16.8 10.9453 16.8 11.9Z" fill="#060809"/>
<path d="M14.4888 8.30603L15.672 8.50283C15.4716 9.71003 14.8644 10.8284 13.866 11.8508C12.87 12.872 11.5092 13.6028 9.79921 14.0516L9.49561 12.89C11.0064 12.494 12.1728 11.8664 13.008 11.012C13.842 10.1588 14.3304 9.26003 14.4888 8.30603Z" fill="#060809"/>
<path d="M16.0105 9.63444C15.9987 9.55652 16.0024 9.47704 16.0214 9.40055C16.0404 9.32407 16.0743 9.25207 16.1211 9.18866C16.1679 9.12526 16.2267 9.07169 16.2942 9.03102C16.3617 8.99036 16.4365 8.96338 16.5145 8.95164C16.5924 8.9399 16.6719 8.94363 16.7484 8.9626C16.8248 8.98158 16.8968 9.01543 16.9602 9.06223C17.0236 9.10903 17.0772 9.16786 17.1179 9.23536C17.1586 9.30287 17.1855 9.37772 17.1973 9.45564C17.3905 10.7396 17.2333 11.7908 16.6981 12.5852C16.0741 13.508 15.1225 14.0336 14.2009 14.276C14.0929 14.3036 13.9249 14.342 13.6669 14.3972L12.9313 14.5544L12.7993 14.5832C12.5493 14.6359 12.3001 14.6919 12.0517 14.7512C11.7781 14.8196 11.2777 14.9732 10.5637 15.2108C10.4126 15.2611 10.2478 15.2494 10.1055 15.1781C9.96316 15.1069 9.85495 14.9821 9.80466 14.831C9.75438 14.68 9.76614 14.5152 9.83737 14.3729C9.9086 14.2305 10.0334 14.1223 10.1845 14.072C10.9285 13.8248 11.4517 13.664 11.7661 13.586C11.9653 13.538 12.2161 13.4816 12.5461 13.4096L12.6793 13.3808L13.4137 13.2248C13.6549 13.172 13.8097 13.1372 13.8961 13.1144C14.5621 12.9404 15.2761 12.5456 15.7021 11.9144C16.0501 11.3984 16.1629 10.646 16.0105 9.63444Z" fill="#060809"/>
</svg>
