<svg width="15" height="15" viewBox="0 0 15 15" fill="none" xmlns="http://www.w3.org/2000/svg">
<g clip-path="url(#clip0_1_434)">
<path d="M0.5 1.08331H3.279L5.029 7.49998H11.1627L12.9647 2.0954L14.0712 2.46465L12.0033 8.66665H5.03833L4.74667 9.83331H13.3333V11H3.25333L3.98017 8.08973L2.38767 2.24998H0.5V1.08331ZM8.66667 1.66665V3.41665H10.4167V4.58331H8.66667V6.33331H7.5V4.58331H5.75V3.41665H7.5V1.66665H8.66667ZM2.83333 12.75C2.83333 12.4406 2.95625 12.1438 3.17504 11.925C3.39383 11.7062 3.69058 11.5833 4 11.5833C4.30942 11.5833 4.60616 11.7062 4.82496 11.925C5.04375 12.1438 5.16667 12.4406 5.16667 12.75C5.16667 13.0594 5.04375 13.3561 4.82496 13.5749C4.60616 13.7937 4.30942 13.9166 4 13.9166C3.69058 13.9166 3.39383 13.7937 3.17504 13.5749C2.95625 13.3561 2.83333 13.0594 2.83333 12.75ZM11 12.75C11 12.4406 11.1229 12.1438 11.3417 11.925C11.5605 11.7062 11.8572 11.5833 12.1667 11.5833C12.4761 11.5833 12.7728 11.7062 12.9916 11.925C13.2104 12.1438 13.3333 12.4406 13.3333 12.75C13.3333 13.0594 13.2104 13.3561 12.9916 13.5749C12.7728 13.7937 12.4761 13.9166 12.1667 13.9166C11.8572 13.9166 11.5605 13.7937 11.3417 13.5749C11.1229 13.3561 11 13.0594 11 12.75Z" fill="white"/>
</g>
<defs>
<clipPath id="clip0_1_434">
<rect width="14" height="14" fill="white" transform="translate(0.5 0.5)"/>
</clipPath>
</defs>
</svg>
