<svg width="24" height="25" viewBox="0 0 24 25" fill="none" xmlns="http://www.w3.org/2000/svg">
<g clip-path="url(#clip0_1_285)">
<path fill-rule="evenodd" clip-rule="evenodd" d="M5 3C5 2.86739 5.05268 2.74022 5.14645 2.64645C5.24021 2.55268 5.36739 2.5 5.5 2.5H14.7855C14.8851 2.49988 14.9824 2.52947 15.065 2.585L18.779 5.085C18.847 5.13075 18.9028 5.19253 18.9413 5.2649C18.9799 5.33727 19 5.41801 19 5.5V22C19 22.1326 18.9473 22.2598 18.8536 22.3536C18.7598 22.4473 18.6326 22.5 18.5 22.5H9.2145C9.11495 22.5001 9.01763 22.4705 8.935 22.415L5.221 19.915C5.15296 19.8692 5.09722 19.8075 5.05868 19.7351C5.02014 19.6627 4.99999 19.582 5 19.5V3ZM6 3.939V5.186C6.00002 5.32403 6.02862 5.46056 6.084 5.587L7.0765 7.8565C7.11019 7.93379 7.16288 8.0013 7.22967 8.05275C7.29646 8.10421 7.37517 8.13794 7.4585 8.15082C7.54182 8.16369 7.62704 8.15528 7.70624 8.12638C7.78545 8.09748 7.85605 8.04901 7.9115 7.9855L8.2525 7.595C8.41203 7.41272 8.49998 7.17873 8.5 6.9365V5.6215L6 3.939ZM9.5 6V21.5H18V6H9.5ZM16.8615 5H9.3665L7.1385 3.5H14.6335L16.8615 5ZM18 12C18 10.9391 17.5786 9.92172 16.8284 9.17157C16.0783 8.42143 15.0609 8 14 8C12.9391 8 11.9217 8.42143 11.1716 9.17157C10.4214 9.92172 10 10.9391 10 12C10 13.0609 10.4214 14.0783 11.1716 14.8284C11.9217 15.5786 12.9391 16 14 16C15.0609 16 16.0783 15.5786 16.8284 14.8284C17.5786 14.0783 18 13.0609 18 12ZM8.5 20.9165V8.805C8.22133 9.04126 7.8652 9.16626 7.5 9.156V20.2435L8.5 20.9165ZM6.5 19.5705V8.75H6.506C6.35867 8.61073 6.24113 8.44301 6.1605 8.257L6 7.8905V19.234L6.5 19.5705ZM14 9C13.2044 9 12.4413 9.31607 11.8787 9.87868C11.3161 10.4413 11 11.2044 11 12C11 12.7956 11.3161 13.5587 11.8787 14.1213C12.4413 14.6839 13.2044 15 14 15C14.7956 15 15.5587 14.6839 16.1213 14.1213C16.6839 13.5587 17 12.7956 17 12C17 11.2044 16.6839 10.4413 16.1213 9.87868C15.5587 9.31607 14.7956 9 14 9ZM12 11.5C12 11.3674 12.0527 11.2402 12.1464 11.1464C12.2402 11.0527 12.3674 11 12.5 11H15.5V12H12.5C12.3674 12 12.2402 11.9473 12.1464 11.8536C12.0527 11.7598 12 11.6326 12 11.5ZM13 13C13 12.8674 13.0527 12.7402 13.1464 12.6464C13.2402 12.5527 13.3674 12.5 13.5 12.5H14.5V13.5H13.5C13.3674 13.5 13.2402 13.4473 13.1464 13.3536C13.0527 13.2598 13 13.1326 13 13Z" fill="#060809"/>
</g>
<defs>
<clipPath id="clip0_1_285">
<rect width="24" height="24" fill="white" transform="translate(0 0.5)"/>
</clipPath>
</defs>
</svg>
