<svg width="18" height="19" viewBox="0 0 18 19" fill="none" xmlns="http://www.w3.org/2000/svg">
<path d="M14.25 4.62502H9.54L9.3 3.87502C9.14441 3.43494 8.85581 3.05414 8.47417 2.78539C8.09254 2.51663 7.63677 2.37322 7.17 2.37502H3.75C3.15326 2.37502 2.58097 2.61207 2.15901 3.03403C1.73705 3.45598 1.5 4.02828 1.5 4.62502V14.375C1.5 14.9718 1.73705 15.544 2.15901 15.966C2.58097 16.388 3.15326 16.625 3.75 16.625H14.25C14.8467 16.625 15.419 16.388 15.841 15.966C16.2629 15.544 16.5 14.9718 16.5 14.375V6.87502C16.5 6.27828 16.2629 5.70598 15.841 5.28403C15.419 4.86207 14.8467 4.62502 14.25 4.62502ZM15 14.375C15 14.5739 14.921 14.7647 14.7803 14.9053C14.6397 15.046 14.4489 15.125 14.25 15.125H3.75C3.55109 15.125 3.36032 15.046 3.21967 14.9053C3.07902 14.7647 3 14.5739 3 14.375V4.62502C3 4.4261 3.07902 4.23534 3.21967 4.09469C3.36032 3.95403 3.55109 3.87502 3.75 3.87502H7.17C7.32723 3.87461 7.48062 3.92363 7.60847 4.01515C7.73633 4.10667 7.83219 4.23605 7.8825 4.38502L8.2875 5.61502C8.33781 5.76398 8.43367 5.89337 8.56153 5.98488C8.68938 6.0764 8.84277 6.12542 9 6.12502H14.25C14.4489 6.12502 14.6397 6.20403 14.7803 6.34469C14.921 6.48534 15 6.6761 15 6.87502V14.375Z" fill="#828282"/>
</svg>
