<svg width="195" height="30" viewBox="0 0 195 30" fill="none" xmlns="http://www.w3.org/2000/svg">
<path d="M19.4922 1.33594C19.4141 2.5599 19.3424 3.77083 19.2773 4.96875C19.2122 6.16667 19.1276 7.3776 19.0234 8.60156L10.7422 9.03125V11.4922H17.9297L17.5391 17.5469L10.7031 17.7422L10.7422 29.3047L0.859375 29.5L1.48438 1.33594H19.4922ZM44.2383 14.5391C44.2383 15.724 44.1016 16.8698 43.8281 17.9766C43.5547 19.0703 43.1576 20.099 42.6367 21.0625C42.1289 22.026 41.5039 22.9115 40.7617 23.7188C40.0326 24.513 39.2057 25.1966 38.2812 25.7695C37.3698 26.3424 36.3737 26.7917 35.293 27.1172C34.2122 27.4297 33.0664 27.5859 31.8555 27.5859C30.6836 27.5859 29.5638 27.4362 28.4961 27.1367C27.4414 26.8372 26.4518 26.4206 25.5273 25.8867C24.6029 25.3398 23.763 24.6888 23.0078 23.9336C22.2656 23.1654 21.6276 22.319 21.0938 21.3945C20.5729 20.457 20.1628 19.4544 19.8633 18.3867C19.5768 17.319 19.4336 16.2057 19.4336 15.0469C19.4336 13.9141 19.5703 12.8073 19.8438 11.7266C20.1172 10.6328 20.5078 9.60417 21.0156 8.64062C21.5365 7.67708 22.1615 6.79167 22.8906 5.98438C23.6198 5.17708 24.4336 4.48047 25.332 3.89453C26.2435 3.30859 27.2266 2.85286 28.2812 2.52734C29.3359 2.20182 30.4492 2.03906 31.6211 2.03906C33.5091 2.03906 35.2279 2.33203 36.7773 2.91797C38.3398 3.50391 39.668 4.34375 40.7617 5.4375C41.8685 6.51823 42.7214 7.83333 43.3203 9.38281C43.9323 10.9193 44.2383 12.638 44.2383 14.5391ZM35.5664 15.0469C35.5664 14.487 35.4818 13.9466 35.3125 13.4258C35.1562 12.8919 34.9219 12.4232 34.6094 12.0195C34.2969 11.6029 33.9062 11.2708 33.4375 11.0234C32.9818 10.763 32.4544 10.6328 31.8555 10.6328C31.2435 10.6328 30.6966 10.7435 30.2148 10.9648C29.7331 11.1862 29.3164 11.4922 28.9648 11.8828C28.6263 12.2604 28.3659 12.7096 28.1836 13.2305C28.0013 13.7383 27.9102 14.2786 27.9102 14.8516C27.9102 15.3984 27.9883 15.9453 28.1445 16.4922C28.3008 17.0391 28.5352 17.5339 28.8477 17.9766C29.1602 18.4193 29.5443 18.7773 30 19.0508C30.4688 19.3242 31.0091 19.4609 31.6211 19.4609C32.2331 19.4609 32.7799 19.3438 33.2617 19.1094C33.7565 18.862 34.1732 18.5365 34.5117 18.1328C34.8503 17.7161 35.1107 17.2409 35.293 16.707C35.4753 16.1732 35.5664 15.6198 35.5664 15.0469ZM69.7461 14.5391C69.7461 15.724 69.6094 16.8698 69.3359 17.9766C69.0625 19.0703 68.6654 20.099 68.1445 21.0625C67.6367 22.026 67.0117 22.9115 66.2695 23.7188C65.5404 24.513 64.7135 25.1966 63.7891 25.7695C62.8776 26.3424 61.8815 26.7917 60.8008 27.1172C59.7201 27.4297 58.5742 27.5859 57.3633 27.5859C56.1914 27.5859 55.0716 27.4362 54.0039 27.1367C52.9492 26.8372 51.9596 26.4206 51.0352 25.8867C50.1107 25.3398 49.2708 24.6888 48.5156 23.9336C47.7734 23.1654 47.1354 22.319 46.6016 21.3945C46.0807 20.457 45.6706 19.4544 45.3711 18.3867C45.0846 17.319 44.9414 16.2057 44.9414 15.0469C44.9414 13.9141 45.0781 12.8073 45.3516 11.7266C45.625 10.6328 46.0156 9.60417 46.5234 8.64062C47.0443 7.67708 47.6693 6.79167 48.3984 5.98438C49.1276 5.17708 49.9414 4.48047 50.8398 3.89453C51.7513 3.30859 52.7344 2.85286 53.7891 2.52734C54.8438 2.20182 55.957 2.03906 57.1289 2.03906C59.0169 2.03906 60.7357 2.33203 62.2852 2.91797C63.8477 3.50391 65.1758 4.34375 66.2695 5.4375C67.3763 6.51823 68.2292 7.83333 68.8281 9.38281C69.4401 10.9193 69.7461 12.638 69.7461 14.5391ZM61.0742 15.0469C61.0742 14.487 60.9896 13.9466 60.8203 13.4258C60.6641 12.8919 60.4297 12.4232 60.1172 12.0195C59.8047 11.6029 59.4141 11.2708 58.9453 11.0234C58.4896 10.763 57.9622 10.6328 57.3633 10.6328C56.7513 10.6328 56.2044 10.7435 55.7227 10.9648C55.2409 11.1862 54.8242 11.4922 54.4727 11.8828C54.1341 12.2604 53.8737 12.7096 53.6914 13.2305C53.5091 13.7383 53.418 14.2786 53.418 14.8516C53.418 15.3984 53.4961 15.9453 53.6523 16.4922C53.8086 17.0391 54.043 17.5339 54.3555 17.9766C54.668 18.4193 55.0521 18.7773 55.5078 19.0508C55.9766 19.3242 56.5169 19.4609 57.1289 19.4609C57.7409 19.4609 58.2878 19.3438 58.7695 19.1094C59.2643 18.862 59.681 18.5365 60.0195 18.1328C60.3581 17.7161 60.6185 17.2409 60.8008 16.707C60.9831 16.1732 61.0742 15.6198 61.0742 15.0469ZM93.2422 13.9922C93.2422 15.8151 93.0078 17.4492 92.5391 18.8945C92.0703 20.3398 91.4128 21.6224 90.5664 22.7422C89.7331 23.849 88.737 24.793 87.5781 25.5742C86.4193 26.3555 85.1497 27 83.7695 27.5078C82.3893 28.0026 80.918 28.3672 79.3555 28.6016C77.806 28.8359 76.2109 28.9531 74.5703 28.9531C73.9583 28.9531 73.3594 28.9401 72.7734 28.9141C72.1875 28.875 71.5885 28.8229 70.9766 28.7578L71.5234 3.32812C72.9557 2.8724 74.4271 2.55339 75.9375 2.37109C77.4609 2.17578 78.9714 2.07812 80.4688 2.07812C82.3307 2.07812 84.043 2.33854 85.6055 2.85938C87.168 3.38021 88.5156 4.14844 89.6484 5.16406C90.7812 6.16667 91.6602 7.41016 92.2852 8.89453C92.9232 10.3659 93.2422 12.0651 93.2422 13.9922ZM79.9609 21.4922C80.7422 21.375 81.4518 21.1406 82.0898 20.7891C82.7409 20.4245 83.3008 19.9818 83.7695 19.4609C84.2383 18.9271 84.5964 18.3281 84.8438 17.6641C85.1042 16.987 85.2344 16.2708 85.2344 15.5156C85.2344 14.7734 85.1562 14.0833 85 13.4453C84.8438 12.7943 84.5898 12.2344 84.2383 11.7656C83.8867 11.2839 83.4245 10.9062 82.8516 10.6328C82.2786 10.3464 81.5755 10.1901 80.7422 10.1641L79.9609 21.4922Z" fill="#254E16"/>
<path d="M112.969 1.33594C112.891 2.5599 112.819 3.77083 112.754 4.96875C112.689 6.16667 112.604 7.3776 112.5 8.60156L104.219 9.03125V11.4922H111.406L111.016 17.5469L104.18 17.7422L104.219 29.3047L94.3359 29.5L94.9609 1.33594H112.969ZM136.016 27.8203L126.328 29.0703L125.156 24.6562H120.703L119.727 29.0703L109.766 28.0938L117.539 2.07812L128.398 1.53125L136.016 27.8203ZM124.453 18.6797L122.969 11.8828L121.523 18.6797H124.453ZM159.316 10.6719C159.316 11.6875 159.225 12.612 159.043 13.4453C158.874 14.2656 158.6 15.0208 158.223 15.7109C157.845 16.401 157.357 17.0391 156.758 17.625C156.159 18.2109 155.436 18.7708 154.59 19.3047L159.238 27.5859L150.449 29.3047L147.441 20.9844L145.02 21.0625L144.668 29.1875H136.27C136.335 26.2188 136.393 23.263 136.445 20.3203C136.51 17.3776 136.582 14.4219 136.66 11.4531C136.686 9.95573 136.712 8.47135 136.738 7C136.764 5.52865 136.816 4.04427 136.895 2.54688C137.806 2.20833 138.704 1.92839 139.59 1.70703C140.475 1.48568 141.361 1.31641 142.246 1.19922C143.145 1.06901 144.049 0.984375 144.961 0.945312C145.885 0.893229 146.829 0.867188 147.793 0.867188C149.277 0.867188 150.71 1.07552 152.09 1.49219C153.483 1.89583 154.714 2.50781 155.781 3.32812C156.849 4.14844 157.702 5.17057 158.34 6.39453C158.991 7.61849 159.316 9.04427 159.316 10.6719ZM150.566 11.2969C150.566 10.75 150.488 10.2487 150.332 9.79297C150.189 9.33724 149.967 8.94661 149.668 8.62109C149.382 8.28255 149.017 8.02214 148.574 7.83984C148.145 7.64453 147.637 7.54688 147.051 7.54688C146.79 7.54688 146.536 7.56641 146.289 7.60547C146.042 7.63151 145.801 7.67708 145.566 7.74219L145.254 15.0078H145.723C146.283 15.0078 146.849 14.9362 147.422 14.793C148.008 14.6497 148.529 14.4284 148.984 14.1289C149.453 13.8294 149.831 13.4453 150.117 12.9766C150.417 12.5078 150.566 11.9479 150.566 11.2969ZM194.824 16.2578C194.824 18.1198 194.766 19.9753 194.648 21.8242C194.531 23.6732 194.395 25.5286 194.238 27.3906L184.199 27.8594C184.499 25.5938 184.766 23.3281 185 21.0625C185.247 18.7839 185.371 16.5052 185.371 14.2266C185.371 14.0833 185.365 13.8359 185.352 13.4844C185.339 13.1198 185.312 12.7096 185.273 12.2539C185.247 11.7982 185.202 11.3294 185.137 10.8477C185.085 10.3529 185.007 9.90365 184.902 9.5C184.811 9.08333 184.694 8.74479 184.551 8.48438C184.408 8.22396 184.238 8.09375 184.043 8.09375C183.587 8.09375 183.229 8.26953 182.969 8.62109C182.708 8.95964 182.513 9.36979 182.383 9.85156C182.266 10.3333 182.194 10.8281 182.168 11.3359C182.142 11.8307 182.129 12.2344 182.129 12.5469C182.129 13.0938 182.142 13.6406 182.168 14.1875C182.194 14.7344 182.207 15.2943 182.207 15.8672C182.207 17.8854 182.155 19.8971 182.051 21.9023C181.96 23.9076 181.842 25.9193 181.699 27.9375L172.441 28.2891C172.741 26.0234 173.001 23.7643 173.223 21.5117C173.457 19.2461 173.574 16.974 173.574 14.6953C173.574 14.5521 173.568 14.2917 173.555 13.9141C173.542 13.5365 173.516 13.1133 173.477 12.6445C173.451 12.1758 173.405 11.6875 173.34 11.1797C173.275 10.6719 173.19 10.2096 173.086 9.79297C172.995 9.36328 172.878 9.01172 172.734 8.73828C172.591 8.46484 172.415 8.32812 172.207 8.32812C171.882 8.32812 171.608 8.45833 171.387 8.71875C171.165 8.96615 170.983 9.29167 170.84 9.69531C170.71 10.099 170.605 10.5482 170.527 11.043C170.462 11.5247 170.41 12 170.371 12.4688C170.345 12.9375 170.326 13.3737 170.312 13.7773C170.312 14.168 170.306 14.4609 170.293 14.6562L169.863 28.9141H160.02C160.228 26.7135 160.436 24.5065 160.645 22.293C160.866 20.0794 161.055 17.8724 161.211 15.6719C161.38 13.4583 161.517 11.2448 161.621 9.03125C161.725 6.81771 161.777 4.60417 161.777 2.39062L171.074 2L171.035 4.26562C171.322 3.90104 171.647 3.53646 172.012 3.17188C172.376 2.79427 172.76 2.46224 173.164 2.17578C173.581 1.8763 174.017 1.63542 174.473 1.45312C174.941 1.27083 175.423 1.17969 175.918 1.17969C176.556 1.17969 177.129 1.23177 177.637 1.33594C178.145 1.42708 178.6 1.58984 179.004 1.82422C179.421 2.05859 179.785 2.38411 180.098 2.80078C180.41 3.20443 180.684 3.71875 180.918 4.34375C181.335 3.88802 181.751 3.46484 182.168 3.07422C182.598 2.68359 183.047 2.35156 183.516 2.07812C183.984 1.79167 184.492 1.57031 185.039 1.41406C185.586 1.25781 186.191 1.17969 186.855 1.17969C188.118 1.17969 189.193 1.42708 190.078 1.92188C190.964 2.40365 191.699 3.04818 192.285 3.85547C192.884 4.66276 193.346 5.58724 193.672 6.62891C194.01 7.67057 194.264 8.7513 194.434 9.87109C194.603 10.9909 194.707 12.1042 194.746 13.2109C194.798 14.3177 194.824 15.3333 194.824 16.2578Z" fill="#457235"/>
</svg>
