<svg width="244" height="92" viewBox="0 0 244 92" fill="none" xmlns="http://www.w3.org/2000/svg">
<rect x="11.25" y="15" width="20" height="21" rx="8" fill="#FFC43F"/>
<rect x="27.25" y="28" width="12" height="13" rx="6" fill="#FFF73F"/>
<rect x="28.25" y="21" width="10" height="11" rx="5" fill="#FFF73F"/>
<rect x="24.25" y="27" width="8" height="9" rx="4" fill="#FFF73F"/>
<path fill-rule="evenodd" clip-rule="evenodd" d="M18.88 7.56592C19.1452 7.56592 19.3996 7.67128 19.5871 7.85881C19.7746 8.04635 19.88 8.3007 19.88 8.56592V15.1659C19.88 15.4311 19.7746 15.6855 19.5871 15.873C19.3996 16.0606 19.1452 16.1659 18.88 16.1659C18.6148 16.1659 18.3604 16.0606 18.1729 15.873C17.9854 15.6855 17.88 15.4311 17.88 15.1659V8.56592C17.88 8.3007 17.9854 8.04635 18.1729 7.85881C18.3604 7.67128 18.6148 7.56592 18.88 7.56592Z" fill="#E39826"/>
<path fill-rule="evenodd" clip-rule="evenodd" d="M11.78 13.9049C12.91 13.6349 14.063 13.8399 15.26 14.4579C16.235 14.9629 16.927 15.1939 17.466 15.3049C18.004 15.4169 18.432 15.4189 18.949 15.4189V17.4189H18.929C18.413 17.4189 17.809 17.4189 17.061 17.2639C16.304 17.1069 15.439 16.8019 14.341 16.2339C13.463 15.7809 12.801 15.7169 12.245 15.8499C11.661 15.9899 11.044 16.3799 10.333 17.1139C8.70103 18.8019 8.19403 20.5399 8.01703 21.8759C7.91703 23.5199 8.21403 26.7659 9.68503 29.9389C10.185 31.0189 10.895 32.5089 11.761 33.6759C12.193 34.2579 12.627 34.7059 13.044 34.9819C13.449 35.2489 13.785 35.3219 14.09 35.2699C17.213 34.7319 17.8 34.7189 18.409 34.7189H19.446V36.7189H18.38C17.958 36.7189 17.46 36.7189 14.43 37.2409C13.49 37.4029 12.643 37.1139 11.942 36.6509C11.253 36.1959 10.658 35.5449 10.155 34.8679C9.15003 33.5149 8.36403 31.8439 7.87103 30.7799C6.23303 27.2479 5.89903 23.6429 6.02303 21.7159L6.02603 21.6839L6.03003 21.6519C6.24203 20.0079 6.87403 17.8129 8.89603 15.7239C9.74103 14.8499 10.679 14.1679 11.781 13.9039" fill="#E39826"/>
<path fill-rule="evenodd" clip-rule="evenodd" d="M14.64 11.41C16.136 12.841 16.947 14.576 16.947 15.92C16.947 16.1852 17.0524 16.4396 17.2399 16.6271C17.4274 16.8146 17.6818 16.92 17.947 16.92C18.2122 16.92 18.4666 16.8146 18.6541 16.6271C18.8416 16.4396 18.947 16.1852 18.947 15.92C18.947 13.87 17.779 11.645 16.022 9.964C14.244 8.265 11.743 7 8.896 7C8.63078 7 8.37643 7.10536 8.18889 7.29289C8.00135 7.48043 7.896 7.73478 7.896 8C7.896 8.26522 8.00135 8.51957 8.18889 8.70711C8.37643 8.89464 8.63078 9 8.896 9C11.14 9 13.164 9.999 14.639 11.41" fill="#E39826"/>
<path fill-rule="evenodd" clip-rule="evenodd" d="M8.57406 7.00891C8.83714 6.9761 9.10248 7.0491 9.31175 7.21187C9.52103 7.37464 9.6571 7.61385 9.69006 7.87691C10.1821 11.8069 13.6351 13.8769 16.4241 14.9919C16.6703 15.0904 16.8673 15.2828 16.9718 15.5266C17.0763 15.7704 17.0796 16.0457 16.9811 16.2919C16.8825 16.5382 16.6902 16.7352 16.4464 16.8397C16.2026 16.9441 15.9273 16.9474 15.6811 16.8489C12.8121 15.7019 8.34606 13.2449 7.70606 8.12491C7.67325 7.86183 7.74625 7.59649 7.90902 7.38721C8.07178 7.17794 8.31099 7.04187 8.57406 7.00891ZM25.7621 13.9029C24.6101 13.6389 23.4281 13.8369 22.1921 14.4509C21.1721 14.9569 20.4451 15.1909 19.8751 15.3039C19.3051 15.4169 18.8531 15.4189 18.3151 15.4189C18.0498 15.4189 17.7955 15.5243 17.6079 15.7118C17.4204 15.8993 17.3151 16.1537 17.3151 16.4189C17.3151 16.6841 17.4204 16.9385 17.6079 17.126C17.7955 17.3136 18.0498 17.4189 18.3151 17.4189H18.3341C18.8711 17.4189 19.4941 17.4189 20.2641 17.2659C21.0451 17.1109 21.9401 16.8079 23.0801 16.2419C24.0041 15.7839 24.7121 15.7139 25.3161 15.8519C25.9421 15.9959 26.5931 16.3939 27.3331 17.1289C29.0491 18.8319 29.5681 20.5809 29.7471 21.9129C29.7859 22.1726 29.9254 22.4066 30.1353 22.5643C30.3452 22.7221 30.6088 22.7909 30.8691 22.756C31.1293 22.7211 31.3654 22.5852 31.5263 22.3777C31.6872 22.1701 31.76 21.9077 31.7291 21.6469C31.5071 19.9939 30.8451 17.7969 28.7421 15.7089C27.8611 14.8349 26.8921 14.1609 25.7621 13.9029ZM26.7071 34.2799C26.6124 34.1888 26.5008 34.1173 26.3785 34.0694C26.2563 34.0214 26.1258 33.998 25.9945 34.0005C25.8632 34.0031 25.7336 34.0314 25.6133 34.084C25.4929 34.1365 25.3841 34.2123 25.2931 34.3069C24.5361 35.0929 23.9001 35.3569 23.3621 35.2689C20.1101 34.7309 19.5021 34.7189 18.8771 34.7189C18.6118 34.7189 18.3575 34.8243 18.1699 35.0118C17.9824 35.1993 17.8771 35.4537 17.8771 35.7189C17.8771 35.9841 17.9824 36.2385 18.1699 36.426C18.3575 36.6136 18.6118 36.7189 18.8771 36.7189H18.9051C19.3521 36.7189 19.8721 36.7189 23.0351 37.2419C24.5571 37.4939 25.8201 36.6429 26.7341 35.6939C26.8253 35.5993 26.897 35.4876 26.945 35.3652C26.993 35.2429 27.0164 35.1122 27.0139 34.9808C27.0114 34.8494 26.983 34.7198 26.9304 34.5993C26.8777 34.4789 26.8018 34.371 26.7071 34.2799Z" fill="#E39826"/>
<path fill-rule="evenodd" clip-rule="evenodd" d="M32.65 16.103C31.647 17.913 31.387 19.812 31.786 21.095C31.825 21.2204 31.8389 21.3523 31.827 21.4831C31.815 21.6138 31.7774 21.741 31.7163 21.8573C31.6552 21.9735 31.5718 22.0766 31.4709 22.1606C31.3699 22.2447 31.2534 22.308 31.128 22.347C31.0026 22.386 30.8707 22.3999 30.7399 22.3879C30.6092 22.376 30.482 22.3384 30.3657 22.2773C30.2495 22.2162 30.1464 22.1328 30.0624 22.0318C29.9783 21.9309 29.915 21.8144 29.876 21.689C29.267 19.73 29.723 17.259 30.901 15.133C32.094 12.981 34.107 11.032 36.826 10.186C36.9514 10.147 37.0833 10.1331 37.2141 10.145C37.3449 10.157 37.472 10.1946 37.5883 10.2557C37.7045 10.3168 37.8076 10.4002 37.8917 10.5011C37.9757 10.6021 38.039 10.7186 38.078 10.844C38.117 10.9694 38.1309 11.1013 38.119 11.2321C38.107 11.3628 38.0694 11.49 38.0083 11.6063C37.9472 11.7225 37.8638 11.8256 37.7629 11.9096C37.6619 11.9937 37.5454 12.057 37.42 12.096C35.277 12.762 33.64 14.318 32.65 16.103Z" fill="#E39826"/>
<path fill-rule="evenodd" clip-rule="evenodd" d="M34.719 17.3789C33.551 19.0889 31.971 20.1719 30.646 20.3919C30.5148 20.4115 30.3888 20.4569 30.2754 20.5257C30.1619 20.5944 30.0633 20.685 29.9852 20.7922C29.9071 20.8994 29.8511 21.0211 29.8205 21.1502C29.7898 21.2793 29.7852 21.4131 29.8068 21.544C29.8285 21.6749 29.8759 21.8001 29.9464 21.9125C30.0169 22.0249 30.1091 22.1221 30.2175 22.1985C30.326 22.2749 30.4485 22.3289 30.578 22.3575C30.7076 22.3861 30.8415 22.3886 30.972 22.3649C32.995 22.0299 34.999 20.5139 36.37 18.5069C37.758 16.4749 38.597 13.8009 38.132 10.9919C38.1106 10.8623 38.0639 10.7382 37.9945 10.6266C37.9251 10.5151 37.8345 10.4183 37.7277 10.3417C37.6209 10.2652 37.5001 10.2105 37.3721 10.1807C37.2442 10.1508 37.1116 10.1465 36.982 10.1679C36.8524 10.1893 36.7283 10.236 36.6167 10.3054C36.5052 10.3748 36.4084 10.4655 36.3318 10.5723C36.2553 10.679 36.2006 10.7999 36.1708 10.9278C36.1409 11.0557 36.1366 11.1883 36.158 11.3179C36.525 13.5319 35.87 15.6929 34.718 17.3779" fill="#E39826"/>
<path fill-rule="evenodd" clip-rule="evenodd" d="M31.78 23C31.117 23 30.4811 23.2634 30.0123 23.7322C29.5434 24.2011 29.28 24.837 29.28 25.5C29.28 26.163 29.5434 26.7989 30.0123 27.2678C30.4811 27.7366 31.117 28 31.78 28C32.4431 28 33.079 27.7366 33.5478 27.2678C34.0166 26.7989 34.28 26.163 34.28 25.5C34.28 24.837 34.0166 24.2011 33.5478 23.7322C33.079 23.2634 32.4431 23 31.78 23ZM27.28 25.5C27.28 24.9091 27.3964 24.3239 27.6226 23.7779C27.8487 23.232 28.1802 22.7359 28.598 22.318C29.0159 21.9002 29.512 21.5687 30.058 21.3425C30.6039 21.1164 31.1891 21 31.78 21C32.371 21 32.9561 21.1164 33.5021 21.3425C34.0481 21.5687 34.5441 21.9002 34.962 22.318C35.3799 22.7359 35.7113 23.232 35.9375 23.7779C36.1636 24.3239 36.28 24.9091 36.28 25.5C36.28 26.6935 35.8059 27.8381 34.962 28.682C34.1181 29.5259 32.9735 30 31.78 30C30.5866 30 29.442 29.5259 28.598 28.682C27.7541 27.8381 27.28 26.6935 27.28 25.5Z" fill="#E39826"/>
<path fill-rule="evenodd" clip-rule="evenodd" d="M37.8451 18.0901C38.9684 18.4931 39.8856 19.3258 40.3949 20.4051C40.9042 21.4844 40.964 22.7217 40.5611 23.8451C40.5168 23.9687 40.4485 24.0824 40.3602 24.1797C40.272 24.2769 40.1654 24.3559 40.0467 24.412C39.9279 24.468 39.7992 24.5002 39.6681 24.5066C39.5369 24.5129 39.4057 24.4934 39.2821 24.4491C39.1584 24.4047 39.0447 24.3365 38.9475 24.2482C38.8502 24.16 38.7713 24.0534 38.7152 23.9347C38.6591 23.8159 38.6269 23.6872 38.6206 23.556C38.6142 23.4249 38.6338 23.2937 38.6781 23.1701C38.9022 22.546 38.8692 21.8585 38.5864 21.2587C38.3036 20.659 37.7941 20.1962 37.1701 19.9721C36.546 19.748 35.8585 19.7809 35.2588 20.0637C34.659 20.3465 34.1962 20.856 33.9721 21.4801C33.8779 21.7234 33.6924 21.9203 33.4551 22.0288C33.2178 22.1372 32.9474 22.1486 32.7018 22.0606C32.4562 21.9725 32.2548 21.7919 32.1405 21.5573C32.0262 21.3227 32.0081 21.0528 32.0901 20.8051C32.4933 19.682 33.3261 18.765 34.4054 18.2558C35.4846 17.7467 36.7219 17.6871 37.8451 18.0901Z" fill="#E39826"/>
<path fill-rule="evenodd" clip-rule="evenodd" d="M36.253 23.1759C37.2768 22.8823 38.3715 22.9612 39.3426 23.3986C40.3137 23.836 41.0982 24.6036 41.5566 25.5649C42.0151 26.5263 42.1178 27.619 41.8466 28.6489C41.5753 29.6788 40.9476 30.5792 40.075 31.1899C39.9675 31.2682 39.8454 31.3243 39.7159 31.3549C39.5864 31.3854 39.4522 31.3898 39.321 31.3678C39.1897 31.3458 39.0642 31.2979 38.9518 31.2268C38.8394 31.1557 38.7422 31.0628 38.6661 30.9537C38.59 30.8446 38.5364 30.7214 38.5085 30.5913C38.4806 30.4612 38.479 30.3269 38.5036 30.1962C38.5283 30.0654 38.5788 29.9409 38.6522 29.83C38.7256 29.719 38.8204 29.6238 38.931 29.5499C39.2062 29.3575 39.4398 29.1115 39.6179 28.8268C39.7959 28.5421 39.9148 28.2244 39.9674 27.8928C40.02 27.5611 40.0052 27.2222 39.924 26.8964C39.8428 26.5705 39.6967 26.2644 39.4945 25.9963C39.2924 25.7281 39.0383 25.5034 38.7474 25.3356C38.4565 25.1679 38.1348 25.0604 37.8014 25.0197C37.4681 24.9789 37.13 25.0058 36.8072 25.0986C36.4845 25.1914 36.1838 25.3483 35.923 25.5599C35.8211 25.6428 35.7039 25.7048 35.578 25.7423C35.4522 25.7799 35.3201 25.7923 35.1895 25.7788C35.0588 25.7654 34.9321 25.7263 34.8166 25.6639C34.701 25.6014 34.5989 25.5168 34.516 25.4149C34.4332 25.313 34.3712 25.1958 34.3336 25.0699C34.2961 24.9441 34.2837 24.812 34.2971 24.6814C34.3106 24.5507 34.3497 24.424 34.4121 24.3085C34.4745 24.1929 34.5591 24.0908 34.661 24.0079C35.1304 23.6264 35.6718 23.3435 36.253 23.1759ZM27.78 28.9999C27.117 28.9999 26.4811 29.2633 26.0123 29.7322C25.5434 30.201 25.28 30.8369 25.28 31.4999C25.28 32.163 25.5434 32.7989 26.0123 33.2677C26.4811 33.7365 27.117 33.9999 27.78 33.9999C28.4431 33.9999 29.079 33.7365 29.5478 33.2677C30.0166 32.7989 30.28 32.163 30.28 31.4999C30.28 30.8369 30.0166 30.201 29.5478 29.7322C29.079 29.2633 28.4431 28.9999 27.78 28.9999ZM23.28 31.4999C23.28 30.3065 23.7541 29.1619 24.598 28.3179C25.442 27.474 26.5866 26.9999 27.78 26.9999C28.9735 26.9999 30.1181 27.474 30.962 28.3179C31.8059 29.1619 32.28 30.3065 32.28 31.4999C32.28 32.6934 31.8059 33.838 30.962 34.6819C30.1181 35.5258 28.9735 35.9999 27.78 35.9999C26.5866 35.9999 25.442 35.5258 24.598 34.6819C23.7541 33.838 23.28 32.6934 23.28 31.4999Z" fill="#E39826"/>
<path fill-rule="evenodd" clip-rule="evenodd" d="M35.78 29C35.117 29 34.4811 29.2634 34.0123 29.7322C33.5434 30.2011 33.28 30.837 33.28 31.5C33.28 32.163 33.5434 32.7989 34.0123 33.2678C34.4811 33.7366 35.117 34 35.78 34C36.4431 34 37.079 33.7366 37.5478 33.2678C38.0166 32.7989 38.28 32.163 38.28 31.5C38.28 30.837 38.0166 30.2011 37.5478 29.7322C37.079 29.2634 36.4431 29 35.78 29ZM31.28 31.5C31.28 30.3065 31.7541 29.1619 32.598 28.318C33.442 27.4741 34.5866 27 35.78 27C36.9735 27 38.1181 27.4741 38.962 28.318C39.8059 29.1619 40.28 30.3065 40.28 31.5C40.28 32.6935 39.8059 33.8381 38.962 34.682C38.1181 35.5259 36.9735 36 35.78 36C34.5866 36 33.442 35.5259 32.598 34.682C31.7541 33.8381 31.28 32.6935 31.28 31.5Z" fill="#E39826"/>
<path fill-rule="evenodd" clip-rule="evenodd" d="M31.78 35C31.117 35 30.4811 35.2634 30.0123 35.7322C29.5434 36.2011 29.28 36.837 29.28 37.5C29.28 38.163 29.5434 38.7989 30.0123 39.2678C30.4811 39.7366 31.117 40 31.78 40C32.4431 40 33.079 39.7366 33.5478 39.2678C34.0166 38.7989 34.28 38.163 34.28 37.5C34.28 36.837 34.0166 36.2011 33.5478 35.7322C33.079 35.2634 32.4431 35 31.78 35ZM27.28 37.5C27.28 36.9091 27.3964 36.3239 27.6226 35.7779C27.8487 35.232 28.1802 34.7359 28.598 34.318C29.0159 33.9002 29.512 33.5687 30.058 33.3425C30.6039 33.1164 31.1891 33 31.78 33C32.371 33 32.9561 33.1164 33.5021 33.3425C34.0481 33.5687 34.5441 33.9002 34.962 34.318C35.3799 34.7359 35.7113 35.232 35.9375 35.7779C36.1636 36.3239 36.28 36.9091 36.28 37.5C36.28 38.6935 35.8059 39.8381 34.962 40.682C34.1181 41.5259 32.9735 42 31.78 42C30.5866 42 29.442 41.5259 28.598 40.682C27.7541 39.8381 27.28 38.6935 27.28 37.5Z" fill="#E39826"/>
<path fill-rule="evenodd" clip-rule="evenodd" d="M37.8341 33.9659C37.8782 33.8422 37.9462 33.7284 38.0343 33.631C38.1224 33.5336 38.2289 33.4545 38.3475 33.3982C38.4662 33.3419 38.5948 33.3096 38.726 33.303C38.8572 33.2964 38.9884 33.3158 39.1121 33.3599C39.7465 33.5864 40.3219 33.9525 40.796 34.4311C41.27 34.9097 41.6306 35.4886 41.851 36.1251C42.0715 36.7617 42.1462 37.4396 42.0697 38.1089C41.9932 38.7781 41.7675 39.4217 41.4091 39.9921C41.0507 40.5624 40.5688 41.0451 39.999 41.4044C39.4292 41.7636 38.7859 41.9904 38.1168 42.068C37.4476 42.1455 36.7696 42.0718 36.1327 41.8523C35.4959 41.6329 34.9164 41.2732 34.4371 40.7999C34.3411 40.7082 34.2644 40.5984 34.2114 40.4768C34.1584 40.3551 34.1301 40.2242 34.1282 40.0915C34.1262 39.9588 34.1507 39.8271 34.2002 39.704C34.2497 39.5809 34.3232 39.4689 34.4165 39.3745C34.5097 39.2801 34.6208 39.2051 34.7432 39.1541C34.8657 39.103 34.9971 39.0768 35.1298 39.0771C35.2625 39.0773 35.3938 39.1039 35.5161 39.1554C35.6383 39.2069 35.7492 39.2822 35.8421 39.3769C36.1083 39.6399 36.4302 39.8397 36.784 39.9616C37.1378 40.0836 37.5144 40.1245 37.8862 40.0815C38.2579 40.0385 38.6152 39.9125 38.9318 39.713C39.2484 39.5134 39.5161 39.2454 39.7153 38.9286C39.9144 38.6117 40.0399 38.2543 40.0825 37.8825C40.125 37.5107 40.0836 37.1341 39.9612 36.7805C39.8388 36.4268 39.6386 36.1052 39.3753 35.8392C39.1121 35.5733 38.7924 35.3699 38.4401 35.2439C38.3163 35.1998 38.2025 35.1318 38.1051 35.0437C38.0077 34.9556 37.9286 34.8491 37.8723 34.7305C37.8161 34.6118 37.7837 34.4832 37.7771 34.352C37.7706 34.2208 37.7899 34.0896 37.8341 33.9659Z" fill="#E39826"/>
<path d="M67.4922 10.3359C67.4141 11.5599 67.3424 12.7708 67.2773 13.9688C67.2122 15.1667 67.1276 16.3776 67.0234 17.6016L58.7422 18.0312V20.4922H65.9297L65.5391 26.5469L58.7031 26.7422L58.7422 38.3047L48.8594 38.5L49.4844 10.3359H67.4922ZM92.2383 23.5391C92.2383 24.724 92.1016 25.8698 91.8281 26.9766C91.5547 28.0703 91.1576 29.099 90.6367 30.0625C90.1289 31.026 89.5039 31.9115 88.7617 32.7188C88.0326 33.513 87.2057 34.1966 86.2812 34.7695C85.3698 35.3424 84.3737 35.7917 83.293 36.1172C82.2122 36.4297 81.0664 36.5859 79.8555 36.5859C78.6836 36.5859 77.5638 36.4362 76.4961 36.1367C75.4414 35.8372 74.4518 35.4206 73.5273 34.8867C72.6029 34.3398 71.763 33.6888 71.0078 32.9336C70.2656 32.1654 69.6276 31.319 69.0938 30.3945C68.5729 29.457 68.1628 28.4544 67.8633 27.3867C67.5768 26.319 67.4336 25.2057 67.4336 24.0469C67.4336 22.9141 67.5703 21.8073 67.8438 20.7266C68.1172 19.6328 68.5078 18.6042 69.0156 17.6406C69.5365 16.6771 70.1615 15.7917 70.8906 14.9844C71.6198 14.1771 72.4336 13.4805 73.332 12.8945C74.2435 12.3086 75.2266 11.8529 76.2812 11.5273C77.3359 11.2018 78.4492 11.0391 79.6211 11.0391C81.5091 11.0391 83.2279 11.332 84.7773 11.918C86.3398 12.5039 87.668 13.3438 88.7617 14.4375C89.8685 15.5182 90.7214 16.8333 91.3203 18.3828C91.9323 19.9193 92.2383 21.638 92.2383 23.5391ZM83.5664 24.0469C83.5664 23.487 83.4818 22.9466 83.3125 22.4258C83.1562 21.8919 82.9219 21.4232 82.6094 21.0195C82.2969 20.6029 81.9062 20.2708 81.4375 20.0234C80.9818 19.763 80.4544 19.6328 79.8555 19.6328C79.2435 19.6328 78.6966 19.7435 78.2148 19.9648C77.7331 20.1862 77.3164 20.4922 76.9648 20.8828C76.6263 21.2604 76.3659 21.7096 76.1836 22.2305C76.0013 22.7383 75.9102 23.2786 75.9102 23.8516C75.9102 24.3984 75.9883 24.9453 76.1445 25.4922C76.3008 26.0391 76.5352 26.5339 76.8477 26.9766C77.1602 27.4193 77.5443 27.7773 78 28.0508C78.4688 28.3242 79.0091 28.4609 79.6211 28.4609C80.2331 28.4609 80.7799 28.3438 81.2617 28.1094C81.7565 27.862 82.1732 27.5365 82.5117 27.1328C82.8503 26.7161 83.1107 26.2409 83.293 25.707C83.4753 25.1732 83.5664 24.6198 83.5664 24.0469ZM117.746 23.5391C117.746 24.724 117.609 25.8698 117.336 26.9766C117.062 28.0703 116.665 29.099 116.145 30.0625C115.637 31.026 115.012 31.9115 114.27 32.7188C113.54 33.513 112.714 34.1966 111.789 34.7695C110.878 35.3424 109.882 35.7917 108.801 36.1172C107.72 36.4297 106.574 36.5859 105.363 36.5859C104.191 36.5859 103.072 36.4362 102.004 36.1367C100.949 35.8372 99.9596 35.4206 99.0352 34.8867C98.1107 34.3398 97.2708 33.6888 96.5156 32.9336C95.7734 32.1654 95.1354 31.319 94.6016 30.3945C94.0807 29.457 93.6706 28.4544 93.3711 27.3867C93.0846 26.319 92.9414 25.2057 92.9414 24.0469C92.9414 22.9141 93.0781 21.8073 93.3516 20.7266C93.625 19.6328 94.0156 18.6042 94.5234 17.6406C95.0443 16.6771 95.6693 15.7917 96.3984 14.9844C97.1276 14.1771 97.9414 13.4805 98.8398 12.8945C99.7513 12.3086 100.734 11.8529 101.789 11.5273C102.844 11.2018 103.957 11.0391 105.129 11.0391C107.017 11.0391 108.736 11.332 110.285 11.918C111.848 12.5039 113.176 13.3438 114.27 14.4375C115.376 15.5182 116.229 16.8333 116.828 18.3828C117.44 19.9193 117.746 21.638 117.746 23.5391ZM109.074 24.0469C109.074 23.487 108.99 22.9466 108.82 22.4258C108.664 21.8919 108.43 21.4232 108.117 21.0195C107.805 20.6029 107.414 20.2708 106.945 20.0234C106.49 19.763 105.962 19.6328 105.363 19.6328C104.751 19.6328 104.204 19.7435 103.723 19.9648C103.241 20.1862 102.824 20.4922 102.473 20.8828C102.134 21.2604 101.874 21.7096 101.691 22.2305C101.509 22.7383 101.418 23.2786 101.418 23.8516C101.418 24.3984 101.496 24.9453 101.652 25.4922C101.809 26.0391 102.043 26.5339 102.355 26.9766C102.668 27.4193 103.052 27.7773 103.508 28.0508C103.977 28.3242 104.517 28.4609 105.129 28.4609C105.741 28.4609 106.288 28.3438 106.77 28.1094C107.264 27.862 107.681 27.5365 108.02 27.1328C108.358 26.7161 108.618 26.2409 108.801 25.707C108.983 25.1732 109.074 24.6198 109.074 24.0469ZM141.242 22.9922C141.242 24.8151 141.008 26.4492 140.539 27.8945C140.07 29.3398 139.413 30.6224 138.566 31.7422C137.733 32.849 136.737 33.793 135.578 34.5742C134.419 35.3555 133.15 36 131.77 36.5078C130.389 37.0026 128.918 37.3672 127.355 37.6016C125.806 37.8359 124.211 37.9531 122.57 37.9531C121.958 37.9531 121.359 37.9401 120.773 37.9141C120.188 37.875 119.589 37.8229 118.977 37.7578L119.523 12.3281C120.956 11.8724 122.427 11.5534 123.938 11.3711C125.461 11.1758 126.971 11.0781 128.469 11.0781C130.331 11.0781 132.043 11.3385 133.605 11.8594C135.168 12.3802 136.516 13.1484 137.648 14.1641C138.781 15.1667 139.66 16.4102 140.285 17.8945C140.923 19.3659 141.242 21.0651 141.242 22.9922ZM127.961 30.4922C128.742 30.375 129.452 30.1406 130.09 29.7891C130.741 29.4245 131.301 28.9818 131.77 28.4609C132.238 27.9271 132.596 27.3281 132.844 26.6641C133.104 25.987 133.234 25.2708 133.234 24.5156C133.234 23.7734 133.156 23.0833 133 22.4453C132.844 21.7943 132.59 21.2344 132.238 20.7656C131.887 20.2839 131.424 19.9062 130.852 19.6328C130.279 19.3464 129.576 19.1901 128.742 19.1641L127.961 30.4922Z" fill="#E39826"/>
<path d="M160.969 10.3359C160.891 11.5599 160.819 12.7708 160.754 13.9688C160.689 15.1667 160.604 16.3776 160.5 17.6016L152.219 18.0312V20.4922H159.406L159.016 26.5469L152.18 26.7422L152.219 38.3047L142.336 38.5L142.961 10.3359H160.969ZM184.016 36.8203L174.328 38.0703L173.156 33.6562H168.703L167.727 38.0703L157.766 37.0938L165.539 11.0781L176.398 10.5312L184.016 36.8203ZM172.453 27.6797L170.969 20.8828L169.523 27.6797H172.453ZM207.316 19.6719C207.316 20.6875 207.225 21.612 207.043 22.4453C206.874 23.2656 206.6 24.0208 206.223 24.7109C205.845 25.401 205.357 26.0391 204.758 26.625C204.159 27.2109 203.436 27.7708 202.59 28.3047L207.238 36.5859L198.449 38.3047L195.441 29.9844L193.02 30.0625L192.668 38.1875H184.27C184.335 35.2188 184.393 32.263 184.445 29.3203C184.51 26.3776 184.582 23.4219 184.66 20.4531C184.686 18.9557 184.712 17.4714 184.738 16C184.764 14.5286 184.816 13.0443 184.895 11.5469C185.806 11.2083 186.704 10.9284 187.59 10.707C188.475 10.4857 189.361 10.3164 190.246 10.1992C191.145 10.069 192.049 9.98438 192.961 9.94531C193.885 9.89323 194.829 9.86719 195.793 9.86719C197.277 9.86719 198.71 10.0755 200.09 10.4922C201.483 10.8958 202.714 11.5078 203.781 12.3281C204.849 13.1484 205.702 14.1706 206.34 15.3945C206.991 16.6185 207.316 18.0443 207.316 19.6719ZM198.566 20.2969C198.566 19.75 198.488 19.2487 198.332 18.793C198.189 18.3372 197.967 17.9466 197.668 17.6211C197.382 17.2826 197.017 17.0221 196.574 16.8398C196.145 16.6445 195.637 16.5469 195.051 16.5469C194.79 16.5469 194.536 16.5664 194.289 16.6055C194.042 16.6315 193.801 16.6771 193.566 16.7422L193.254 24.0078H193.723C194.283 24.0078 194.849 23.9362 195.422 23.793C196.008 23.6497 196.529 23.4284 196.984 23.1289C197.453 22.8294 197.831 22.4453 198.117 21.9766C198.417 21.5078 198.566 20.9479 198.566 20.2969ZM242.824 25.2578C242.824 27.1198 242.766 28.9753 242.648 30.8242C242.531 32.6732 242.395 34.5286 242.238 36.3906L232.199 36.8594C232.499 34.5938 232.766 32.3281 233 30.0625C233.247 27.7839 233.371 25.5052 233.371 23.2266C233.371 23.0833 233.365 22.8359 233.352 22.4844C233.339 22.1198 233.312 21.7096 233.273 21.2539C233.247 20.7982 233.202 20.3294 233.137 19.8477C233.085 19.3529 233.007 18.9036 232.902 18.5C232.811 18.0833 232.694 17.7448 232.551 17.4844C232.408 17.224 232.238 17.0938 232.043 17.0938C231.587 17.0938 231.229 17.2695 230.969 17.6211C230.708 17.9596 230.513 18.3698 230.383 18.8516C230.266 19.3333 230.194 19.8281 230.168 20.3359C230.142 20.8307 230.129 21.2344 230.129 21.5469C230.129 22.0938 230.142 22.6406 230.168 23.1875C230.194 23.7344 230.207 24.2943 230.207 24.8672C230.207 26.8854 230.155 28.8971 230.051 30.9023C229.96 32.9076 229.842 34.9193 229.699 36.9375L220.441 37.2891C220.741 35.0234 221.001 32.7643 221.223 30.5117C221.457 28.2461 221.574 25.974 221.574 23.6953C221.574 23.5521 221.568 23.2917 221.555 22.9141C221.542 22.5365 221.516 22.1133 221.477 21.6445C221.451 21.1758 221.405 20.6875 221.34 20.1797C221.275 19.6719 221.19 19.2096 221.086 18.793C220.995 18.3633 220.878 18.0117 220.734 17.7383C220.591 17.4648 220.415 17.3281 220.207 17.3281C219.882 17.3281 219.608 17.4583 219.387 17.7188C219.165 17.9661 218.983 18.2917 218.84 18.6953C218.71 19.099 218.605 19.5482 218.527 20.043C218.462 20.5247 218.41 21 218.371 21.4688C218.345 21.9375 218.326 22.3737 218.312 22.7773C218.312 23.168 218.306 23.4609 218.293 23.6562L217.863 37.9141H208.02C208.228 35.7135 208.436 33.5065 208.645 31.293C208.866 29.0794 209.055 26.8724 209.211 24.6719C209.38 22.4583 209.517 20.2448 209.621 18.0312C209.725 15.8177 209.777 13.6042 209.777 11.3906L219.074 11L219.035 13.2656C219.322 12.901 219.647 12.5365 220.012 12.1719C220.376 11.7943 220.76 11.4622 221.164 11.1758C221.581 10.8763 222.017 10.6354 222.473 10.4531C222.941 10.2708 223.423 10.1797 223.918 10.1797C224.556 10.1797 225.129 10.2318 225.637 10.3359C226.145 10.4271 226.6 10.5898 227.004 10.8242C227.421 11.0586 227.785 11.3841 228.098 11.8008C228.41 12.2044 228.684 12.7188 228.918 13.3438C229.335 12.888 229.751 12.4648 230.168 12.0742C230.598 11.6836 231.047 11.3516 231.516 11.0781C231.984 10.7917 232.492 10.5703 233.039 10.4141C233.586 10.2578 234.191 10.1797 234.855 10.1797C236.118 10.1797 237.193 10.4271 238.078 10.9219C238.964 11.4036 239.699 12.0482 240.285 12.8555C240.884 13.6628 241.346 14.5872 241.672 15.6289C242.01 16.6706 242.264 17.7513 242.434 18.8711C242.603 19.9909 242.707 21.1042 242.746 22.2109C242.798 23.3177 242.824 24.3333 242.824 25.2578Z" fill="#6BB252"/>
<path d="M10 83L15.19 80L10 77V83ZM21.56 75.17C21.69 75.64 21.78 76.27 21.84 77.07C21.91 77.87 21.94 78.56 21.94 79.16L22 80C22 82.19 21.84 83.8 21.56 84.83C21.31 85.73 20.73 86.31 19.83 86.56C19.36 86.69 18.5 86.78 17.18 86.84C15.88 86.91 14.69 86.94 13.59 86.94L12 87C7.81 87 5.2 86.84 4.17 86.56C3.27 86.31 2.69 85.73 2.44 84.83C2.31 84.36 2.22 83.73 2.16 82.93C2.09 82.13 2.06 81.44 2.06 80.84L2 80C2 77.81 2.16 76.2 2.44 75.17C2.69 74.27 3.27 73.69 4.17 73.44C4.64 73.31 5.5 73.22 6.82 73.16C8.12 73.09 9.31 73.06 10.41 73.06L12 73C16.19 73 18.8 73.16 19.83 73.44C20.73 73.69 21.31 74.27 21.56 75.17Z" fill="#A1A1A1"/>
<path d="M53.04 89.54C54 89.83 54.97 90 56 90C58.6522 90 61.1957 88.9464 63.0711 87.0711C64.9464 85.1957 66 82.6522 66 80C66 78.6868 65.7413 77.3864 65.2388 76.1732C64.7362 74.9599 63.9997 73.8575 63.0711 72.9289C62.1425 72.0003 61.0401 71.2638 59.8268 70.7612C58.6136 70.2587 57.3132 70 56 70C54.6868 70 53.3864 70.2587 52.1732 70.7612C50.9599 71.2638 49.8575 72.0003 48.9289 72.9289C47.0536 74.8043 46 77.3478 46 80C46 84.25 48.67 87.9 52.44 89.34C52.35 88.56 52.26 87.27 52.44 86.38L53.59 81.44C53.59 81.44 53.3 80.86 53.3 79.94C53.3 78.56 54.16 77.53 55.14 77.53C56 77.53 56.4 78.16 56.4 78.97C56.4 79.83 55.83 81.06 55.54 82.24C55.37 83.22 56.06 84.08 57.06 84.08C58.84 84.08 60.22 82.18 60.22 79.5C60.22 77.1 58.5 75.46 56.03 75.46C53.21 75.46 51.55 77.56 51.55 79.77C51.55 80.63 51.83 81.5 52.29 82.07C52.38 82.13 52.38 82.21 52.35 82.36L52.06 83.45C52.06 83.62 51.95 83.68 51.78 83.56C50.5 83 49.76 81.18 49.76 79.71C49.76 76.55 52 73.68 56.32 73.68C59.76 73.68 62.44 76.15 62.44 79.43C62.44 82.87 60.31 85.63 57.26 85.63C56.29 85.63 55.34 85.11 55 84.5L54.33 86.87C54.1 87.73 53.47 88.88 53.04 89.57V89.54Z" fill="#A1A1A1"/>
<path d="M95.8 70H104.2C107.4 70 110 72.6 110 75.8V84.2C110 85.7383 109.389 87.2135 108.301 88.3012C107.214 89.3889 105.738 90 104.2 90H95.8C92.6 90 90 87.4 90 84.2V75.8C90 74.2617 90.6111 72.7865 91.6988 71.6988C92.7865 70.6111 94.2617 70 95.8 70ZM95.6 72C94.6452 72 93.7295 72.3793 93.0544 73.0544C92.3793 73.7295 92 74.6452 92 75.6V84.4C92 86.39 93.61 88 95.6 88H104.4C105.355 88 106.27 87.6207 106.946 86.9456C107.621 86.2705 108 85.3548 108 84.4V75.6C108 73.61 106.39 72 104.4 72H95.6ZM105.25 73.5C105.582 73.5 105.899 73.6317 106.134 73.8661C106.368 74.1005 106.5 74.4185 106.5 74.75C106.5 75.0815 106.368 75.3995 106.134 75.6339C105.899 75.8683 105.582 76 105.25 76C104.918 76 104.601 75.8683 104.366 75.6339C104.132 75.3995 104 75.0815 104 74.75C104 74.4185 104.132 74.1005 104.366 73.8661C104.601 73.6317 104.918 73.5 105.25 73.5ZM100 75C101.326 75 102.598 75.5268 103.536 76.4645C104.473 77.4021 105 78.6739 105 80C105 81.3261 104.473 82.5979 103.536 83.5355C102.598 84.4732 101.326 85 100 85C98.6739 85 97.4021 84.4732 96.4645 83.5355C95.5268 82.5979 95 81.3261 95 80C95 78.6739 95.5268 77.4021 96.4645 76.4645C97.4021 75.5268 98.6739 75 100 75ZM100 77C99.2044 77 98.4413 77.3161 97.8787 77.8787C97.3161 78.4413 97 79.2044 97 80C97 80.7956 97.3161 81.5587 97.8787 82.1213C98.4413 82.6839 99.2044 83 100 83C100.796 83 101.559 82.6839 102.121 82.1213C102.684 81.5587 103 80.7956 103 80C103 79.2044 102.684 78.4413 102.121 77.8787C101.559 77.3161 100.796 77 100 77Z" fill="#A1A1A1"/>
<path d="M144 70C138.36 70 134 74.13 134 79.7C134 82.61 135.19 85.14 137.14 86.87C137.3 87 137.4 87.22 137.41 87.44L137.46 89.22C137.5 89.79 138.07 90.16 138.59 89.93L140.57 89.06C140.74 89 140.93 88.97 141.1 89C142 89.27 143 89.4 144 89.4C149.64 89.4 154 85.27 154 79.7C154 74.13 149.64 70 144 70ZM150 77.46L147.07 82.13C146.6 82.86 145.6 83.05 144.9 82.5L142.56 80.77C142.456 80.6921 142.33 80.65 142.2 80.65C142.07 80.65 141.944 80.6921 141.84 80.77L138.68 83.17C138.26 83.5 137.71 83 138 82.54L140.93 77.87C141.4 77.14 142.4 76.95 143.1 77.47L145.44 79.23C145.544 79.3079 145.67 79.35 145.8 79.35C145.93 79.35 146.056 79.3079 146.16 79.23L149.32 76.83C149.74 76.5 150.29 77 150 77.46Z" fill="#A1A1A1"/>
<path d="M188 70.04C182.5 70.04 178 74.53 178 80.06C178 85.06 181.66 89.21 186.44 89.96V82.96H183.9V80.06H186.44V77.85C186.44 75.34 187.93 73.96 190.22 73.96C191.31 73.96 192.45 74.15 192.45 74.15V76.62H191.19C189.95 76.62 189.56 77.39 189.56 78.18V80.06H192.34L191.89 82.96H189.56V89.96C191.916 89.5879 194.062 88.3856 195.61 86.5701C197.158 84.7546 198.005 82.4457 198 80.06C198 74.53 193.5 70.04 188 70.04Z" fill="#A1A1A1"/>
</svg>
