<svg width="110" height="182" viewBox="0 0 110 182" fill="none" xmlns="http://www.w3.org/2000/svg">
<path d="M10.7227 21L9.32617 17.0352H3.86719L2.4707 21H0L5.3125 6.66406H7.91016L13.2129 21H10.7227ZM8.7207 15.0234L7.36328 11.1172C7.3112 10.9479 7.23633 10.7103 7.13867 10.4043C7.04102 10.0918 6.94336 9.77604 6.8457 9.45703C6.74805 9.13151 6.66667 8.85807 6.60156 8.63672C6.53646 8.90365 6.45508 9.20312 6.35742 9.53516C6.26628 9.86068 6.17513 10.1667 6.08398 10.4531C5.99935 10.7396 5.93424 10.9609 5.88867 11.1172L4.52148 15.0234H8.7207ZM17.1582 5.80469V9.4668C17.1582 9.88997 17.1452 10.3066 17.1191 10.7168C17.0996 11.1204 17.0801 11.4362 17.0605 11.6641H17.1582C17.4512 11.1953 17.8581 10.8014 18.3789 10.4824C18.9062 10.1569 19.5801 9.99414 20.4004 9.99414C21.6829 9.99414 22.7148 10.4661 23.4961 11.4102C24.2773 12.3477 24.668 13.7376 24.668 15.5801C24.668 16.804 24.4889 17.8327 24.1309 18.666C23.7728 19.4993 23.2682 20.1309 22.6172 20.5605C21.9727 20.9837 21.2142 21.1953 20.3418 21.1953C19.5215 21.1953 18.8574 21.0456 18.3496 20.7461C17.8483 20.4401 17.4544 20.0853 17.168 19.6816H17.002L16.582 21H14.8633V5.80469H17.1582ZM19.7949 11.8594C19.1439 11.8594 18.6263 11.9896 18.2422 12.25C17.8646 12.5104 17.5911 12.901 17.4219 13.4219C17.2526 13.9362 17.1647 14.5905 17.1582 15.3848V15.5898C17.1582 16.7943 17.347 17.7155 17.7246 18.3535C18.1087 18.9915 18.8053 19.3105 19.8145 19.3105C20.6152 19.3105 21.2305 18.9883 21.6602 18.3438C22.0898 17.6927 22.3047 16.7617 22.3047 15.5508C22.3047 14.3268 22.0898 13.4056 21.6602 12.7871C21.237 12.1686 20.6152 11.8594 19.7949 11.8594ZM36.8945 15.5703C36.8945 16.4688 36.7773 17.2663 36.543 17.9629C36.3086 18.6595 35.9668 19.2487 35.5176 19.7305C35.0684 20.2057 34.528 20.5703 33.8965 20.8242C33.265 21.0716 32.5521 21.1953 31.7578 21.1953C31.0156 21.1953 30.3353 21.0716 29.7168 20.8242C29.0983 20.5703 28.5612 20.2057 28.1055 19.7305C27.6562 19.2487 27.3079 18.6595 27.0605 17.9629C26.8132 17.2663 26.6895 16.4688 26.6895 15.5703C26.6895 14.3789 26.8945 13.3698 27.3047 12.543C27.7214 11.7096 28.3138 11.0749 29.082 10.6387C29.8503 10.2025 30.765 9.98438 31.8262 9.98438C32.8223 9.98438 33.7012 10.2025 34.4629 10.6387C35.2246 11.0749 35.8203 11.7096 36.25 12.543C36.6797 13.3763 36.8945 14.3854 36.8945 15.5703ZM29.0527 15.5703C29.0527 16.3581 29.1471 17.0319 29.3359 17.5918C29.5312 18.1517 29.8307 18.5814 30.2344 18.8809C30.638 19.1738 31.1589 19.3203 31.7969 19.3203C32.4349 19.3203 32.9557 19.1738 33.3594 18.8809C33.763 18.5814 34.0592 18.1517 34.248 17.5918C34.4368 17.0319 34.5312 16.3581 34.5312 15.5703C34.5312 14.7826 34.4368 14.1152 34.248 13.5684C34.0592 13.015 33.763 12.5951 33.3594 12.3086C32.9557 12.0156 32.4316 11.8691 31.7871 11.8691C30.8366 11.8691 30.1432 12.1882 29.707 12.8262C29.2708 13.4642 29.0527 14.3789 29.0527 15.5703ZM48.9551 10.1895V21H47.1484L46.8359 19.5449H46.709C46.4811 19.916 46.1914 20.2253 45.8398 20.4727C45.4883 20.7135 45.0977 20.8926 44.668 21.0098C44.2383 21.1335 43.7858 21.1953 43.3105 21.1953C42.4967 21.1953 41.8001 21.0586 41.2207 20.7852C40.6478 20.5052 40.2083 20.0755 39.9023 19.4961C39.5964 18.9167 39.4434 18.168 39.4434 17.25V10.1895H41.748V16.8203C41.748 17.6602 41.9173 18.2884 42.2559 18.7051C42.6009 19.1217 43.1348 19.3301 43.8574 19.3301C44.554 19.3301 45.1074 19.1868 45.5176 18.9004C45.9277 18.6139 46.2174 18.1908 46.3867 17.6309C46.5625 17.071 46.6504 16.3841 46.6504 15.5703V10.1895H48.9551ZM56.2695 19.3398C56.569 19.3398 56.8652 19.3138 57.1582 19.2617C57.4512 19.2031 57.7181 19.1348 57.959 19.0566V20.7949C57.7051 20.9056 57.3763 21 56.9727 21.0781C56.569 21.1562 56.1491 21.1953 55.7129 21.1953C55.1009 21.1953 54.5508 21.0944 54.0625 20.8926C53.5742 20.6842 53.1868 20.3294 52.9004 19.8281C52.6139 19.3268 52.4707 18.6335 52.4707 17.748V11.9375H50.9961V10.9121L52.5781 10.1016L53.3301 7.78711H54.7754V10.1895H57.8711V11.9375H54.7754V17.7188C54.7754 18.2656 54.9121 18.6725 55.1855 18.9395C55.459 19.2064 55.8203 19.3398 56.2695 19.3398Z" fill="white"/>
<path d="M10.2422 69H8.91406V63.625H2.89844V69H1.57031V57.5781H2.89844V62.4375H8.91406V57.5781H10.2422V69ZM20.8981 64.7109C20.8981 66.1068 20.5466 67.1979 19.8434 67.9844C19.1403 68.7656 18.169 69.1562 16.9294 69.1562C16.1637 69.1562 15.4841 68.9766 14.8903 68.6172C14.2966 68.2578 13.8382 67.7422 13.5153 67.0703C13.1924 66.3984 13.0309 65.612 13.0309 64.7109C13.0309 63.3151 13.3799 62.2292 14.0778 61.4531C14.7757 60.6719 15.7445 60.2812 16.9841 60.2812C18.182 60.2812 19.1325 60.6797 19.8356 61.4766C20.544 62.2734 20.8981 63.3516 20.8981 64.7109ZM14.3747 64.7109C14.3747 65.8047 14.5934 66.638 15.0309 67.2109C15.4684 67.7839 16.1117 68.0703 16.9606 68.0703C17.8096 68.0703 18.4528 67.7865 18.8903 67.2188C19.333 66.6458 19.5544 65.8099 19.5544 64.7109C19.5544 63.6224 19.333 62.7969 18.8903 62.2344C18.4528 61.6667 17.8044 61.3828 16.945 61.3828C16.096 61.3828 15.4554 61.6615 15.0231 62.2188C14.5908 62.776 14.3747 63.6068 14.3747 64.7109ZM30.4916 69L28.9212 63.9766C28.8223 63.6693 28.6374 62.9714 28.3666 61.8828H28.3041C28.0957 62.7943 27.9134 63.4974 27.7572 63.9922L26.14 69H24.64L22.3041 60.4375H23.6634C24.2155 62.5885 24.6348 64.2266 24.9212 65.3516C25.2129 66.4766 25.3796 67.2344 25.4212 67.625H25.4837C25.541 67.3281 25.6322 66.9453 25.7572 66.4766C25.8874 66.0026 25.9994 65.6276 26.0931 65.3516L27.6634 60.4375H29.0697L30.6009 65.3516C30.8926 66.2474 31.0905 67 31.1947 67.6094H31.2572C31.278 67.4219 31.3327 67.1328 31.4212 66.7422C31.515 66.3516 32.0593 64.25 33.0541 60.4375H34.3978L32.0306 69H30.4916ZM40.9441 69V57.5781H42.2722V69H40.9441ZM48.3031 68.0859C48.5323 68.0859 48.7536 68.0703 48.9672 68.0391C49.1807 68.0026 49.35 67.9661 49.475 67.9297V68.9219C49.3344 68.9896 49.126 69.0443 48.85 69.0859C48.5792 69.1328 48.3344 69.1562 48.1156 69.1562C46.4594 69.1562 45.6312 68.2839 45.6312 66.5391V61.4453H44.4047V60.8203L45.6312 60.2812L46.1781 58.4531H46.9281V60.4375H49.4125V61.4453H46.9281V66.4844C46.9281 67 47.0505 67.3958 47.2953 67.6719C47.5401 67.9479 47.876 68.0859 48.3031 68.0859ZM66.1541 69H64.8416L62.5369 61.3516C62.4275 61.013 62.3051 60.5859 62.1697 60.0703C62.0343 59.5547 61.964 59.2448 61.9588 59.1406C61.8442 59.8281 61.6619 60.5807 61.4119 61.3984L59.1775 69H57.865L54.8259 57.5781H56.2322L58.0369 64.6328C58.2869 65.6224 58.4692 66.5182 58.5838 67.3203C58.7244 66.3672 58.9327 65.4349 59.2088 64.5234L61.2556 57.5781H62.6619L64.8103 64.5859C65.0603 65.3932 65.2713 66.3047 65.4431 67.3203C65.5421 66.5807 65.7296 65.6797 66.0056 64.6172L67.8025 57.5781H69.2088L66.1541 69ZM78.5131 64.7109C78.5131 66.1068 78.1616 67.1979 77.4584 67.9844C76.7553 68.7656 75.784 69.1562 74.5444 69.1562C73.7787 69.1562 73.0991 68.9766 72.5053 68.6172C71.9116 68.2578 71.4532 67.7422 71.1303 67.0703C70.8074 66.3984 70.6459 65.612 70.6459 64.7109C70.6459 63.3151 70.9949 62.2292 71.6928 61.4531C72.3907 60.6719 73.3595 60.2812 74.5991 60.2812C75.797 60.2812 76.7475 60.6797 77.4506 61.4766C78.159 62.2734 78.5131 63.3516 78.5131 64.7109ZM71.9897 64.7109C71.9897 65.8047 72.2084 66.638 72.6459 67.2109C73.0834 67.7839 73.7267 68.0703 74.5756 68.0703C75.4246 68.0703 76.0678 67.7865 76.5053 67.2188C76.948 66.6458 77.1694 65.8099 77.1694 64.7109C77.1694 63.6224 76.948 62.7969 76.5053 62.2344C76.0678 61.6667 75.4194 61.3828 74.56 61.3828C73.711 61.3828 73.0704 61.6615 72.6381 62.2188C72.2058 62.776 71.9897 63.6068 71.9897 64.7109ZM85.0206 60.2812C85.4008 60.2812 85.742 60.3125 86.0441 60.375L85.8644 61.5781C85.5102 61.5 85.1977 61.4609 84.9269 61.4609C84.2342 61.4609 83.6404 61.7422 83.1456 62.3047C82.656 62.8672 82.4112 63.5677 82.4112 64.4062V69H81.1144V60.4375H82.1847L82.3331 62.0234H82.3956C82.7133 61.4661 83.0961 61.0365 83.5441 60.7344C83.992 60.4323 84.4842 60.2812 85.0206 60.2812ZM89.2469 64.6172C89.4708 64.2995 89.812 63.8828 90.2703 63.3672L93.0359 60.4375H94.575L91.1062 64.0859L94.8172 69H93.2469L90.2234 64.9531L89.2469 65.7969V69H87.9656V56.8438H89.2469V63.2891C89.2469 63.5755 89.226 64.0182 89.1844 64.6172H89.2469ZM11.4844 97.2734C11.4844 99.1016 11.0208 100.539 10.0938 101.586C9.17188 102.633 7.88802 103.156 6.24219 103.156C4.5599 103.156 3.26042 102.643 2.34375 101.617C1.43229 100.586 0.976562 99.1328 0.976562 97.2578C0.976562 95.3984 1.4349 93.9583 2.35156 92.9375C3.26823 91.9115 4.57031 91.3984 6.25781 91.3984C7.89844 91.3984 9.17969 91.9193 10.1016 92.9609C11.0234 94.0026 11.4844 95.4401 11.4844 97.2734ZM2.38281 97.2734C2.38281 98.8203 2.71094 99.9948 3.36719 100.797C4.02865 101.594 4.98698 101.992 6.24219 101.992C7.50781 101.992 8.46354 101.594 9.10938 100.797C9.75521 100 10.0781 98.8255 10.0781 97.2734C10.0781 95.737 9.75521 94.5729 9.10938 93.7812C8.46875 92.9844 7.51823 92.5859 6.25781 92.5859C4.99219 92.5859 4.02865 92.987 3.36719 93.7891C2.71094 94.5859 2.38281 95.7474 2.38281 97.2734ZM15.3825 94.4375V99.9922C15.3825 100.69 15.5414 101.211 15.8591 101.555C16.1768 101.898 16.6742 102.07 17.3512 102.07C18.2471 102.07 18.9007 101.826 19.3122 101.336C19.7289 100.846 19.9372 100.047 19.9372 98.9375V94.4375H21.2341V103H20.1637L19.9762 101.852H19.9059C19.6403 102.273 19.2705 102.596 18.7966 102.82C18.3278 103.044 17.7914 103.156 17.1872 103.156C16.1455 103.156 15.3643 102.909 14.8434 102.414C14.3278 101.919 14.07 101.128 14.07 100.039V94.4375H15.3825ZM28.2181 94.2812C28.5983 94.2812 28.9395 94.3125 29.2416 94.375L29.0619 95.5781C28.7077 95.5 28.3952 95.4609 28.1244 95.4609C27.4317 95.4609 26.8379 95.7422 26.3431 96.3047C25.8535 96.8672 25.6087 97.5677 25.6087 98.4062V103H24.3119V94.4375H25.3822L25.5306 96.0234H25.5931C25.9108 95.4661 26.2936 95.0365 26.7416 94.7344C27.1895 94.4323 27.6817 94.2812 28.2181 94.2812ZM43.0769 94.9062C43.0769 96.0625 42.681 96.9531 41.8894 97.5781C41.1029 98.1979 39.9753 98.5078 38.5066 98.5078H37.1628V103H35.8347V91.5781H38.7956C41.6498 91.5781 43.0769 92.6875 43.0769 94.9062ZM37.1628 97.3672H38.3581C39.5352 97.3672 40.3868 97.1771 40.9128 96.7969C41.4389 96.4167 41.7019 95.8073 41.7019 94.9688C41.7019 94.2135 41.4545 93.651 40.9597 93.2812C40.4649 92.9115 39.6941 92.7266 38.6472 92.7266H37.1628V97.3672ZM50.8656 103L50.6078 101.781H50.5453C50.1182 102.318 49.6911 102.682 49.2641 102.875C48.8422 103.062 48.3135 103.156 47.6781 103.156C46.8292 103.156 46.1625 102.938 45.6781 102.5C45.199 102.062 44.9594 101.44 44.9594 100.633C44.9594 98.9036 46.3422 97.9974 49.1078 97.9141L50.5609 97.8672V97.3359C50.5609 96.6641 50.4151 96.1693 50.1234 95.8516C49.837 95.5286 49.376 95.3672 48.7406 95.3672C48.0271 95.3672 47.2198 95.5859 46.3187 96.0234L45.9203 95.0312C46.3422 94.8021 46.8031 94.6224 47.3031 94.4922C47.8083 94.362 48.3135 94.2969 48.8187 94.2969C49.8396 94.2969 50.5948 94.5234 51.0844 94.9766C51.5792 95.4297 51.8266 96.1562 51.8266 97.1562V103H50.8656ZM47.9359 102.086C48.7432 102.086 49.376 101.865 49.8344 101.422C50.2979 100.979 50.5297 100.359 50.5297 99.5625V98.7891L49.2328 98.8438C48.2016 98.8802 47.4568 99.0417 46.9984 99.3281C46.5453 99.6094 46.3187 100.049 46.3187 100.648C46.3187 101.117 46.4594 101.474 46.7406 101.719C47.0271 101.964 47.4255 102.086 47.9359 102.086ZM58.2481 103.156C57.0085 103.156 56.0476 102.776 55.3653 102.016C54.6882 101.25 54.3497 100.169 54.3497 98.7734C54.3497 97.3411 54.6934 96.2344 55.3809 95.4531C56.0736 94.6719 57.058 94.2812 58.3341 94.2812C58.7455 94.2812 59.157 94.3255 59.5684 94.4141C59.9799 94.5026 60.3028 94.6068 60.5372 94.7266L60.1387 95.8281C59.8523 95.7135 59.5398 95.6198 59.2012 95.5469C58.8627 95.4688 58.5632 95.4297 58.3028 95.4297C56.5632 95.4297 55.6934 96.5391 55.6934 98.7578C55.6934 99.8099 55.9044 100.617 56.3262 101.18C56.7533 101.742 57.3835 102.023 58.2169 102.023C58.9304 102.023 59.6622 101.87 60.4122 101.562V102.711C59.8393 103.008 59.1179 103.156 58.2481 103.156ZM64.0525 98.6172C64.2765 98.2995 64.6176 97.8828 65.0759 97.3672L67.8416 94.4375H69.3806L65.9119 98.0859L69.6228 103H68.0525L65.0291 98.9531L64.0525 99.7969V103H62.7713V90.8438H64.0525V97.2891C64.0525 97.5755 64.0317 98.0182 63.99 98.6172H64.0525ZM76.7631 103L76.5053 101.781H76.4428C76.0157 102.318 75.5886 102.682 75.1616 102.875C74.7397 103.062 74.211 103.156 73.5756 103.156C72.7267 103.156 72.06 102.938 71.5756 102.5C71.0965 102.062 70.8569 101.44 70.8569 100.633C70.8569 98.9036 72.2397 97.9974 75.0053 97.9141L76.4584 97.8672V97.3359C76.4584 96.6641 76.3126 96.1693 76.0209 95.8516C75.7345 95.5286 75.2735 95.3672 74.6381 95.3672C73.9246 95.3672 73.1173 95.5859 72.2162 96.0234L71.8178 95.0312C72.2397 94.8021 72.7006 94.6224 73.2006 94.4922C73.7058 94.362 74.211 94.2969 74.7162 94.2969C75.7371 94.2969 76.4923 94.5234 76.9819 94.9766C77.4767 95.4297 77.7241 96.1562 77.7241 97.1562V103H76.7631ZM73.8334 102.086C74.6407 102.086 75.2735 101.865 75.7319 101.422C76.1954 100.979 76.4272 100.359 76.4272 99.5625V98.7891L75.1303 98.8438C74.0991 98.8802 73.3543 99.0417 72.8959 99.3281C72.4428 99.6094 72.2162 100.049 72.2162 100.648C72.2162 101.117 72.3569 101.474 72.6381 101.719C72.9246 101.964 73.323 102.086 73.8334 102.086ZM87.7316 94.4375V95.2578L86.1456 95.4453C86.2915 95.6276 86.4217 95.8672 86.5362 96.1641C86.6508 96.4557 86.7081 96.7865 86.7081 97.1562C86.7081 97.9948 86.4217 98.6641 85.8487 99.1641C85.2758 99.6641 84.4894 99.9141 83.4894 99.9141C83.2342 99.9141 82.9946 99.8932 82.7706 99.8516C82.2185 100.143 81.9425 100.51 81.9425 100.953C81.9425 101.188 82.0389 101.362 82.2316 101.477C82.4243 101.586 82.755 101.641 83.2237 101.641H84.7394C85.6665 101.641 86.3774 101.836 86.8722 102.227C87.3722 102.617 87.6222 103.185 87.6222 103.93C87.6222 104.878 87.242 105.599 86.4816 106.094C85.7211 106.594 84.6118 106.844 83.1534 106.844C82.0336 106.844 81.1691 106.635 80.5597 106.219C79.9555 105.802 79.6534 105.214 79.6534 104.453C79.6534 103.932 79.8201 103.482 80.1534 103.102C80.4868 102.721 80.9555 102.464 81.5597 102.328C81.3409 102.229 81.156 102.076 81.005 101.867C80.8592 101.659 80.7862 101.417 80.7862 101.141C80.7862 100.828 80.8696 100.555 81.0362 100.32C81.2029 100.086 81.4659 99.8594 81.8253 99.6406C81.3826 99.4583 81.0206 99.1484 80.7394 98.7109C80.4633 98.2734 80.3253 97.7734 80.3253 97.2109C80.3253 96.2734 80.6066 95.5521 81.1691 95.0469C81.7316 94.5365 82.5284 94.2812 83.5597 94.2812C84.0076 94.2812 84.4112 94.3333 84.7706 94.4375H87.7316ZM80.9034 104.438C80.9034 104.901 81.0987 105.253 81.4894 105.492C81.88 105.732 82.4399 105.852 83.1691 105.852C84.2576 105.852 85.0623 105.688 85.5831 105.359C86.1092 105.036 86.3722 104.596 86.3722 104.039C86.3722 103.576 86.229 103.253 85.9425 103.07C85.656 102.893 85.117 102.805 84.3253 102.805H82.7706C82.1821 102.805 81.7237 102.945 81.3956 103.227C81.0675 103.508 80.9034 103.911 80.9034 104.438ZM81.6066 97.1797C81.6066 97.7786 81.7758 98.2318 82.1144 98.5391C82.4529 98.8464 82.9243 99 83.5284 99C84.7941 99 85.4269 98.3854 85.4269 97.1562C85.4269 95.8698 84.7862 95.2266 83.505 95.2266C82.8956 95.2266 82.4269 95.3906 82.0987 95.7188C81.7706 96.0469 81.6066 96.5339 81.6066 97.1797ZM93.4266 103.156C92.1609 103.156 91.1609 102.771 90.4266 102C89.6974 101.229 89.3328 100.159 89.3328 98.7891C89.3328 97.4089 89.6714 96.3125 90.3484 95.5C91.0307 94.6875 91.9448 94.2812 93.0906 94.2812C94.1635 94.2812 95.0125 94.6354 95.6375 95.3438C96.2625 96.0469 96.575 96.9766 96.575 98.1328V98.9531H90.6766C90.7026 99.9583 90.9552 100.721 91.4344 101.242C91.9187 101.763 92.5984 102.023 93.4734 102.023C94.3953 102.023 95.3068 101.831 96.2078 101.445V102.602C95.7495 102.799 95.3146 102.94 94.9031 103.023C94.4969 103.112 94.0047 103.156 93.4266 103.156ZM93.075 95.3672C92.3875 95.3672 91.838 95.5911 91.4266 96.0391C91.0203 96.487 90.7807 97.1068 90.7078 97.8984H95.1844C95.1844 97.0807 95.0021 96.4557 94.6375 96.0234C94.2729 95.5859 93.7521 95.3672 93.075 95.3672ZM104.637 100.664C104.637 101.461 104.34 102.076 103.747 102.508C103.153 102.94 102.319 103.156 101.247 103.156C100.111 103.156 99.2257 102.977 98.5903 102.617V101.414C99.0018 101.622 99.4419 101.786 99.9106 101.906C100.385 102.026 100.84 102.086 101.278 102.086C101.955 102.086 102.476 101.979 102.84 101.766C103.205 101.547 103.387 101.216 103.387 100.773C103.387 100.44 103.241 100.156 102.95 99.9219C102.663 99.6823 102.101 99.401 101.262 99.0781C100.465 98.7812 99.8976 98.5234 99.5591 98.3047C99.2257 98.0807 98.9757 97.8281 98.8091 97.5469C98.6476 97.2656 98.5669 96.9297 98.5669 96.5391C98.5669 95.8411 98.8507 95.2917 99.4184 94.8906C99.9861 94.4844 100.765 94.2812 101.754 94.2812C102.676 94.2812 103.577 94.4688 104.457 94.8438L103.997 95.8984C103.137 95.5443 102.359 95.3672 101.661 95.3672C101.046 95.3672 100.582 95.4635 100.27 95.6562C99.9575 95.849 99.8012 96.1146 99.8012 96.4531C99.8012 96.6823 99.8585 96.8776 99.9731 97.0391C100.093 97.2005 100.283 97.3542 100.543 97.5C100.804 97.6458 101.304 97.8568 102.043 98.1328C103.059 98.5026 103.744 98.875 104.098 99.25C104.457 99.625 104.637 100.096 104.637 100.664ZM8.8125 128.906C8.8125 130.062 8.41667 130.953 7.625 131.578C6.83854 132.198 5.71094 132.508 4.24219 132.508H2.89844V137H1.57031V125.578H4.53125C7.38542 125.578 8.8125 126.688 8.8125 128.906ZM2.89844 131.367H4.09375C5.27083 131.367 6.1224 131.177 6.64844 130.797C7.17448 130.417 7.4375 129.807 7.4375 128.969C7.4375 128.214 7.1901 127.651 6.69531 127.281C6.20052 126.911 5.42969 126.727 4.38281 126.727H2.89844V131.367ZM15.2419 128.281C15.6221 128.281 15.9632 128.312 16.2653 128.375L16.0856 129.578C15.7315 129.5 15.419 129.461 15.1481 129.461C14.4554 129.461 13.8617 129.742 13.3669 130.305C12.8773 130.867 12.6325 131.568 12.6325 132.406V137H11.3356V128.438H12.4059L12.5544 130.023H12.6169C12.9346 129.466 13.3174 129.036 13.7653 128.734C14.2132 128.432 14.7054 128.281 15.2419 128.281ZM25.5775 132.711C25.5775 134.107 25.2259 135.198 24.5228 135.984C23.8197 136.766 22.8483 137.156 21.6087 137.156C20.8431 137.156 20.1634 136.977 19.5697 136.617C18.9759 136.258 18.5176 135.742 18.1947 135.07C17.8718 134.398 17.7103 133.612 17.7103 132.711C17.7103 131.315 18.0593 130.229 18.7572 129.453C19.4551 128.672 20.4239 128.281 21.6634 128.281C22.8614 128.281 23.8119 128.68 24.515 129.477C25.2233 130.273 25.5775 131.352 25.5775 132.711ZM19.0541 132.711C19.0541 133.805 19.2728 134.638 19.7103 135.211C20.1478 135.784 20.791 136.07 21.64 136.07C22.489 136.07 23.1322 135.786 23.5697 135.219C24.0124 134.646 24.2337 133.81 24.2337 132.711C24.2337 131.622 24.0124 130.797 23.5697 130.234C23.1322 129.667 22.4837 129.383 21.6244 129.383C20.7754 129.383 20.1348 129.661 19.7025 130.219C19.2702 130.776 19.0541 131.607 19.0541 132.711ZM39.0928 137V131.43C39.0928 130.747 38.947 130.237 38.6553 129.898C38.3636 129.555 37.9105 129.383 37.2959 129.383C36.4886 129.383 35.8923 129.615 35.5069 130.078C35.1215 130.542 34.9287 131.255 34.9287 132.219V137H33.6319V131.43C33.6319 130.747 33.486 130.237 33.1944 129.898C32.9027 129.555 32.447 129.383 31.8272 129.383C31.0147 129.383 30.4183 129.628 30.0381 130.117C29.6631 130.602 29.4756 131.398 29.4756 132.508V137H28.1787V128.438H29.2334L29.4444 129.609H29.5069C29.7517 129.193 30.0954 128.867 30.5381 128.633C30.986 128.398 31.486 128.281 32.0381 128.281C33.3767 128.281 34.2517 128.766 34.6631 129.734H34.7256C34.9808 129.286 35.3506 128.932 35.835 128.672C36.3194 128.411 36.8715 128.281 37.4912 128.281C38.46 128.281 39.184 128.531 39.6631 129.031C40.1475 129.526 40.3897 130.32 40.3897 131.414V137H39.0928ZM50.78 132.711C50.78 134.107 50.4284 135.198 49.7253 135.984C49.0222 136.766 48.0508 137.156 46.8112 137.156C46.0456 137.156 45.3659 136.977 44.7722 136.617C44.1784 136.258 43.7201 135.742 43.3972 135.07C43.0743 134.398 42.9128 133.612 42.9128 132.711C42.9128 131.315 43.2618 130.229 43.9597 129.453C44.6576 128.672 45.6264 128.281 46.8659 128.281C48.0639 128.281 49.0144 128.68 49.7175 129.477C50.4258 130.273 50.78 131.352 50.78 132.711ZM44.2566 132.711C44.2566 133.805 44.4753 134.638 44.9128 135.211C45.3503 135.784 45.9935 136.07 46.8425 136.07C47.6915 136.07 48.3347 135.786 48.7722 135.219C49.2149 134.646 49.4362 133.81 49.4362 132.711C49.4362 131.622 49.2149 130.797 48.7722 130.234C48.3347 129.667 47.6862 129.383 46.8269 129.383C45.9779 129.383 45.3373 129.661 44.905 130.219C44.4727 130.776 44.2566 131.607 44.2566 132.711ZM56.1469 136.086C56.376 136.086 56.5974 136.07 56.8109 136.039C57.0245 136.003 57.1937 135.966 57.3187 135.93V136.922C57.1781 136.99 56.9698 137.044 56.6937 137.086C56.4229 137.133 56.1781 137.156 55.9594 137.156C54.3031 137.156 53.475 136.284 53.475 134.539V129.445H52.2484V128.82L53.475 128.281L54.0219 126.453H54.7719V128.438H57.2562V129.445H54.7719V134.484C54.7719 135 54.8943 135.396 55.1391 135.672C55.3839 135.948 55.7198 136.086 56.1469 136.086ZM60.6544 137H59.3575V128.438H60.6544V137ZM59.2481 126.117C59.2481 125.82 59.321 125.604 59.4669 125.469C59.6127 125.328 59.795 125.258 60.0137 125.258C60.2221 125.258 60.4018 125.328 60.5528 125.469C60.7039 125.609 60.7794 125.826 60.7794 126.117C60.7794 126.409 60.7039 126.628 60.5528 126.773C60.4018 126.914 60.2221 126.984 60.0137 126.984C59.795 126.984 59.6127 126.914 59.4669 126.773C59.321 126.628 59.2481 126.409 59.2481 126.117ZM71.115 132.711C71.115 134.107 70.7634 135.198 70.0603 135.984C69.3572 136.766 68.3858 137.156 67.1463 137.156C66.3806 137.156 65.7009 136.977 65.1072 136.617C64.5134 136.258 64.0551 135.742 63.7322 135.07C63.4093 134.398 63.2478 133.612 63.2478 132.711C63.2478 131.315 63.5968 130.229 64.2947 129.453C64.9926 128.672 65.9614 128.281 67.2009 128.281C68.3989 128.281 69.3494 128.68 70.0525 129.477C70.7608 130.273 71.115 131.352 71.115 132.711ZM64.5916 132.711C64.5916 133.805 64.8103 134.638 65.2478 135.211C65.6853 135.784 66.3285 136.07 67.1775 136.07C68.0265 136.07 68.6697 135.786 69.1072 135.219C69.5499 134.646 69.7713 133.81 69.7713 132.711C69.7713 131.622 69.5499 130.797 69.1072 130.234C68.6697 129.667 68.0213 129.383 67.1619 129.383C66.3129 129.383 65.6723 129.661 65.24 130.219C64.8077 130.776 64.5916 131.607 64.5916 132.711ZM79.5756 137V131.461C79.5756 130.763 79.4168 130.242 79.0991 129.898C78.7814 129.555 78.284 129.383 77.6069 129.383C76.711 129.383 76.0548 129.625 75.6381 130.109C75.2215 130.594 75.0131 131.393 75.0131 132.508V137H73.7162V128.438H74.7709L74.9819 129.609H75.0444C75.31 129.188 75.6824 128.862 76.1616 128.633C76.6407 128.398 77.1746 128.281 77.7631 128.281C78.7944 128.281 79.5704 128.531 80.0912 129.031C80.6121 129.526 80.8725 130.32 80.8725 131.414V137H79.5756ZM89.3878 134.664C89.3878 135.461 89.0909 136.076 88.4972 136.508C87.9034 136.94 87.0701 137.156 85.9972 137.156C84.8618 137.156 83.9764 136.977 83.3409 136.617V135.414C83.7524 135.622 84.1925 135.786 84.6612 135.906C85.1352 136.026 85.5909 136.086 86.0284 136.086C86.7055 136.086 87.2264 135.979 87.5909 135.766C87.9555 135.547 88.1378 135.216 88.1378 134.773C88.1378 134.44 87.992 134.156 87.7003 133.922C87.4139 133.682 86.8514 133.401 86.0128 133.078C85.2159 132.781 84.6482 132.523 84.3097 132.305C83.9764 132.081 83.7264 131.828 83.5597 131.547C83.3982 131.266 83.3175 130.93 83.3175 130.539C83.3175 129.841 83.6014 129.292 84.1691 128.891C84.7368 128.484 85.5154 128.281 86.505 128.281C87.4269 128.281 88.3279 128.469 89.2081 128.844L88.7472 129.898C87.8878 129.544 87.1092 129.367 86.4112 129.367C85.7967 129.367 85.3331 129.464 85.0206 129.656C84.7081 129.849 84.5519 130.115 84.5519 130.453C84.5519 130.682 84.6092 130.878 84.7237 131.039C84.8435 131.201 85.0336 131.354 85.2941 131.5C85.5545 131.646 86.0545 131.857 86.7941 132.133C87.8097 132.503 88.4946 132.875 88.8487 133.25C89.2081 133.625 89.3878 134.096 89.3878 134.664ZM2.89844 166.25V171H1.57031V159.578H4.70312C6.10417 159.578 7.13802 159.846 7.80469 160.383C8.47656 160.919 8.8125 161.727 8.8125 162.805C8.8125 164.315 8.04688 165.336 6.51562 165.867L9.61719 171H8.04688L5.28125 166.25H2.89844ZM2.89844 165.109H4.71875C5.65625 165.109 6.34375 164.924 6.78125 164.555C7.21875 164.18 7.4375 163.62 7.4375 162.875C7.4375 162.12 7.21354 161.576 6.76562 161.242C6.32292 160.909 5.60938 160.742 4.625 160.742H2.89844V165.109ZM15.2028 171.156C13.9372 171.156 12.9372 170.771 12.2028 170C11.4736 169.229 11.1091 168.159 11.1091 166.789C11.1091 165.409 11.4476 164.312 12.1247 163.5C12.807 162.688 13.721 162.281 14.8669 162.281C15.9398 162.281 16.7887 162.635 17.4137 163.344C18.0387 164.047 18.3512 164.977 18.3512 166.133V166.953H12.4528C12.4789 167.958 12.7315 168.721 13.2106 169.242C13.695 169.763 14.3747 170.023 15.2497 170.023C16.1716 170.023 17.083 169.831 17.9841 169.445V170.602C17.5257 170.799 17.0908 170.94 16.6794 171.023C16.2731 171.112 15.7809 171.156 15.2028 171.156ZM14.8512 163.367C14.1637 163.367 13.6143 163.591 13.2028 164.039C12.7966 164.487 12.557 165.107 12.4841 165.898H16.9606C16.9606 165.081 16.7783 164.456 16.4137 164.023C16.0492 163.586 15.5283 163.367 14.8512 163.367ZM24.7494 163.445H22.5697V171H21.2728V163.445H19.7416V162.859L21.2728 162.391V161.914C21.2728 159.81 22.1921 158.758 24.0306 158.758C24.4837 158.758 25.015 158.849 25.6244 159.031L25.2884 160.07C24.7884 159.909 24.3614 159.828 24.0072 159.828C23.5176 159.828 23.1556 159.992 22.9212 160.32C22.6869 160.643 22.5697 161.164 22.5697 161.883V162.438H24.7494V163.445ZM30.2491 171.156C28.9834 171.156 27.9834 170.771 27.2491 170C26.5199 169.229 26.1553 168.159 26.1553 166.789C26.1553 165.409 26.4939 164.312 27.1709 163.5C27.8532 162.688 28.7673 162.281 29.9131 162.281C30.986 162.281 31.835 162.635 32.46 163.344C33.085 164.047 33.3975 164.977 33.3975 166.133V166.953H27.4991C27.5251 167.958 27.7777 168.721 28.2569 169.242C28.7412 169.763 29.4209 170.023 30.2959 170.023C31.2178 170.023 32.1293 169.831 33.0303 169.445V170.602C32.572 170.799 32.1371 170.94 31.7256 171.023C31.3194 171.112 30.8272 171.156 30.2491 171.156ZM29.8975 163.367C29.21 163.367 28.6605 163.591 28.2491 164.039C27.8428 164.487 27.6032 165.107 27.5303 165.898H32.0069C32.0069 165.081 31.8246 164.456 31.46 164.023C31.0954 163.586 30.5746 163.367 29.8975 163.367ZM39.8425 162.281C40.2227 162.281 40.5639 162.312 40.8659 162.375L40.6862 163.578C40.3321 163.5 40.0196 163.461 39.7487 163.461C39.056 163.461 38.4623 163.742 37.9675 164.305C37.4779 164.867 37.2331 165.568 37.2331 166.406V171H35.9362V162.438H37.0066L37.155 164.023H37.2175C37.5352 163.466 37.918 163.036 38.3659 162.734C38.8139 162.432 39.306 162.281 39.8425 162.281ZM54.6387 171L53.2169 167.367H48.6387L47.2325 171H45.8887L50.4044 159.531H51.5216L56.0137 171H54.6387ZM52.8028 166.172L51.4747 162.633C51.3028 162.185 51.1257 161.635 50.9434 160.984C50.8289 161.484 50.6648 162.034 50.4512 162.633L49.1075 166.172H52.8028ZM63.7084 171H62.3803V159.578H68.7475V160.758H63.7084V164.938H68.4428V166.117H63.7084V171ZM74.6769 162.281C75.0571 162.281 75.3982 162.312 75.7003 162.375L75.5206 163.578C75.1665 163.5 74.854 163.461 74.5831 163.461C73.8904 163.461 73.2967 163.742 72.8019 164.305C72.3123 164.867 72.0675 165.568 72.0675 166.406V171H70.7706V162.438H71.8409L71.9894 164.023H72.0519C72.3696 163.466 72.7524 163.036 73.2003 162.734C73.6482 162.432 74.1404 162.281 74.6769 162.281ZM78.9187 171H77.6219V162.438H78.9187V171ZM77.5125 160.117C77.5125 159.82 77.5854 159.604 77.7312 159.469C77.8771 159.328 78.0594 159.258 78.2781 159.258C78.4865 159.258 78.6661 159.328 78.8172 159.469C78.9682 159.609 79.0437 159.826 79.0437 160.117C79.0437 160.409 78.9682 160.628 78.8172 160.773C78.6661 160.914 78.4865 160.984 78.2781 160.984C78.0594 160.984 77.8771 160.914 77.7312 160.773C77.5854 160.628 77.5125 160.409 77.5125 160.117ZM85.6059 171.156C84.3403 171.156 83.3403 170.771 82.6059 170C81.8768 169.229 81.5122 168.159 81.5122 166.789C81.5122 165.409 81.8507 164.312 82.5278 163.5C83.2101 162.688 84.1242 162.281 85.27 162.281C86.3429 162.281 87.1919 162.635 87.8169 163.344C88.4419 164.047 88.7544 164.977 88.7544 166.133V166.953H82.8559C82.882 167.958 83.1346 168.721 83.6137 169.242C84.0981 169.763 84.7778 170.023 85.6528 170.023C86.5747 170.023 87.4861 169.831 88.3872 169.445V170.602C87.9289 170.799 87.494 170.94 87.0825 171.023C86.6762 171.112 86.1841 171.156 85.6059 171.156ZM85.2544 163.367C84.5669 163.367 84.0174 163.591 83.6059 164.039C83.1997 164.487 82.9601 165.107 82.8872 165.898H87.3637C87.3637 165.081 87.1815 164.456 86.8169 164.023C86.4523 163.586 85.9315 163.367 85.2544 163.367ZM97.1525 171V165.461C97.1525 164.763 96.9936 164.242 96.6759 163.898C96.3582 163.555 95.8608 163.383 95.1837 163.383C94.2879 163.383 93.6317 163.625 93.215 164.109C92.7983 164.594 92.59 165.393 92.59 166.508V171H91.2931V162.438H92.3478L92.5587 163.609H92.6212C92.8869 163.188 93.2593 162.862 93.7384 162.633C94.2176 162.398 94.7515 162.281 95.34 162.281C96.3712 162.281 97.1473 162.531 97.6681 163.031C98.189 163.526 98.4494 164.32 98.4494 165.414V171H97.1525ZM107.269 169.852H107.199C106.6 170.721 105.704 171.156 104.512 171.156C103.392 171.156 102.519 170.773 101.894 170.008C101.275 169.242 100.965 168.154 100.965 166.742C100.965 165.331 101.277 164.234 101.902 163.453C102.527 162.672 103.397 162.281 104.512 162.281C105.673 162.281 106.564 162.703 107.183 163.547H107.285L107.23 162.93L107.199 162.328V158.844H108.496V171H107.441L107.269 169.852ZM104.676 170.07C105.561 170.07 106.202 169.831 106.598 169.352C106.999 168.867 107.199 168.089 107.199 167.016V166.742C107.199 165.529 106.996 164.664 106.59 164.148C106.189 163.628 105.545 163.367 104.66 163.367C103.9 163.367 103.316 163.664 102.91 164.258C102.509 164.846 102.308 165.68 102.308 166.758C102.308 167.852 102.509 168.677 102.91 169.234C103.311 169.792 103.9 170.07 104.676 170.07Z" fill="#A1A1A1"/>
</svg>
