<svg width="24" height="25" viewBox="0 0 24 25" fill="none" xmlns="http://www.w3.org/2000/svg">
<path fill-rule="evenodd" clip-rule="evenodd" d="M9.43994 4.28296C9.57255 4.28296 9.69973 4.33564 9.7935 4.42941C9.88726 4.52317 9.93994 4.65035 9.93994 4.78296V8.08296C9.93994 8.21557 9.88726 8.34274 9.7935 8.43651C9.69973 8.53028 9.57255 8.58296 9.43994 8.58296C9.30733 8.58296 9.18016 8.53028 9.08639 8.43651C8.99262 8.34274 8.93994 8.21557 8.93994 8.08296V4.78296C8.93994 4.65035 8.99262 4.52317 9.08639 4.42941C9.18016 4.33564 9.30733 4.28296 9.43994 4.28296Z" fill="#060809"/>
<path fill-rule="evenodd" clip-rule="evenodd" d="M5.88995 7.45245C6.45495 7.31745 7.03146 7.41995 7.62995 7.72895C8.11746 7.98145 8.46345 8.09695 8.73295 8.15245C9.00195 8.20845 9.21595 8.20945 9.47445 8.20945V9.20945H9.46446C9.20646 9.20945 8.90446 9.20945 8.53046 9.13195C8.15196 9.05345 7.71945 8.90095 7.17045 8.61695C6.73145 8.39045 6.40045 8.35845 6.12245 8.42495C5.83045 8.49495 5.52195 8.68995 5.16645 9.05695C4.35045 9.90095 4.09695 10.7699 4.00845 11.4379C3.95845 12.2599 4.10695 13.8829 4.84245 15.4694C5.09245 16.0094 5.44745 16.7544 5.88045 17.3379C6.09645 17.629 6.31345 17.853 6.52195 17.9909C6.72445 18.1244 6.89245 18.161 7.04495 18.135C8.60645 17.866 8.89995 17.8595 9.20445 17.8595H9.72295V18.8595H9.18995C8.97895 18.8595 8.72995 18.8595 7.21495 19.1205C6.74495 19.2015 6.32146 19.057 5.97095 18.8255C5.62645 18.598 5.32895 18.2725 5.07745 17.934C4.57495 17.2575 4.18195 16.422 3.93545 15.89C3.11645 14.124 2.94945 12.3214 3.01145 11.3579L3.01295 11.3419L3.01495 11.326C3.12095 10.504 3.43695 9.40645 4.44795 8.36195C4.87045 7.92495 5.33945 7.58395 5.89045 7.45195" fill="#060809"/>
<path fill-rule="evenodd" clip-rule="evenodd" d="M7.32 6.205C8.068 6.9205 8.4735 7.788 8.4735 8.46C8.4735 8.59261 8.52618 8.71979 8.61994 8.81355C8.71371 8.90732 8.84089 8.96 8.9735 8.96C9.10611 8.96 9.23328 8.90732 9.32705 8.81355C9.42082 8.71979 9.4735 8.59261 9.4735 8.46C9.4735 7.435 8.8895 6.3225 8.011 5.482C7.122 4.6325 5.8715 4 4.448 4C4.31539 4 4.18821 4.05268 4.09444 4.14645C4.00068 4.24021 3.948 4.36739 3.948 4.5C3.948 4.63261 4.00068 4.75979 4.09444 4.85355C4.18821 4.94732 4.31539 5 4.448 5C5.57 5 6.582 5.4995 7.3195 6.205" fill="#060809"/>
<path fill-rule="evenodd" clip-rule="evenodd" d="M4.28697 4.00446C4.41851 3.98805 4.55118 4.02455 4.65582 4.10594C4.76045 4.18732 4.82849 4.30692 4.84497 4.43846C5.09097 6.40346 6.81747 7.43846 8.21197 7.99596C8.33509 8.04522 8.43361 8.14138 8.48584 8.26328C8.53806 8.38518 8.53973 8.52283 8.49047 8.64596C8.4412 8.76908 8.34504 8.8676 8.22315 8.91983C8.10125 8.97205 7.96359 8.97372 7.84047 8.92446C6.40597 8.35096 4.17297 7.12246 3.85297 4.56246C3.83656 4.43092 3.87306 4.29824 3.95445 4.19361C4.03583 4.08897 4.15544 4.02093 4.28697 4.00446ZM12.881 7.45146C12.305 7.31946 11.714 7.41846 11.096 7.72546C10.586 7.97846 10.2225 8.09546 9.93747 8.15196C9.65247 8.20846 9.42647 8.20946 9.15747 8.20946C9.02486 8.20946 8.89768 8.26213 8.80391 8.3559C8.71014 8.44967 8.65747 8.57685 8.65747 8.70946C8.65747 8.84206 8.71014 8.96924 8.80391 9.06301C8.89768 9.15678 9.02486 9.20946 9.15747 9.20946H9.16697C9.43547 9.20946 9.74697 9.20946 10.132 9.13296C10.5225 9.05546 10.97 8.90396 11.54 8.62096C12.002 8.39196 12.356 8.35696 12.658 8.42596C12.971 8.49796 13.2965 8.69696 13.6665 9.06446C14.5245 9.91596 14.784 10.7905 14.8735 11.4565C14.8929 11.5863 14.9626 11.7033 15.0676 11.7822C15.1726 11.861 15.3043 11.8955 15.4345 11.878C15.5646 11.8605 15.6826 11.7926 15.7631 11.6888C15.8435 11.5851 15.88 11.4538 15.8645 11.3235C15.7535 10.497 15.4225 9.39846 14.371 8.35446C13.9305 7.91746 13.446 7.58046 12.881 7.45146ZM13.3535 17.64C13.3062 17.5944 13.2503 17.5586 13.1892 17.5347C13.1281 17.5107 13.0628 17.499 12.9972 17.5003C12.9315 17.5015 12.8668 17.5157 12.8066 17.542C12.7464 17.5683 12.692 17.6061 12.6465 17.6535C12.268 18.0465 11.95 18.1785 11.681 18.1345C10.055 17.8655 9.75097 17.8595 9.43847 17.8595C9.30586 17.8595 9.17868 17.9121 9.08491 18.0059C8.99115 18.0997 8.93847 18.2268 8.93847 18.3595C8.93847 18.4921 8.99115 18.6192 9.08491 18.713C9.17868 18.8068 9.30586 18.8595 9.43847 18.8595H9.45247C9.67597 18.8595 9.93597 18.8595 11.5175 19.121C12.2785 19.247 12.91 18.8215 13.367 18.347C13.4126 18.2996 13.4484 18.2438 13.4724 18.1826C13.4964 18.1214 13.5082 18.0561 13.5069 17.9904C13.5056 17.9247 13.4914 17.8599 13.4651 17.7997C13.4388 17.7394 13.4009 17.6855 13.3535 17.64Z" fill="#060809"/>
<path fill-rule="evenodd" clip-rule="evenodd" d="M16.325 8.55149C15.8235 9.45649 15.6935 10.406 15.893 11.0475C15.9125 11.1102 15.9195 11.1761 15.9135 11.2415C15.9075 11.3069 15.8887 11.3705 15.8582 11.4286C15.8276 11.4868 15.7859 11.5383 15.7354 11.5803C15.685 11.6223 15.6267 11.654 15.564 11.6735C15.5013 11.693 15.4354 11.7 15.37 11.694C15.3046 11.688 15.241 11.6692 15.1829 11.6386C15.1247 11.6081 15.0732 11.5664 15.0312 11.5159C14.9892 11.4655 14.9575 11.4072 14.938 11.3445C14.6335 10.365 14.8615 9.12949 15.4505 8.06649C16.047 6.99049 17.0535 6.01599 18.413 5.59299C18.4757 5.57349 18.5416 5.56653 18.607 5.57251C18.6724 5.57849 18.736 5.59729 18.7941 5.62784C18.8523 5.65839 18.9038 5.7001 18.9458 5.75057C18.9878 5.80104 19.0195 5.85929 19.039 5.92199C19.0585 5.9847 19.0655 6.05063 19.0595 6.11603C19.0535 6.18142 19.0347 6.245 19.0042 6.30313C18.9736 6.36126 18.9319 6.4128 18.8814 6.45482C18.831 6.49683 18.7727 6.52849 18.71 6.54799C17.6385 6.88099 16.82 7.65899 16.325 8.55149Z" fill="#060809"/>
<path fill-rule="evenodd" clip-rule="evenodd" d="M17.3595 9.18945C16.7755 10.0445 15.9855 10.586 15.323 10.696C15.2574 10.7057 15.1944 10.7285 15.1377 10.7628C15.081 10.7972 15.0316 10.8425 14.9926 10.8961C14.9535 10.9497 14.9255 11.0106 14.9102 11.0751C14.8949 11.1396 14.8926 11.2066 14.9034 11.272C14.9142 11.3374 14.938 11.4001 14.9732 11.4562C15.0085 11.5124 15.0545 11.561 15.1088 11.5992C15.163 11.6374 15.2243 11.6645 15.289 11.6788C15.3538 11.693 15.4208 11.6943 15.486 11.6825C16.4975 11.515 17.4995 10.757 18.185 9.75345C18.879 8.73745 19.2985 7.40045 19.066 5.99595C19.0553 5.93115 19.0319 5.86908 18.9973 5.8133C18.9626 5.75753 18.9172 5.70913 18.8638 5.67087C18.8104 5.63261 18.75 5.60524 18.6861 5.59033C18.6221 5.57542 18.5558 5.57325 18.491 5.58395C18.4262 5.59466 18.3641 5.61802 18.3084 5.65271C18.2526 5.6874 18.2042 5.73273 18.1659 5.78613C18.1277 5.83952 18.1003 5.89993 18.0854 5.9639C18.0705 6.02787 18.0683 6.09415 18.079 6.15895C18.2625 7.26595 17.935 8.34646 17.359 9.18896" fill="#060809"/>
<path fill-rule="evenodd" clip-rule="evenodd" d="M15.89 12C15.5585 12 15.2406 12.1317 15.0061 12.3661C14.7717 12.6005 14.64 12.9185 14.64 13.25C14.64 13.5815 14.7717 13.8995 15.0061 14.1339C15.2406 14.3683 15.5585 14.5 15.89 14.5C16.2215 14.5 16.5395 14.3683 16.7739 14.1339C17.0083 13.8995 17.14 13.5815 17.14 13.25C17.14 12.9185 17.0083 12.6005 16.7739 12.3661C16.5395 12.1317 16.2215 12 15.89 12ZM13.64 13.25C13.64 12.9545 13.6982 12.6619 13.8113 12.389C13.9244 12.116 14.0901 11.8679 14.299 11.659C14.508 11.4501 14.756 11.2843 15.029 11.1713C15.302 11.0582 15.5945 11 15.89 11C16.1855 11 16.4781 11.0582 16.7511 11.1713C17.024 11.2843 17.2721 11.4501 17.481 11.659C17.6899 11.8679 17.8557 12.116 17.9687 12.389C18.0818 12.6619 18.14 12.9545 18.14 13.25C18.14 13.8467 17.903 14.419 17.481 14.841C17.059 15.2629 16.4868 15.5 15.89 15.5C15.2933 15.5 14.721 15.2629 14.299 14.841C13.8771 14.419 13.64 13.8467 13.64 13.25Z" fill="#060809"/>
<path fill-rule="evenodd" clip-rule="evenodd" d="M18.9225 9.54503C19.4841 9.74655 19.9427 10.1629 20.1974 10.7025C20.4521 11.2422 20.4819 11.8609 20.2805 12.4225C20.2583 12.4844 20.2242 12.5412 20.1801 12.5898C20.1359 12.6385 20.0827 12.6779 20.0233 12.706C19.9639 12.734 19.8996 12.7501 19.834 12.7533C19.7684 12.7565 19.7028 12.7467 19.641 12.7245C19.5792 12.7024 19.5223 12.6683 19.4737 12.6241C19.425 12.58 19.3856 12.5267 19.3575 12.4673C19.3295 12.4079 19.3134 12.3436 19.3102 12.278C19.307 12.2124 19.3168 12.1469 19.339 12.085C19.451 11.773 19.4345 11.4292 19.2931 11.1294C19.1517 10.8295 18.897 10.5981 18.585 10.486C18.2729 10.374 17.9292 10.3905 17.6293 10.5319C17.3294 10.6733 17.098 10.928 16.986 11.24C16.9389 11.3617 16.8461 11.4602 16.7275 11.5144C16.6088 11.5686 16.4737 11.5743 16.3509 11.5303C16.228 11.4862 16.1273 11.3959 16.0702 11.2786C16.013 11.1614 16.004 11.0264 16.045 10.9025C16.2466 10.341 16.663 9.8825 17.2026 9.62792C17.7422 9.37335 18.3609 9.34353 18.9225 9.54503Z" fill="#060809"/>
<path fill-rule="evenodd" clip-rule="evenodd" d="M18.1265 12.088C18.6384 11.9411 19.1858 11.9806 19.6713 12.1993C20.1568 12.418 20.5491 12.8018 20.7783 13.2825C21.0076 13.7631 21.0589 14.3095 20.9233 14.8245C20.7876 15.3394 20.4738 15.7896 20.0375 16.095C19.9837 16.1341 19.9227 16.1622 19.858 16.1774C19.7932 16.1927 19.7261 16.1949 19.6605 16.1839C19.5949 16.1729 19.5321 16.1489 19.4759 16.1134C19.4197 16.0778 19.3711 16.0314 19.3331 15.9769C19.295 15.9223 19.2682 15.8607 19.2543 15.7957C19.2403 15.7306 19.2395 15.6634 19.2518 15.5981C19.2642 15.5327 19.2894 15.4705 19.3261 15.415C19.3628 15.3595 19.4102 15.3119 19.4655 15.275C19.6031 15.1787 19.7199 15.0558 19.8089 14.9134C19.898 14.7711 19.9574 14.6122 19.9837 14.4464C20.01 14.2805 20.0026 14.1111 19.962 13.9482C19.9214 13.7853 19.8483 13.6322 19.7473 13.4981C19.6462 13.3641 19.5191 13.2517 19.3737 13.1678C19.2282 13.0839 19.0674 13.0302 18.9007 13.0098C18.7341 12.9895 18.565 13.0029 18.4036 13.0493C18.2423 13.0957 18.0919 13.1742 17.9615 13.28C17.9106 13.3214 17.8519 13.3524 17.789 13.3712C17.7261 13.3899 17.6601 13.3961 17.5947 13.3894C17.5294 13.3827 17.4661 13.3631 17.4083 13.3319C17.3505 13.3007 17.2994 13.2584 17.258 13.2075C17.2166 13.1565 17.1856 13.0979 17.1668 13.035C17.148 12.972 17.1418 12.906 17.1486 12.8407C17.1553 12.7754 17.1748 12.712 17.206 12.6542C17.2373 12.5965 17.2796 12.5454 17.3305 12.504C17.5652 12.3132 17.8359 12.1717 18.1265 12.088ZM13.89 15C13.5585 15 13.2406 15.1317 13.0061 15.3661C12.7717 15.6005 12.64 15.9184 12.64 16.25C12.64 16.5815 12.7717 16.8994 13.0061 17.1338C13.2406 17.3683 13.5585 17.5 13.89 17.5C14.2215 17.5 14.5395 17.3683 14.7739 17.1338C15.0083 16.8994 15.14 16.5815 15.14 16.25C15.14 15.9184 15.0083 15.6005 14.7739 15.3661C14.5395 15.1317 14.2215 15 13.89 15ZM11.64 16.25C11.64 15.6532 11.8771 15.0809 12.299 14.659C12.721 14.237 13.2933 14 13.89 14C14.4868 14 15.059 14.237 15.481 14.659C15.903 15.0809 16.14 15.6532 16.14 16.25C16.14 16.8467 15.903 17.419 15.481 17.841C15.059 18.2629 14.4868 18.5 13.89 18.5C13.2933 18.5 12.721 18.2629 12.299 17.841C11.8771 17.419 11.64 16.8467 11.64 16.25Z" fill="#060809"/>
<path fill-rule="evenodd" clip-rule="evenodd" d="M17.89 15C17.5585 15 17.2406 15.1317 17.0061 15.3661C16.7717 15.6005 16.64 15.9185 16.64 16.25C16.64 16.5815 16.7717 16.8995 17.0061 17.1339C17.2406 17.3683 17.5585 17.5 17.89 17.5C18.2215 17.5 18.5395 17.3683 18.7739 17.1339C19.0083 16.8995 19.14 16.5815 19.14 16.25C19.14 15.9185 19.0083 15.6005 18.7739 15.3661C18.5395 15.1317 18.2215 15 17.89 15ZM15.64 16.25C15.64 15.6533 15.8771 15.081 16.299 14.659C16.721 14.2371 17.2933 14 17.89 14C18.4868 14 19.059 14.2371 19.481 14.659C19.903 15.081 20.14 15.6533 20.14 16.25C20.14 16.8467 19.903 17.419 19.481 17.841C19.059 18.2629 18.4868 18.5 17.89 18.5C17.2933 18.5 16.721 18.2629 16.299 17.841C15.8771 17.419 15.64 16.8467 15.64 16.25Z" fill="#060809"/>
<path fill-rule="evenodd" clip-rule="evenodd" d="M15.89 18C15.5585 18 15.2406 18.1317 15.0061 18.3661C14.7717 18.6005 14.64 18.9185 14.64 19.25C14.64 19.5815 14.7717 19.8995 15.0061 20.1339C15.2406 20.3683 15.5585 20.5 15.89 20.5C16.2215 20.5 16.5395 20.3683 16.7739 20.1339C17.0083 19.8995 17.14 19.5815 17.14 19.25C17.14 18.9185 17.0083 18.6005 16.7739 18.3661C16.5395 18.1317 16.2215 18 15.89 18ZM13.64 19.25C13.64 18.9545 13.6982 18.6619 13.8113 18.389C13.9244 18.116 14.0901 17.8679 14.299 17.659C14.508 17.4501 14.756 17.2843 15.029 17.1713C15.302 17.0582 15.5945 17 15.89 17C16.1855 17 16.4781 17.0582 16.7511 17.1713C17.024 17.2843 17.2721 17.4501 17.481 17.659C17.6899 17.8679 17.8557 18.116 17.9687 18.389C18.0818 18.6619 18.14 18.9545 18.14 19.25C18.14 19.8467 17.903 20.419 17.481 20.841C17.059 21.2629 16.4868 21.5 15.89 21.5C15.2933 21.5 14.721 21.2629 14.299 20.841C13.8771 20.419 13.64 19.8467 13.64 19.25Z" fill="#060809"/>
<path fill-rule="evenodd" clip-rule="evenodd" d="M18.917 17.483C18.939 17.4211 18.973 17.3642 19.0171 17.3155C19.0611 17.2668 19.1144 17.2272 19.1737 17.1991C19.233 17.171 19.2973 17.1548 19.3629 17.1515C19.4285 17.1482 19.4941 17.1579 19.556 17.18C19.8732 17.2932 20.1609 17.4763 20.3979 17.7156C20.6349 17.9548 20.8152 18.2443 20.9255 18.5626C21.0357 18.8808 21.073 19.2198 21.0348 19.5544C20.9966 19.8891 20.8837 20.2108 20.7045 20.496C20.5253 20.7812 20.2843 21.0225 19.9994 21.2022C19.7145 21.3818 19.3929 21.4952 19.0583 21.534C18.7238 21.5727 18.3847 21.5359 18.0663 21.4262C17.7479 21.3164 17.4581 21.1366 17.2185 20.9C17.1705 20.8541 17.1322 20.7992 17.1056 20.7384C17.0791 20.6776 17.065 20.6121 17.064 20.5458C17.0631 20.4794 17.0753 20.4136 17.1001 20.352C17.1248 20.2905 17.1616 20.2344 17.2082 20.1872C17.2548 20.14 17.3103 20.1026 17.3716 20.077C17.4328 20.0515 17.4985 20.0384 17.5648 20.0385C17.6312 20.0386 17.6968 20.052 17.758 20.0777C17.8191 20.1034 17.8745 20.1411 17.921 20.1885C18.0541 20.3199 18.215 20.4198 18.3919 20.4808C18.5688 20.5418 18.7572 20.5623 18.943 20.5408C19.1289 20.5192 19.3076 20.4563 19.4658 20.3565C19.6241 20.2567 19.758 20.1227 19.8576 19.9643C19.9571 19.8059 20.0199 19.6271 20.0412 19.4412C20.0625 19.2553 20.0417 19.067 19.9805 18.8902C19.9193 18.7134 19.8192 18.5526 19.6876 18.4196C19.556 18.2867 19.3962 18.1849 19.22 18.122C19.1581 18.0999 19.1012 18.0659 19.0525 18.0218C19.0038 17.9778 18.9642 17.9246 18.9361 17.8652C18.908 17.8059 18.8918 17.7416 18.8885 17.676C18.8852 17.6104 18.8949 17.5448 18.917 17.483Z" fill="#060809"/>
</svg>
