<svg width="40" height="40" viewBox="0 0 40 40" fill="none" xmlns="http://www.w3.org/2000/svg">
<path d="M27.5 20C27.5 18.8667 27.4 17.7667 27.2667 16.6667H32.9C33.1667 17.7334 33.3334 18.85 33.3334 20C33.3334 20.6167 33.2834 21.2167 33.2 21.8C34.35 21.9667 35.4167 22.3334 36.4 22.8667C36.5667 21.9334 36.6667 20.9834 36.6667 20C36.6667 10.8334 29.1667 3.33337 20 3.33337C10.7834 3.33337 3.33337 10.8334 3.33337 20C3.33337 29.1667 10.8334 36.6667 20 36.6667C20.9834 36.6667 21.9334 36.5667 22.8667 36.4C22.0751 34.9483 21.6624 33.3203 21.6667 31.6667C21.6667 31.1834 21.7167 30.7167 21.7834 30.25C21.25 31.3 20.6667 32.3167 20 33.2667C18.6167 31.2667 17.5 29.05 16.8167 26.6667H23.0167C24.0177 24.9273 25.5229 23.5325 27.3334 22.6667C27.4334 21.7834 27.5 20.9 27.5 20ZM20 6.71671C21.3834 8.71671 22.5 10.95 23.1834 13.3334H16.8167C17.5 10.95 18.6167 8.71671 20 6.71671ZM7.10004 23.3334C6.83337 22.2667 6.66671 21.15 6.66671 20C6.66671 18.85 6.83337 17.7334 7.10004 16.6667H12.7334C12.6 17.7667 12.5 18.8667 12.5 20C12.5 21.1334 12.6 22.2334 12.7334 23.3334H7.10004ZM8.46671 26.6667H13.3334C13.9167 28.75 14.6667 30.75 15.6667 32.6C12.6311 31.5528 10.0748 29.4462 8.46671 26.6667ZM13.3334 13.3334H8.46671C10.0648 10.5454 12.6247 8.43585 15.6667 7.40004C14.6667 9.25004 13.9167 11.25 13.3334 13.3334ZM23.9 23.3334H16.1C15.9334 22.2334 15.8334 21.1334 15.8334 20C15.8334 18.8667 15.9334 17.75 16.1 16.6667H23.9C24.05 17.75 24.1667 18.8667 24.1667 20C24.1667 21.1334 24.05 22.2334 23.9 23.3334ZM24.3167 7.40004C27.3834 8.45004 29.9334 10.5667 31.5334 13.3334H26.6167C26.0951 11.2691 25.3227 9.27653 24.3167 7.40004ZM37.5 28.75L29.5834 36.6667L25 31.6667L26.9334 29.7334L29.5834 32.3834L35.5667 26.4L37.5 28.75Z" fill="white"/>
</svg>
