<svg width="20" height="20" viewBox="0 0 20 20" fill="none" xmlns="http://www.w3.org/2000/svg">
<path d="M16.3751 7.53333L12.3417 7.18333L10.7667 3.475C10.4834 2.8 9.51673 2.8 9.23339 3.475L7.65839 7.19167L3.63339 7.53333C2.90006 7.59167 2.60006 8.50833 3.15839 8.99167L6.21673 11.6417L5.30006 15.575C5.13339 16.2917 5.90839 16.8583 6.54173 16.475L10.0001 14.3917L13.4584 16.4833C14.0917 16.8667 14.8667 16.3 14.7001 15.5833L13.7834 11.6417L16.8417 8.99167C17.4001 8.50833 17.1084 7.59167 16.3751 7.53333ZM10.0001 12.8333V5.08333L11.4251 8.45L15.0751 8.76667L12.3084 11.1667L13.1417 14.7333L10.0001 12.8333Z" fill="#FFC43F"/>
</svg>
