<svg width="115" height="284" viewBox="0 0 115 284" fill="none" xmlns="http://www.w3.org/2000/svg">
<path d="M13.1348 21H10.8008V14.5547H4.21875V21H1.875V6.72266H4.21875V12.5625H10.8008V6.72266H13.1348V21ZM20.9863 9.98438C21.9499 9.98438 22.7767 10.1829 23.4668 10.5801C24.1569 10.9772 24.6875 11.5404 25.0586 12.2695C25.4297 12.9987 25.6152 13.8711 25.6152 14.8867V16.1172H18.3984C18.4245 17.1654 18.7044 17.9727 19.2383 18.5391C19.7786 19.1055 20.5339 19.3887 21.5039 19.3887C22.194 19.3887 22.8125 19.3236 23.3594 19.1934C23.9128 19.0566 24.4824 18.8581 25.0684 18.5977V20.4629C24.528 20.7168 23.9779 20.9023 23.418 21.0195C22.8581 21.1367 22.1875 21.1953 21.4062 21.1953C20.3451 21.1953 19.4108 20.9902 18.6035 20.5801C17.8027 20.1634 17.1745 19.5449 16.7188 18.7246C16.2695 17.9043 16.0449 16.8854 16.0449 15.668C16.0449 14.457 16.25 13.4284 16.6602 12.582C17.0703 11.7357 17.6465 11.0911 18.3887 10.6484C19.1309 10.2057 19.9967 9.98438 20.9863 9.98438ZM20.9863 11.7129C20.2637 11.7129 19.6777 11.9473 19.2285 12.416C18.7858 12.8848 18.5254 13.5716 18.4473 14.4766H23.3691C23.3626 13.9362 23.2715 13.4577 23.0957 13.041C22.9264 12.6243 22.666 12.2988 22.3145 12.0645C21.9694 11.8301 21.5267 11.7129 20.9863 11.7129ZM30.5078 21H28.2031V5.80469H30.5078V21ZM39.3359 9.98438C40.6185 9.98438 41.6471 10.4531 42.4219 11.3906C43.2031 12.3281 43.5938 13.7214 43.5938 15.5703C43.5938 16.7943 43.4115 17.8262 43.0469 18.666C42.6888 19.4993 42.1842 20.1309 41.5332 20.5605C40.8887 20.9837 40.1367 21.1953 39.2773 21.1953C38.7305 21.1953 38.2552 21.1237 37.8516 20.9805C37.4479 20.8372 37.1029 20.6517 36.8164 20.4238C36.5299 20.1895 36.2891 19.9355 36.0938 19.6621H35.957C35.9896 19.9225 36.0189 20.2122 36.0449 20.5312C36.0775 20.8438 36.0938 21.1302 36.0938 21.3906V25.7949H33.7891V10.1895H35.6641L35.9863 11.6836H36.0938C36.2956 11.3776 36.5397 11.0944 36.8262 10.834C37.1191 10.5736 37.4707 10.3685 37.8809 10.2188C38.2975 10.0625 38.7826 9.98438 39.3359 9.98438ZM38.7207 11.8594C38.0892 11.8594 37.5814 11.9863 37.1973 12.2402C36.8197 12.4876 36.543 12.862 36.3672 13.3633C36.1979 13.8646 36.1068 14.4928 36.0938 15.248V15.5703C36.0938 16.3711 36.1751 17.0514 36.3379 17.6113C36.5072 18.1647 36.7839 18.5879 37.168 18.8809C37.5586 19.1673 38.0859 19.3105 38.75 19.3105C39.3099 19.3105 39.7721 19.1576 40.1367 18.8516C40.5078 18.5456 40.7845 18.1094 40.9668 17.543C41.1491 16.9766 41.2402 16.3092 41.2402 15.541C41.2402 14.3757 41.0319 13.4707 40.6152 12.8262C40.2051 12.1816 39.5736 11.8594 38.7207 11.8594ZM57.7637 8.50977C57.0801 8.50977 56.4681 8.63346 55.9277 8.88086C55.3939 9.12826 54.9414 9.48633 54.5703 9.95508C54.1992 10.4173 53.916 10.9805 53.7207 11.6445C53.5254 12.3021 53.4277 13.0443 53.4277 13.8711C53.4277 14.9779 53.584 15.9316 53.8965 16.7324C54.209 17.5267 54.6842 18.1387 55.3223 18.5684C55.9603 18.9915 56.7676 19.2031 57.7441 19.2031C58.3496 19.2031 58.9388 19.1445 59.5117 19.0273C60.0846 18.9102 60.6771 18.7507 61.2891 18.5488V20.541C60.7096 20.7689 60.1237 20.9349 59.5312 21.0391C58.9388 21.1432 58.2552 21.1953 57.4805 21.1953C56.0221 21.1953 54.8112 20.8926 53.8477 20.2871C52.8906 19.6816 52.1745 18.8288 51.6992 17.7285C51.2305 16.6283 50.9961 15.3392 50.9961 13.8613C50.9961 12.7806 51.1458 11.791 51.4453 10.8926C51.7448 9.99414 52.181 9.2194 52.7539 8.56836C53.3268 7.91081 54.0332 7.40625 54.873 7.05469C55.7194 6.69661 56.6862 6.51758 57.7734 6.51758C58.4896 6.51758 59.1927 6.59896 59.8828 6.76172C60.5794 6.91797 61.224 7.14258 61.8164 7.43555L60.9961 9.36914C60.5013 9.13477 59.9837 8.93294 59.4434 8.76367C58.903 8.5944 58.3431 8.50977 57.7637 8.50977ZM68.4277 9.98438C69.3913 9.98438 70.2181 10.1829 70.9082 10.5801C71.5983 10.9772 72.1289 11.5404 72.5 12.2695C72.8711 12.9987 73.0566 13.8711 73.0566 14.8867V16.1172H65.8398C65.8659 17.1654 66.1458 17.9727 66.6797 18.5391C67.2201 19.1055 67.9753 19.3887 68.9453 19.3887C69.6354 19.3887 70.2539 19.3236 70.8008 19.1934C71.3542 19.0566 71.9238 18.8581 72.5098 18.5977V20.4629C71.9694 20.7168 71.4193 20.9023 70.8594 21.0195C70.2995 21.1367 69.6289 21.1953 68.8477 21.1953C67.7865 21.1953 66.8522 20.9902 66.0449 20.5801C65.2441 20.1634 64.6159 19.5449 64.1602 18.7246C63.7109 17.9043 63.4863 16.8854 63.4863 15.668C63.4863 14.457 63.6914 13.4284 64.1016 12.582C64.5117 11.7357 65.0879 11.0911 65.8301 10.6484C66.5723 10.2057 67.4382 9.98438 68.4277 9.98438ZM68.4277 11.7129C67.7051 11.7129 67.1191 11.9473 66.6699 12.416C66.2272 12.8848 65.9668 13.5716 65.8887 14.4766H70.8105C70.804 13.9362 70.7129 13.4577 70.5371 13.041C70.3678 12.6243 70.1074 12.2988 69.7559 12.0645C69.4108 11.8301 68.9681 11.7129 68.4277 11.7129ZM81.2793 9.98438C82.4967 9.98438 83.444 10.3001 84.1211 10.9316C84.8047 11.5566 85.1465 12.5625 85.1465 13.9492V21H82.8516V14.3789C82.8516 13.5391 82.679 12.9108 82.334 12.4941C81.9889 12.071 81.4551 11.8594 80.7324 11.8594C79.6842 11.8594 78.9551 12.1816 78.5449 12.8262C78.1413 13.4707 77.9395 14.4049 77.9395 15.6289V21H75.6445V10.1895H77.4316L77.7539 11.6543H77.8809C78.1152 11.2767 78.4049 10.9674 78.75 10.7266C79.1016 10.4792 79.4922 10.2936 79.9219 10.1699C80.3581 10.0462 80.8105 9.98438 81.2793 9.98438ZM92.3828 19.3398C92.6823 19.3398 92.9785 19.3138 93.2715 19.2617C93.5645 19.2031 93.8314 19.1348 94.0723 19.0566V20.7949C93.8184 20.9056 93.4896 21 93.0859 21.0781C92.6823 21.1562 92.2624 21.1953 91.8262 21.1953C91.2142 21.1953 90.6641 21.0944 90.1758 20.8926C89.6875 20.6842 89.3001 20.3294 89.0137 19.8281C88.7272 19.3268 88.584 18.6335 88.584 17.748V11.9375H87.1094V10.9121L88.6914 10.1016L89.4434 7.78711H90.8887V10.1895H93.9844V11.9375H90.8887V17.7188C90.8887 18.2656 91.0254 18.6725 91.2988 18.9395C91.5723 19.2064 91.9336 19.3398 92.3828 19.3398ZM101.748 9.98438C101.93 9.98438 102.129 9.99414 102.344 10.0137C102.559 10.0332 102.744 10.0592 102.9 10.0918L102.686 12.2402C102.549 12.2012 102.38 12.1719 102.178 12.1523C101.982 12.1328 101.807 12.123 101.65 12.123C101.24 12.123 100.85 12.1914 100.479 12.3281C100.107 12.4583 99.7786 12.6602 99.4922 12.9336C99.2057 13.2005 98.9811 13.5358 98.8184 13.9395C98.6556 14.3431 98.5742 14.8118 98.5742 15.3457V21H96.2695V10.1895H98.0664L98.3789 12.0938H98.4863C98.7012 11.7096 98.9681 11.3581 99.2871 11.0391C99.6061 10.7201 99.9707 10.4661 100.381 10.2773C100.798 10.082 101.253 9.98438 101.748 9.98438ZM109.209 9.98438C110.173 9.98438 110.999 10.1829 111.689 10.5801C112.38 10.9772 112.91 11.5404 113.281 12.2695C113.652 12.9987 113.838 13.8711 113.838 14.8867V16.1172H106.621C106.647 17.1654 106.927 17.9727 107.461 18.5391C108.001 19.1055 108.757 19.3887 109.727 19.3887C110.417 19.3887 111.035 19.3236 111.582 19.1934C112.135 19.0566 112.705 18.8581 113.291 18.5977V20.4629C112.751 20.7168 112.201 20.9023 111.641 21.0195C111.081 21.1367 110.41 21.1953 109.629 21.1953C108.568 21.1953 107.633 20.9902 106.826 20.5801C106.025 20.1634 105.397 19.5449 104.941 18.7246C104.492 17.9043 104.268 16.8854 104.268 15.668C104.268 14.457 104.473 13.4284 104.883 12.582C105.293 11.7357 105.869 11.0911 106.611 10.6484C107.354 10.2057 108.219 9.98438 109.209 9.98438ZM109.209 11.7129C108.486 11.7129 107.9 11.9473 107.451 12.416C107.008 12.8848 106.748 13.5716 106.67 14.4766H111.592C111.585 13.9362 111.494 13.4577 111.318 13.041C111.149 12.6243 110.889 12.2988 110.537 12.0645C110.192 11.8301 109.749 11.7129 109.209 11.7129Z" fill="white"/>
<path d="M8.8125 60.9062C8.8125 62.0625 8.41667 62.9531 7.625 63.5781C6.83854 64.1979 5.71094 64.5078 4.24219 64.5078H2.89844V69H1.57031V57.5781H4.53125C7.38542 57.5781 8.8125 58.6875 8.8125 60.9062ZM2.89844 63.3672H4.09375C5.27083 63.3672 6.1224 63.1771 6.64844 62.7969C7.17448 62.4167 7.4375 61.8073 7.4375 60.9688C7.4375 60.2135 7.1901 59.651 6.69531 59.2812C6.20052 58.9115 5.42969 58.7266 4.38281 58.7266H2.89844V63.3672ZM16.6012 69L16.3434 67.7812H16.2809C15.8539 68.3177 15.4268 68.6823 14.9997 68.875C14.5778 69.0625 14.0492 69.1562 13.4137 69.1562C12.5648 69.1562 11.8981 68.9375 11.4137 68.5C10.9346 68.0625 10.695 67.4401 10.695 66.6328C10.695 64.9036 12.0778 63.9974 14.8434 63.9141L16.2966 63.8672V63.3359C16.2966 62.6641 16.1507 62.1693 15.8591 61.8516C15.5726 61.5286 15.1117 61.3672 14.4762 61.3672C13.7627 61.3672 12.9554 61.5859 12.0544 62.0234L11.6559 61.0312C12.0778 60.8021 12.5387 60.6224 13.0387 60.4922C13.544 60.362 14.0492 60.2969 14.5544 60.2969C15.5752 60.2969 16.3304 60.5234 16.82 60.9766C17.3148 61.4297 17.5622 62.1562 17.5622 63.1562V69H16.6012ZM13.6716 68.0859C14.4789 68.0859 15.1117 67.8646 15.57 67.4219C16.0335 66.9792 16.2653 66.3594 16.2653 65.5625V64.7891L14.9684 64.8438C13.9372 64.8802 13.1924 65.0417 12.7341 65.3281C12.2809 65.6094 12.0544 66.0495 12.0544 66.6484C12.0544 67.1172 12.195 67.474 12.4762 67.7188C12.7627 67.9635 13.1611 68.0859 13.6716 68.0859ZM19.2025 60.4375H20.5931L22.4681 65.3203C22.8796 66.4349 23.1348 67.2396 23.2337 67.7344H23.2962C23.364 67.4688 23.5046 67.0156 23.7181 66.375C23.9369 65.7292 24.6452 63.75 25.8431 60.4375H27.2337L23.5541 70.1875C23.1895 71.151 22.7624 71.8333 22.2728 72.2344C21.7884 72.6406 21.1921 72.8438 20.4837 72.8438C20.0879 72.8438 19.6973 72.7995 19.3119 72.7109V71.6719C19.5983 71.7344 19.9186 71.7656 20.2728 71.7656C21.1634 71.7656 21.7989 71.2656 22.1791 70.2656L22.6556 69.0469L19.2025 60.4375ZM39.8584 69V63.4297C39.8584 62.7474 39.7126 62.237 39.4209 61.8984C39.1293 61.5547 38.6761 61.3828 38.0616 61.3828C37.2543 61.3828 36.6579 61.6146 36.2725 62.0781C35.8871 62.5417 35.6944 63.2552 35.6944 64.2188V69H34.3975V63.4297C34.3975 62.7474 34.2517 62.237 33.96 61.8984C33.6683 61.5547 33.2126 61.3828 32.5928 61.3828C31.7803 61.3828 31.184 61.6276 30.8037 62.1172C30.4287 62.6016 30.2412 63.3984 30.2412 64.5078V69H28.9444V60.4375H29.9991L30.21 61.6094H30.2725C30.5173 61.1927 30.861 60.8672 31.3037 60.6328C31.7517 60.3984 32.2517 60.2812 32.8037 60.2812C34.1423 60.2812 35.0173 60.7656 35.4287 61.7344H35.4912C35.7465 61.2865 36.1162 60.9323 36.6006 60.6719C37.085 60.4115 37.6371 60.2812 38.2569 60.2812C39.2256 60.2812 39.9496 60.5312 40.4287 61.0312C40.9131 61.526 41.1553 62.3203 41.1553 63.4141V69H39.8584ZM47.7722 69.1562C46.5066 69.1562 45.5066 68.7708 44.7722 68C44.043 67.2292 43.6784 66.1589 43.6784 64.7891C43.6784 63.4089 44.017 62.3125 44.6941 61.5C45.3764 60.6875 46.2904 60.2812 47.4362 60.2812C48.5092 60.2812 49.3581 60.6354 49.9831 61.3438C50.6081 62.0469 50.9206 62.9766 50.9206 64.1328V64.9531H45.0222C45.0482 65.9583 45.3008 66.7214 45.78 67.2422C46.2644 67.763 46.9441 68.0234 47.8191 68.0234C48.7409 68.0234 49.6524 67.8307 50.5534 67.4453V68.6016C50.0951 68.7995 49.6602 68.9401 49.2487 69.0234C48.8425 69.112 48.3503 69.1562 47.7722 69.1562ZM47.4206 61.3672C46.7331 61.3672 46.1836 61.5911 45.7722 62.0391C45.3659 62.487 45.1264 63.1068 45.0534 63.8984H49.53C49.53 63.0807 49.3477 62.4557 48.9831 62.0234C48.6185 61.5859 48.0977 61.3672 47.4206 61.3672ZM59.3187 69V63.4609C59.3187 62.763 59.1599 62.2422 58.8422 61.8984C58.5245 61.5547 58.0271 61.3828 57.35 61.3828C56.4542 61.3828 55.7979 61.625 55.3812 62.1094C54.9646 62.5938 54.7562 63.3932 54.7562 64.5078V69H53.4594V60.4375H54.5141L54.725 61.6094H54.7875C55.0531 61.1875 55.4255 60.862 55.9047 60.6328C56.3839 60.3984 56.9177 60.2812 57.5062 60.2812C58.5375 60.2812 59.3135 60.5312 59.8344 61.0312C60.3552 61.526 60.6156 62.3203 60.6156 63.4141V69H59.3187ZM66.3731 68.0859C66.6023 68.0859 66.8236 68.0703 67.0372 68.0391C67.2507 68.0026 67.42 67.9661 67.545 67.9297V68.9219C67.4044 68.9896 67.196 69.0443 66.92 69.0859C66.6492 69.1328 66.4044 69.1562 66.1856 69.1562C64.5294 69.1562 63.7012 68.2839 63.7012 66.5391V61.4453H62.4747V60.8203L63.7012 60.2812L64.2481 58.4531H64.9981V60.4375H67.4825V61.4453H64.9981V66.4844C64.9981 67 65.1205 67.3958 65.3653 67.6719C65.6101 67.9479 65.946 68.0859 66.3731 68.0859ZM75.1072 66.6641C75.1072 67.4609 74.8103 68.0755 74.2166 68.5078C73.6228 68.9401 72.7895 69.1562 71.7166 69.1562C70.5811 69.1562 69.6957 68.9766 69.0603 68.6172V67.4141C69.4718 67.6224 69.9119 67.7865 70.3806 67.9062C70.8546 68.026 71.3103 68.0859 71.7478 68.0859C72.4249 68.0859 72.9457 67.9792 73.3103 67.7656C73.6749 67.5469 73.8572 67.2161 73.8572 66.7734C73.8572 66.4401 73.7114 66.1562 73.4197 65.9219C73.1332 65.6823 72.5707 65.401 71.7322 65.0781C70.9353 64.7812 70.3676 64.5234 70.0291 64.3047C69.6957 64.0807 69.4457 63.8281 69.2791 63.5469C69.1176 63.2656 69.0369 62.9297 69.0369 62.5391C69.0369 61.8411 69.3207 61.2917 69.8884 60.8906C70.4561 60.4844 71.2348 60.2812 72.2244 60.2812C73.1462 60.2812 74.0473 60.4688 74.9275 60.8438L74.4666 61.8984C73.6072 61.5443 72.8285 61.3672 72.1306 61.3672C71.516 61.3672 71.0525 61.4635 70.74 61.6562C70.4275 61.849 70.2712 62.1146 70.2712 62.4531C70.2712 62.6823 70.3285 62.8776 70.4431 63.0391C70.5629 63.2005 70.753 63.3542 71.0134 63.5C71.2739 63.6458 71.7739 63.8568 72.5134 64.1328C73.5291 64.5026 74.214 64.875 74.5681 65.25C74.9275 65.625 75.1072 66.0964 75.1072 66.6641ZM8.01562 99.9609C8.01562 100.966 7.65104 101.75 6.92188 102.312C6.19271 102.875 5.20312 103.156 3.95312 103.156C2.59896 103.156 1.55729 102.982 0.828125 102.633V101.352C1.29688 101.549 1.80729 101.706 2.35938 101.82C2.91146 101.935 3.45833 101.992 4 101.992C4.88542 101.992 5.55208 101.826 6 101.492C6.44792 101.154 6.67188 100.685 6.67188 100.086C6.67188 99.6901 6.59115 99.3672 6.42969 99.1172C6.27344 98.862 6.00781 98.6276 5.63281 98.4141C5.26302 98.2005 4.69792 97.9583 3.9375 97.6875C2.875 97.3073 2.11458 96.8568 1.65625 96.3359C1.20312 95.8151 0.976562 95.1354 0.976562 94.2969C0.976562 93.4167 1.30729 92.7161 1.96875 92.1953C2.63021 91.6745 3.50521 91.4141 4.59375 91.4141C5.72917 91.4141 6.77344 91.6224 7.72656 92.0391L7.3125 93.1953C6.36979 92.7995 5.45312 92.6016 4.5625 92.6016C3.85938 92.6016 3.3099 92.7526 2.91406 93.0547C2.51823 93.3568 2.32031 93.776 2.32031 94.3125C2.32031 94.7083 2.39323 95.0339 2.53906 95.2891C2.6849 95.5391 2.92969 95.7708 3.27344 95.9844C3.6224 96.1927 4.15365 96.4245 4.86719 96.6797C6.0651 97.1068 6.88802 97.5651 7.33594 98.0547C7.78906 98.5443 8.01562 99.1797 8.01562 99.9609ZM16.3356 103V97.4609C16.3356 96.763 16.1768 96.2422 15.8591 95.8984C15.5414 95.5547 15.044 95.3828 14.3669 95.3828C13.4658 95.3828 12.807 95.6276 12.3903 96.1172C11.9789 96.6068 11.7731 97.4089 11.7731 98.5234V103H10.4762V90.8438H11.7731V94.5234C11.7731 94.9661 11.7523 95.3333 11.7106 95.625H11.7887C12.044 95.2135 12.4059 94.8906 12.8747 94.6562C13.3486 94.4167 13.8877 94.2969 14.4919 94.2969C15.5387 94.2969 16.3226 94.5469 16.8434 95.0469C17.3695 95.5417 17.6325 96.3307 17.6325 97.4141V103H16.3356ZM21.9212 103H20.6244V94.4375H21.9212V103ZM20.515 92.1172C20.515 91.8203 20.5879 91.6042 20.7337 91.4688C20.8796 91.3281 21.0619 91.2578 21.2806 91.2578C21.489 91.2578 21.6686 91.3281 21.8197 91.4688C21.9707 91.6094 22.0462 91.8255 22.0462 92.1172C22.0462 92.4089 21.9707 92.6276 21.8197 92.7734C21.6686 92.9141 21.489 92.9844 21.2806 92.9844C21.0619 92.9844 20.8796 92.9141 20.7337 92.7734C20.5879 92.6276 20.515 92.4089 20.515 92.1172ZM28.9756 103.156C28.4183 103.156 27.9079 103.055 27.4444 102.852C26.986 102.643 26.6006 102.326 26.2881 101.898H26.1944C26.2569 102.398 26.2881 102.872 26.2881 103.32V106.844H24.9912V94.4375H26.0459L26.2256 95.6094H26.2881C26.6215 95.1406 27.0095 94.8021 27.4522 94.5938C27.8949 94.3854 28.4027 94.2812 28.9756 94.2812C30.111 94.2812 30.986 94.6693 31.6006 95.4453C32.2204 96.2214 32.5303 97.3099 32.5303 98.7109C32.5303 100.117 32.2152 101.211 31.585 101.992C30.96 102.768 30.0902 103.156 28.9756 103.156ZM28.7881 95.3828C27.9131 95.3828 27.2803 95.625 26.8897 96.1094C26.4991 96.5938 26.2985 97.3646 26.2881 98.4219V98.7109C26.2881 99.9141 26.4886 100.776 26.8897 101.297C27.2907 101.812 27.934 102.07 28.8194 102.07C29.559 102.07 30.1371 101.771 30.5537 101.172C30.9756 100.573 31.1866 99.7474 31.1866 98.6953C31.1866 97.6276 30.9756 96.8099 30.5537 96.2422C30.1371 95.6693 29.5485 95.3828 28.7881 95.3828ZM39.1081 103.156C38.5508 103.156 38.0404 103.055 37.5769 102.852C37.1185 102.643 36.7331 102.326 36.4206 101.898H36.3269C36.3894 102.398 36.4206 102.872 36.4206 103.32V106.844H35.1237V94.4375H36.1784L36.3581 95.6094H36.4206C36.754 95.1406 37.142 94.8021 37.5847 94.5938C38.0274 94.3854 38.5352 94.2812 39.1081 94.2812C40.2435 94.2812 41.1185 94.6693 41.7331 95.4453C42.3529 96.2214 42.6628 97.3099 42.6628 98.7109C42.6628 100.117 42.3477 101.211 41.7175 101.992C41.0925 102.768 40.2227 103.156 39.1081 103.156ZM38.9206 95.3828C38.0456 95.3828 37.4128 95.625 37.0222 96.1094C36.6316 96.5938 36.431 97.3646 36.4206 98.4219V98.7109C36.4206 99.9141 36.6211 100.776 37.0222 101.297C37.4232 101.812 38.0665 102.07 38.9519 102.07C39.6915 102.07 40.2696 101.771 40.6862 101.172C41.1081 100.573 41.3191 99.7474 41.3191 98.6953C41.3191 97.6276 41.1081 96.8099 40.6862 96.2422C40.2696 95.6693 39.681 95.3828 38.9206 95.3828ZM46.5531 103H45.2562V94.4375H46.5531V103ZM45.1469 92.1172C45.1469 91.8203 45.2198 91.6042 45.3656 91.4688C45.5115 91.3281 45.6937 91.2578 45.9125 91.2578C46.1208 91.2578 46.3005 91.3281 46.4516 91.4688C46.6026 91.6094 46.6781 91.8255 46.6781 92.1172C46.6781 92.4089 46.6026 92.6276 46.4516 92.7734C46.3005 92.9141 46.1208 92.9844 45.9125 92.9844C45.6937 92.9844 45.5115 92.9141 45.3656 92.7734C45.2198 92.6276 45.1469 92.4089 45.1469 92.1172ZM55.4825 103V97.4609C55.4825 96.763 55.3236 96.2422 55.0059 95.8984C54.6882 95.5547 54.1908 95.3828 53.5137 95.3828C52.6179 95.3828 51.9617 95.625 51.545 96.1094C51.1283 96.5938 50.92 97.3932 50.92 98.5078V103H49.6231V94.4375H50.6778L50.8887 95.6094H50.9512C51.2169 95.1875 51.5893 94.862 52.0684 94.6328C52.5476 94.3984 53.0815 94.2812 53.67 94.2812C54.7012 94.2812 55.4773 94.5312 55.9981 95.0312C56.519 95.526 56.7794 96.3203 56.7794 97.4141V103H55.4825ZM66.7791 94.4375V95.2578L65.1931 95.4453C65.339 95.6276 65.4692 95.8672 65.5838 96.1641C65.6983 96.4557 65.7556 96.7865 65.7556 97.1562C65.7556 97.9948 65.4692 98.6641 64.8963 99.1641C64.3233 99.6641 63.5369 99.9141 62.5369 99.9141C62.2817 99.9141 62.0421 99.8932 61.8181 99.8516C61.266 100.143 60.99 100.51 60.99 100.953C60.99 101.188 61.0864 101.362 61.2791 101.477C61.4718 101.586 61.8025 101.641 62.2713 101.641H63.7869C64.714 101.641 65.4249 101.836 65.9197 102.227C66.4197 102.617 66.6697 103.185 66.6697 103.93C66.6697 104.878 66.2895 105.599 65.5291 106.094C64.7686 106.594 63.6593 106.844 62.2009 106.844C61.0811 106.844 60.2166 106.635 59.6072 106.219C59.003 105.802 58.7009 105.214 58.7009 104.453C58.7009 103.932 58.8676 103.482 59.2009 103.102C59.5343 102.721 60.003 102.464 60.6072 102.328C60.3884 102.229 60.2035 102.076 60.0525 101.867C59.9067 101.659 59.8338 101.417 59.8338 101.141C59.8338 100.828 59.9171 100.555 60.0838 100.32C60.2504 100.086 60.5134 99.8594 60.8728 99.6406C60.4301 99.4583 60.0681 99.1484 59.7869 98.7109C59.5108 98.2734 59.3728 97.7734 59.3728 97.2109C59.3728 96.2734 59.6541 95.5521 60.2166 95.0469C60.7791 94.5365 61.5759 94.2812 62.6072 94.2812C63.0551 94.2812 63.4588 94.3333 63.8181 94.4375H66.7791ZM59.9509 104.438C59.9509 104.901 60.1463 105.253 60.5369 105.492C60.9275 105.732 61.4874 105.852 62.2166 105.852C63.3051 105.852 64.1098 105.688 64.6306 105.359C65.1567 105.036 65.4197 104.596 65.4197 104.039C65.4197 103.576 65.2765 103.253 64.99 103.07C64.7035 102.893 64.1645 102.805 63.3728 102.805H61.8181C61.2296 102.805 60.7713 102.945 60.4431 103.227C60.115 103.508 59.9509 103.911 59.9509 104.438ZM60.6541 97.1797C60.6541 97.7786 60.8233 98.2318 61.1619 98.5391C61.5004 98.8464 61.9718 99 62.5759 99C63.8416 99 64.4744 98.3854 64.4744 97.1562C64.4744 95.8698 63.8338 95.2266 62.5525 95.2266C61.9431 95.2266 61.4744 95.3906 61.1463 95.7188C60.8181 96.0469 60.6541 96.5339 60.6541 97.1797ZM8.8125 128.906C8.8125 130.062 8.41667 130.953 7.625 131.578C6.83854 132.198 5.71094 132.508 4.24219 132.508H2.89844V137H1.57031V125.578H4.53125C7.38542 125.578 8.8125 126.688 8.8125 128.906ZM2.89844 131.367H4.09375C5.27083 131.367 6.1224 131.177 6.64844 130.797C7.17448 130.417 7.4375 129.807 7.4375 128.969C7.4375 128.214 7.1901 127.651 6.69531 127.281C6.20052 126.911 5.42969 126.727 4.38281 126.727H2.89844V131.367ZM15.2419 128.281C15.6221 128.281 15.9632 128.312 16.2653 128.375L16.0856 129.578C15.7315 129.5 15.419 129.461 15.1481 129.461C14.4554 129.461 13.8617 129.742 13.3669 130.305C12.8773 130.867 12.6325 131.568 12.6325 132.406V137H11.3356V128.438H12.4059L12.5544 130.023H12.6169C12.9346 129.466 13.3174 129.036 13.7653 128.734C14.2132 128.432 14.7054 128.281 15.2419 128.281ZM25.5775 132.711C25.5775 134.107 25.2259 135.198 24.5228 135.984C23.8197 136.766 22.8483 137.156 21.6087 137.156C20.8431 137.156 20.1634 136.977 19.5697 136.617C18.9759 136.258 18.5176 135.742 18.1947 135.07C17.8718 134.398 17.7103 133.612 17.7103 132.711C17.7103 131.315 18.0593 130.229 18.7572 129.453C19.4551 128.672 20.4239 128.281 21.6634 128.281C22.8614 128.281 23.8119 128.68 24.515 129.477C25.2233 130.273 25.5775 131.352 25.5775 132.711ZM19.0541 132.711C19.0541 133.805 19.2728 134.638 19.7103 135.211C20.1478 135.784 20.791 136.07 21.64 136.07C22.489 136.07 23.1322 135.786 23.5697 135.219C24.0124 134.646 24.2337 133.81 24.2337 132.711C24.2337 131.622 24.0124 130.797 23.5697 130.234C23.1322 129.667 22.4837 129.383 21.6244 129.383C20.7754 129.383 20.1348 129.661 19.7025 130.219C19.2702 130.776 19.0541 131.607 19.0541 132.711ZM34.0069 135.852H33.9366C33.3376 136.721 32.4418 137.156 31.2491 137.156C30.1293 137.156 29.2569 136.773 28.6319 136.008C28.0121 135.242 27.7022 134.154 27.7022 132.742C27.7022 131.331 28.0147 130.234 28.6397 129.453C29.2647 128.672 30.1345 128.281 31.2491 128.281C32.4105 128.281 33.3011 128.703 33.9209 129.547H34.0225L33.9678 128.93L33.9366 128.328V124.844H35.2334V137H34.1787L34.0069 135.852ZM31.4131 136.07C32.2985 136.07 32.9392 135.831 33.335 135.352C33.736 134.867 33.9366 134.089 33.9366 133.016V132.742C33.9366 131.529 33.7334 130.664 33.3272 130.148C32.9261 129.628 32.2829 129.367 31.3975 129.367C30.6371 129.367 30.0537 129.664 29.6475 130.258C29.2465 130.846 29.0459 131.68 29.0459 132.758C29.0459 133.852 29.2465 134.677 29.6475 135.234C30.0485 135.792 30.6371 136.07 31.4131 136.07ZM39.53 128.438V133.992C39.53 134.69 39.6889 135.211 40.0066 135.555C40.3243 135.898 40.8217 136.07 41.4987 136.07C42.3946 136.07 43.0482 135.826 43.4597 135.336C43.8764 134.846 44.0847 134.047 44.0847 132.938V128.438H45.3816V137H44.3112L44.1237 135.852H44.0534C43.7878 136.273 43.418 136.596 42.9441 136.82C42.4753 137.044 41.9389 137.156 41.3347 137.156C40.293 137.156 39.5118 136.909 38.9909 136.414C38.4753 135.919 38.2175 135.128 38.2175 134.039V128.438H39.53ZM51.8812 137.156C50.6417 137.156 49.6807 136.776 48.9984 136.016C48.3214 135.25 47.9828 134.169 47.9828 132.773C47.9828 131.341 48.3266 130.234 49.0141 129.453C49.7068 128.672 50.6911 128.281 51.9672 128.281C52.3786 128.281 52.7901 128.326 53.2016 128.414C53.613 128.503 53.9359 128.607 54.1703 128.727L53.7719 129.828C53.4854 129.714 53.1729 129.62 52.8344 129.547C52.4958 129.469 52.1964 129.43 51.9359 129.43C50.1964 129.43 49.3266 130.539 49.3266 132.758C49.3266 133.81 49.5375 134.617 49.9594 135.18C50.3865 135.742 51.0167 136.023 51.85 136.023C52.5635 136.023 53.2953 135.87 54.0453 135.562V136.711C53.4724 137.008 52.751 137.156 51.8812 137.156ZM59.17 136.086C59.3992 136.086 59.6205 136.07 59.8341 136.039C60.0476 136.003 60.2169 135.966 60.3419 135.93V136.922C60.2012 136.99 59.9929 137.044 59.7169 137.086C59.446 137.133 59.2012 137.156 58.9825 137.156C57.3262 137.156 56.4981 136.284 56.4981 134.539V129.445H55.2716V128.82L56.4981 128.281L57.045 126.453H57.795V128.438H60.2794V129.445H57.795V134.484C57.795 135 57.9174 135.396 58.1622 135.672C58.407 135.948 58.7429 136.086 59.17 136.086ZM2.89844 166.25V171H1.57031V159.578H4.70312C6.10417 159.578 7.13802 159.846 7.80469 160.383C8.47656 160.919 8.8125 161.727 8.8125 162.805C8.8125 164.315 8.04688 165.336 6.51562 165.867L9.61719 171H8.04688L5.28125 166.25H2.89844ZM2.89844 165.109H4.71875C5.65625 165.109 6.34375 164.924 6.78125 164.555C7.21875 164.18 7.4375 163.62 7.4375 162.875C7.4375 162.12 7.21354 161.576 6.76562 161.242C6.32292 160.909 5.60938 160.742 4.625 160.742H2.89844V165.109ZM15.2028 171.156C13.9372 171.156 12.9372 170.771 12.2028 170C11.4736 169.229 11.1091 168.159 11.1091 166.789C11.1091 165.409 11.4476 164.312 12.1247 163.5C12.807 162.688 13.721 162.281 14.8669 162.281C15.9398 162.281 16.7887 162.635 17.4137 163.344C18.0387 164.047 18.3512 164.977 18.3512 166.133V166.953H12.4528C12.4789 167.958 12.7315 168.721 13.2106 169.242C13.695 169.763 14.3747 170.023 15.2497 170.023C16.1716 170.023 17.083 169.831 17.9841 169.445V170.602C17.5257 170.799 17.0908 170.94 16.6794 171.023C16.2731 171.112 15.7809 171.156 15.2028 171.156ZM14.8512 163.367C14.1637 163.367 13.6143 163.591 13.2028 164.039C12.7966 164.487 12.557 165.107 12.4841 165.898H16.9606C16.9606 165.081 16.7783 164.456 16.4137 164.023C16.0492 163.586 15.5283 163.367 14.8512 163.367ZM23.6556 170.086C23.8848 170.086 24.1061 170.07 24.3197 170.039C24.5332 170.003 24.7025 169.966 24.8275 169.93V170.922C24.6869 170.99 24.4785 171.044 24.2025 171.086C23.9317 171.133 23.6869 171.156 23.4681 171.156C21.8119 171.156 20.9837 170.284 20.9837 168.539V163.445H19.7572V162.82L20.9837 162.281L21.5306 160.453H22.2806V162.438H24.765V163.445H22.2806V168.484C22.2806 169 22.403 169.396 22.6478 169.672C22.8926 169.948 23.2285 170.086 23.6556 170.086ZM28.085 162.438V167.992C28.085 168.69 28.2439 169.211 28.5616 169.555C28.8793 169.898 29.3767 170.07 30.0537 170.07C30.9496 170.07 31.6032 169.826 32.0147 169.336C32.4314 168.846 32.6397 168.047 32.6397 166.938V162.438H33.9366V171H32.8662L32.6787 169.852H32.6084C32.3428 170.273 31.973 170.596 31.4991 170.82C31.0303 171.044 30.4939 171.156 29.8897 171.156C28.848 171.156 28.0668 170.909 27.5459 170.414C27.0303 169.919 26.7725 169.128 26.7725 168.039V162.438H28.085ZM40.9206 162.281C41.3008 162.281 41.642 162.312 41.9441 162.375L41.7644 163.578C41.4102 163.5 41.0977 163.461 40.8269 163.461C40.1342 163.461 39.5404 163.742 39.0456 164.305C38.556 164.867 38.3112 165.568 38.3112 166.406V171H37.0144V162.438H38.0847L38.2331 164.023H38.2956C38.6133 163.466 38.9961 163.036 39.4441 162.734C39.892 162.432 40.3842 162.281 40.9206 162.281ZM49.725 171V165.461C49.725 164.763 49.5661 164.242 49.2484 163.898C48.9307 163.555 48.4333 163.383 47.7562 163.383C46.8604 163.383 46.2042 163.625 45.7875 164.109C45.3708 164.594 45.1625 165.393 45.1625 166.508V171H43.8656V162.438H44.9203L45.1312 163.609H45.1937C45.4594 163.188 45.8318 162.862 46.3109 162.633C46.7901 162.398 47.324 162.281 47.9125 162.281C48.9437 162.281 49.7198 162.531 50.2406 163.031C50.7615 163.526 51.0219 164.32 51.0219 165.414V171H49.725ZM59.5372 168.664C59.5372 169.461 59.2403 170.076 58.6466 170.508C58.0528 170.94 57.2195 171.156 56.1466 171.156C55.0111 171.156 54.1257 170.977 53.4903 170.617V169.414C53.9018 169.622 54.3419 169.786 54.8106 169.906C55.2846 170.026 55.7403 170.086 56.1778 170.086C56.8549 170.086 57.3757 169.979 57.7403 169.766C58.1049 169.547 58.2872 169.216 58.2872 168.773C58.2872 168.44 58.1414 168.156 57.8497 167.922C57.5632 167.682 57.0007 167.401 56.1622 167.078C55.3653 166.781 54.7976 166.523 54.4591 166.305C54.1257 166.081 53.8757 165.828 53.7091 165.547C53.5476 165.266 53.4669 164.93 53.4669 164.539C53.4669 163.841 53.7507 163.292 54.3184 162.891C54.8861 162.484 55.6648 162.281 56.6544 162.281C57.5762 162.281 58.4773 162.469 59.3575 162.844L58.8966 163.898C58.0372 163.544 57.2585 163.367 56.5606 163.367C55.946 163.367 55.4825 163.464 55.17 163.656C54.8575 163.849 54.7012 164.115 54.7012 164.453C54.7012 164.682 54.7585 164.878 54.8731 165.039C54.9929 165.201 55.183 165.354 55.4434 165.5C55.7039 165.646 56.2039 165.857 56.9434 166.133C57.9591 166.503 58.644 166.875 58.9981 167.25C59.3575 167.625 59.5372 168.096 59.5372 168.664ZM2.89844 205H1.57031V193.578H7.9375V194.758H2.89844V198.938H7.63281V200.117H2.89844V205ZM17.3356 205L15.9137 201.367H11.3356L9.92937 205H8.58562L13.1012 193.531H14.2184L18.7106 205H17.3356ZM15.4997 200.172L14.1716 196.633C13.9997 196.185 13.8226 195.635 13.6403 194.984C13.5257 195.484 13.3617 196.034 13.1481 196.633L11.8044 200.172H15.4997ZM30.515 199.273C30.515 200.737 30.2207 201.953 29.6322 202.922C29.0436 203.891 28.2129 204.547 27.14 204.891L29.8587 207.719H27.9291L25.7025 205.141L25.2728 205.156C23.5905 205.156 22.291 204.643 21.3744 203.617C20.4629 202.586 20.0072 201.133 20.0072 199.258C20.0072 197.398 20.4655 195.958 21.3822 194.938C22.2989 193.911 23.6009 193.398 25.2884 193.398C26.9291 193.398 28.2103 193.919 29.1322 194.961C30.0541 196.003 30.515 197.44 30.515 199.273ZM21.4134 199.273C21.4134 200.82 21.7416 201.995 22.3978 202.797C23.0593 203.594 24.0176 203.992 25.2728 203.992C26.5384 203.992 27.4942 203.594 28.14 202.797C28.7858 202 29.1087 200.826 29.1087 199.273C29.1087 197.737 28.7858 196.573 28.14 195.781C27.4994 194.984 26.5489 194.586 25.2884 194.586C24.0228 194.586 23.0593 194.987 22.3978 195.789C21.7416 196.586 21.4134 197.747 21.4134 199.273ZM38.7178 202.664C38.7178 203.461 38.4209 204.076 37.8272 204.508C37.2334 204.94 36.4001 205.156 35.3272 205.156C34.1918 205.156 33.3064 204.977 32.6709 204.617V203.414C33.0824 203.622 33.5225 203.786 33.9912 203.906C34.4652 204.026 34.9209 204.086 35.3584 204.086C36.0355 204.086 36.5564 203.979 36.9209 203.766C37.2855 203.547 37.4678 203.216 37.4678 202.773C37.4678 202.44 37.322 202.156 37.0303 201.922C36.7439 201.682 36.1814 201.401 35.3428 201.078C34.5459 200.781 33.9782 200.523 33.6397 200.305C33.3064 200.081 33.0564 199.828 32.8897 199.547C32.7282 199.266 32.6475 198.93 32.6475 198.539C32.6475 197.841 32.9314 197.292 33.4991 196.891C34.0668 196.484 34.8454 196.281 35.835 196.281C36.7569 196.281 37.6579 196.469 38.5381 196.844L38.0772 197.898C37.2178 197.544 36.4392 197.367 35.7412 197.367C35.1267 197.367 34.6631 197.464 34.3506 197.656C34.0381 197.849 33.8819 198.115 33.8819 198.453C33.8819 198.682 33.9392 198.878 34.0537 199.039C34.1735 199.201 34.3636 199.354 34.6241 199.5C34.8845 199.646 35.3845 199.857 36.1241 200.133C37.1397 200.503 37.8246 200.875 38.1787 201.25C38.5381 201.625 38.7178 202.096 38.7178 202.664ZM6.46094 228.602C5.20573 228.602 4.21354 229.021 3.48438 229.859C2.76042 230.693 2.39844 231.836 2.39844 233.289C2.39844 234.784 2.7474 235.94 3.44531 236.758C4.14844 237.57 5.14844 237.977 6.44531 237.977C7.24219 237.977 8.15104 237.833 9.17188 237.547V238.711C8.38021 239.008 7.40365 239.156 6.24219 239.156C4.5599 239.156 3.26042 238.646 2.34375 237.625C1.43229 236.604 0.976562 235.154 0.976562 233.273C0.976562 232.096 1.19531 231.065 1.63281 230.18C2.07552 229.294 2.71094 228.612 3.53906 228.133C4.3724 227.654 5.35156 227.414 6.47656 227.414C7.67448 227.414 8.72135 227.633 9.61719 228.07L9.05469 229.211C8.1901 228.805 7.32552 228.602 6.46094 228.602ZM17.6481 239V233.461C17.6481 232.763 17.4893 232.242 17.1716 231.898C16.8539 231.555 16.3565 231.383 15.6794 231.383C14.7783 231.383 14.1195 231.628 13.7028 232.117C13.2914 232.607 13.0856 233.409 13.0856 234.523V239H11.7887V226.844H13.0856V230.523C13.0856 230.966 13.0648 231.333 13.0231 231.625H13.1012C13.3565 231.214 13.7184 230.891 14.1872 230.656C14.6611 230.417 15.2002 230.297 15.8044 230.297C16.8512 230.297 17.6351 230.547 18.1559 231.047C18.682 231.542 18.945 232.331 18.945 233.414V239H17.6481ZM25.5541 239.156C24.2884 239.156 23.2884 238.771 22.5541 238C21.8249 237.229 21.4603 236.159 21.4603 234.789C21.4603 233.409 21.7989 232.312 22.4759 231.5C23.1582 230.688 24.0723 230.281 25.2181 230.281C26.291 230.281 27.14 230.635 27.765 231.344C28.39 232.047 28.7025 232.977 28.7025 234.133V234.953H22.8041C22.8301 235.958 23.0827 236.721 23.5619 237.242C24.0462 237.763 24.7259 238.023 25.6009 238.023C26.5228 238.023 27.4343 237.831 28.3353 237.445V238.602C27.877 238.799 27.4421 238.94 27.0306 239.023C26.6244 239.112 26.1322 239.156 25.5541 239.156ZM25.2025 231.367C24.515 231.367 23.9655 231.591 23.5541 232.039C23.1478 232.487 22.9082 233.107 22.8353 233.898H27.3119C27.3119 233.081 27.1296 232.456 26.765 232.023C26.4004 231.586 25.8796 231.367 25.2025 231.367ZM34.6631 239.156C33.4235 239.156 32.4626 238.776 31.7803 238.016C31.1032 237.25 30.7647 236.169 30.7647 234.773C30.7647 233.341 31.1084 232.234 31.7959 231.453C32.4886 230.672 33.473 230.281 34.7491 230.281C35.1605 230.281 35.572 230.326 35.9834 230.414C36.3949 230.503 36.7178 230.607 36.9522 230.727L36.5537 231.828C36.2673 231.714 35.9548 231.62 35.6162 231.547C35.2777 231.469 34.9782 231.43 34.7178 231.43C32.9782 231.43 32.1084 232.539 32.1084 234.758C32.1084 235.81 32.3194 236.617 32.7412 237.18C33.1683 237.742 33.7985 238.023 34.6319 238.023C35.3454 238.023 36.0772 237.87 36.8272 237.562V238.711C36.2543 239.008 35.5329 239.156 34.6631 239.156ZM40.4675 234.617C40.6915 234.299 41.0326 233.883 41.4909 233.367L44.2566 230.438H45.7956L42.3269 234.086L46.0378 239H44.4675L41.4441 234.953L40.4675 235.797V239H39.1862V226.844H40.4675V233.289C40.4675 233.576 40.4467 234.018 40.405 234.617H40.4675ZM55.3031 234.711C55.3031 236.107 54.9516 237.198 54.2484 237.984C53.5453 238.766 52.574 239.156 51.3344 239.156C50.5687 239.156 49.8891 238.977 49.2953 238.617C48.7016 238.258 48.2432 237.742 47.9203 237.07C47.5974 236.398 47.4359 235.612 47.4359 234.711C47.4359 233.315 47.7849 232.229 48.4828 231.453C49.1807 230.672 50.1495 230.281 51.3891 230.281C52.587 230.281 53.5375 230.68 54.2406 231.477C54.949 232.273 55.3031 233.352 55.3031 234.711ZM48.7797 234.711C48.7797 235.805 48.9984 236.638 49.4359 237.211C49.8734 237.784 50.5167 238.07 51.3656 238.07C52.2146 238.07 52.8578 237.786 53.2953 237.219C53.738 236.646 53.9594 235.81 53.9594 234.711C53.9594 233.622 53.738 232.797 53.2953 232.234C52.8578 231.667 52.2094 231.383 51.35 231.383C50.501 231.383 49.8604 231.661 49.4281 232.219C48.9958 232.776 48.7797 233.607 48.7797 234.711ZM59.1231 230.438V235.992C59.1231 236.69 59.282 237.211 59.5997 237.555C59.9174 237.898 60.4148 238.07 61.0919 238.07C61.9877 238.07 62.6414 237.826 63.0528 237.336C63.4695 236.846 63.6778 236.047 63.6778 234.938V230.438H64.9747V239H63.9044L63.7169 237.852H63.6466C63.3809 238.273 63.0111 238.596 62.5372 238.82C62.0684 239.044 61.532 239.156 60.9278 239.156C59.8861 239.156 59.1049 238.909 58.5841 238.414C58.0684 237.919 57.8106 237.128 57.8106 236.039V230.438H59.1231ZM70.8181 238.086C71.0473 238.086 71.2686 238.07 71.4822 238.039C71.6957 238.003 71.865 237.966 71.99 237.93V238.922C71.8494 238.99 71.641 239.044 71.365 239.086C71.0942 239.133 70.8494 239.156 70.6306 239.156C68.9744 239.156 68.1462 238.284 68.1462 236.539V231.445H66.9197V230.82L68.1462 230.281L68.6931 228.453H69.4431V230.438H71.9275V231.445H69.4431V236.484C69.4431 237 69.5655 237.396 69.8103 237.672C70.0551 237.948 70.391 238.086 70.8181 238.086ZM11.4844 267.273C11.4844 269.102 11.0208 270.539 10.0938 271.586C9.17188 272.633 7.88802 273.156 6.24219 273.156C4.5599 273.156 3.26042 272.643 2.34375 271.617C1.43229 270.586 0.976562 269.133 0.976562 267.258C0.976562 265.398 1.4349 263.958 2.35156 262.938C3.26823 261.911 4.57031 261.398 6.25781 261.398C7.89844 261.398 9.17969 261.919 10.1016 262.961C11.0234 264.003 11.4844 265.44 11.4844 267.273ZM2.38281 267.273C2.38281 268.82 2.71094 269.995 3.36719 270.797C4.02865 271.594 4.98698 271.992 6.24219 271.992C7.50781 271.992 8.46354 271.594 9.10938 270.797C9.75521 270 10.0781 268.826 10.0781 267.273C10.0781 265.737 9.75521 264.573 9.10938 263.781C8.46875 262.984 7.51823 262.586 6.25781 262.586C4.99219 262.586 4.02865 262.987 3.36719 263.789C2.71094 264.586 2.38281 265.747 2.38281 267.273ZM16.9294 272.086C17.1585 272.086 17.3799 272.07 17.5934 272.039C17.807 272.003 17.9762 271.966 18.1012 271.93V272.922C17.9606 272.99 17.7523 273.044 17.4762 273.086C17.2054 273.133 16.9606 273.156 16.7419 273.156C15.0856 273.156 14.2575 272.284 14.2575 270.539V265.445H13.0309V264.82L14.2575 264.281L14.8044 262.453H15.5544V264.438H18.0387V265.445H15.5544V270.484C15.5544 271 15.6768 271.396 15.9216 271.672C16.1664 271.948 16.5023 272.086 16.9294 272.086ZM25.9994 273V267.461C25.9994 266.763 25.8405 266.242 25.5228 265.898C25.2051 265.555 24.7077 265.383 24.0306 265.383C23.1296 265.383 22.4707 265.628 22.0541 266.117C21.6426 266.607 21.4369 267.409 21.4369 268.523V273H20.14V260.844H21.4369V264.523C21.4369 264.966 21.416 265.333 21.3744 265.625H21.4525C21.7077 265.214 22.0697 264.891 22.5384 264.656C23.0124 264.417 23.5515 264.297 24.1556 264.297C25.2025 264.297 25.9864 264.547 26.5072 265.047C27.0332 265.542 27.2962 266.331 27.2962 267.414V273H25.9994ZM33.9053 273.156C32.6397 273.156 31.6397 272.771 30.9053 272C30.1761 271.229 29.8116 270.159 29.8116 268.789C29.8116 267.409 30.1501 266.312 30.8272 265.5C31.5095 264.688 32.4235 264.281 33.5694 264.281C34.6423 264.281 35.4912 264.635 36.1162 265.344C36.7412 266.047 37.0537 266.977 37.0537 268.133V268.953H31.1553C31.1814 269.958 31.434 270.721 31.9131 271.242C32.3975 271.763 33.0772 272.023 33.9522 272.023C34.8741 272.023 35.7855 271.831 36.6866 271.445V272.602C36.2282 272.799 35.7933 272.94 35.3819 273.023C34.9756 273.112 34.4834 273.156 33.9053 273.156ZM33.5537 265.367C32.8662 265.367 32.3168 265.591 31.9053 266.039C31.4991 266.487 31.2595 267.107 31.1866 267.898H35.6631C35.6631 267.081 35.4808 266.456 35.1162 266.023C34.7517 265.586 34.2308 265.367 33.5537 265.367ZM43.4987 264.281C43.879 264.281 44.2201 264.312 44.5222 264.375L44.3425 265.578C43.9883 265.5 43.6758 265.461 43.405 265.461C42.7123 265.461 42.1185 265.742 41.6237 266.305C41.1342 266.867 40.8894 267.568 40.8894 268.406V273H39.5925V264.438H40.6628L40.8112 266.023H40.8737C41.1915 265.466 41.5743 265.036 42.0222 264.734C42.4701 264.432 42.9623 264.281 43.4987 264.281ZM51.1153 273V261.578H52.4434V273H51.1153ZM61.2322 270.664C61.2322 271.461 60.9353 272.076 60.3416 272.508C59.7478 272.94 58.9145 273.156 57.8416 273.156C56.7061 273.156 55.8207 272.977 55.1853 272.617V271.414C55.5968 271.622 56.0369 271.786 56.5056 271.906C56.9796 272.026 57.4353 272.086 57.8728 272.086C58.5499 272.086 59.0707 271.979 59.4353 271.766C59.7999 271.547 59.9822 271.216 59.9822 270.773C59.9822 270.44 59.8364 270.156 59.5447 269.922C59.2582 269.682 58.6957 269.401 57.8572 269.078C57.0603 268.781 56.4926 268.523 56.1541 268.305C55.8207 268.081 55.5707 267.828 55.4041 267.547C55.2426 267.266 55.1619 266.93 55.1619 266.539C55.1619 265.841 55.4457 265.292 56.0134 264.891C56.5811 264.484 57.3598 264.281 58.3494 264.281C59.2713 264.281 60.1723 264.469 61.0525 264.844L60.5916 265.898C59.7322 265.544 58.9535 265.367 58.2556 265.367C57.641 265.367 57.1775 265.464 56.865 265.656C56.5525 265.849 56.3963 266.115 56.3963 266.453C56.3963 266.682 56.4535 266.878 56.5681 267.039C56.6879 267.201 56.878 267.354 57.1384 267.5C57.3989 267.646 57.8989 267.857 58.6384 268.133C59.6541 268.503 60.339 268.875 60.6931 269.25C61.0525 269.625 61.2322 270.096 61.2322 270.664ZM69.1928 270.664C69.1928 271.461 68.8959 272.076 68.3022 272.508C67.7084 272.94 66.8751 273.156 65.8022 273.156C64.6668 273.156 63.7814 272.977 63.1459 272.617V271.414C63.5574 271.622 63.9975 271.786 64.4663 271.906C64.9402 272.026 65.3959 272.086 65.8334 272.086C66.5105 272.086 67.0314 271.979 67.3959 271.766C67.7605 271.547 67.9428 271.216 67.9428 270.773C67.9428 270.44 67.797 270.156 67.5053 269.922C67.2189 269.682 66.6564 269.401 65.8178 269.078C65.0209 268.781 64.4532 268.523 64.1147 268.305C63.7814 268.081 63.5314 267.828 63.3647 267.547C63.2032 267.266 63.1225 266.93 63.1225 266.539C63.1225 265.841 63.4064 265.292 63.9741 264.891C64.5418 264.484 65.3204 264.281 66.31 264.281C67.2319 264.281 68.1329 264.469 69.0131 264.844L68.5522 265.898C67.6928 265.544 66.9142 265.367 66.2163 265.367C65.6017 265.367 65.1381 265.464 64.8256 265.656C64.5131 265.849 64.3569 266.115 64.3569 266.453C64.3569 266.682 64.4142 266.878 64.5288 267.039C64.6485 267.201 64.8386 267.354 65.0991 267.5C65.3595 267.646 65.8595 267.857 66.5991 268.133C67.6147 268.503 68.2996 268.875 68.6538 269.25C69.0131 269.625 69.1928 270.096 69.1928 270.664ZM72.8487 264.438V269.992C72.8487 270.69 73.0076 271.211 73.3253 271.555C73.643 271.898 74.1404 272.07 74.8175 272.07C75.7133 272.07 76.367 271.826 76.7784 271.336C77.1951 270.846 77.4034 270.047 77.4034 268.938V264.438H78.7003V273H77.63L77.4425 271.852H77.3722C77.1066 272.273 76.7368 272.596 76.2628 272.82C75.7941 273.044 75.2576 273.156 74.6534 273.156C73.6118 273.156 72.8305 272.909 72.3097 272.414C71.7941 271.919 71.5362 271.128 71.5362 270.039V264.438H72.8487ZM85.3953 273.156C84.1297 273.156 83.1297 272.771 82.3953 272C81.6661 271.229 81.3016 270.159 81.3016 268.789C81.3016 267.409 81.6401 266.312 82.3172 265.5C82.9995 264.688 83.9135 264.281 85.0594 264.281C86.1323 264.281 86.9812 264.635 87.6062 265.344C88.2312 266.047 88.5437 266.977 88.5437 268.133V268.953H82.6453C82.6714 269.958 82.924 270.721 83.4031 271.242C83.8875 271.763 84.5672 272.023 85.4422 272.023C86.3641 272.023 87.2755 271.831 88.1766 271.445V272.602C87.7182 272.799 87.2833 272.94 86.8719 273.023C86.4656 273.112 85.9734 273.156 85.3953 273.156ZM85.0437 265.367C84.3562 265.367 83.8068 265.591 83.3953 266.039C82.9891 266.487 82.7495 267.107 82.6766 267.898H87.1531C87.1531 267.081 86.9708 266.456 86.6062 266.023C86.2417 265.586 85.7208 265.367 85.0437 265.367ZM96.6059 270.664C96.6059 271.461 96.3091 272.076 95.7153 272.508C95.1216 272.94 94.2882 273.156 93.2153 273.156C92.0799 273.156 91.1945 272.977 90.5591 272.617V271.414C90.9705 271.622 91.4106 271.786 91.8794 271.906C92.3533 272.026 92.8091 272.086 93.2466 272.086C93.9236 272.086 94.4445 271.979 94.8091 271.766C95.1736 271.547 95.3559 271.216 95.3559 270.773C95.3559 270.44 95.2101 270.156 94.9184 269.922C94.632 269.682 94.0695 269.401 93.2309 269.078C92.4341 268.781 91.8664 268.523 91.5278 268.305C91.1945 268.081 90.9445 267.828 90.7778 267.547C90.6164 267.266 90.5356 266.93 90.5356 266.539C90.5356 265.841 90.8195 265.292 91.3872 264.891C91.9549 264.484 92.7335 264.281 93.7231 264.281C94.645 264.281 95.546 264.469 96.4262 264.844L95.9653 265.898C95.1059 265.544 94.3273 265.367 93.6294 265.367C93.0148 265.367 92.5512 265.464 92.2387 265.656C91.9262 265.849 91.77 266.115 91.77 266.453C91.77 266.682 91.8273 266.878 91.9419 267.039C92.0617 267.201 92.2518 267.354 92.5122 267.5C92.7726 267.646 93.2726 267.857 94.0122 268.133C95.0278 268.503 95.7127 268.875 96.0669 269.25C96.4262 269.625 96.6059 270.096 96.6059 270.664Z" fill="#A1A1A1"/>
</svg>
