<svg width="48" height="48" viewBox="0 0 48 48" fill="none" xmlns="http://www.w3.org/2000/svg">
<rect x="11.25" y="15" width="20" height="21" rx="8" fill="#FFC43F"/>
<rect x="27.25" y="28" width="12" height="13" rx="6" fill="#FFF73F"/>
<rect x="28.25" y="21" width="10" height="11" rx="5" fill="#FFF73F"/>
<rect x="24.25" y="27" width="8" height="9" rx="4" fill="#FFF73F"/>
<path fill-rule="evenodd" clip-rule="evenodd" d="M18.88 7.56604C19.1452 7.56604 19.3996 7.6714 19.5871 7.85893C19.7746 8.04647 19.88 8.30082 19.88 8.56604V15.166C19.88 15.4313 19.7746 15.6856 19.5871 15.8731C19.3996 16.0607 19.1452 16.166 18.88 16.166C18.6148 16.166 18.3604 16.0607 18.1729 15.8731C17.9854 15.6856 17.88 15.4313 17.88 15.166V8.56604C17.88 8.30082 17.9854 8.04647 18.1729 7.85893C18.3604 7.6714 18.6148 7.56604 18.88 7.56604Z" fill="#254E16"/>
<path fill-rule="evenodd" clip-rule="evenodd" d="M11.78 13.905C12.91 13.635 14.063 13.84 15.26 14.458C16.235 14.963 16.927 15.194 17.466 15.305C18.004 15.417 18.432 15.419 18.949 15.419V17.419H18.929C18.413 17.419 17.809 17.419 17.061 17.264C16.304 17.107 15.439 16.802 14.341 16.234C13.463 15.781 12.801 15.717 12.245 15.85C11.661 15.99 11.044 16.38 10.333 17.114C8.70103 18.802 8.19403 20.54 8.01703 21.876C7.91703 23.52 8.21403 26.766 9.68503 29.939C10.185 31.019 10.895 32.509 11.761 33.676C12.193 34.258 12.627 34.706 13.044 34.982C13.449 35.249 13.785 35.322 14.09 35.27C17.213 34.732 17.8 34.719 18.409 34.719H19.446V36.719H18.38C17.958 36.719 17.46 36.719 14.43 37.241C13.49 37.403 12.643 37.114 11.942 36.651C11.253 36.196 10.658 35.545 10.155 34.868C9.15003 33.515 8.36403 31.844 7.87103 30.78C6.23303 27.248 5.89903 23.643 6.02303 21.716L6.02603 21.684L6.03003 21.652C6.24203 20.008 6.87403 17.813 8.89603 15.724C9.74103 14.85 10.679 14.168 11.781 13.904" fill="#254E16"/>
<path fill-rule="evenodd" clip-rule="evenodd" d="M14.64 11.41C16.136 12.841 16.947 14.576 16.947 15.92C16.947 16.1852 17.0524 16.4396 17.2399 16.6271C17.4274 16.8146 17.6818 16.92 17.947 16.92C18.2122 16.92 18.4666 16.8146 18.6541 16.6271C18.8416 16.4396 18.947 16.1852 18.947 15.92C18.947 13.87 17.779 11.645 16.022 9.964C14.244 8.265 11.743 7 8.896 7C8.63078 7 8.37643 7.10536 8.18889 7.29289C8.00135 7.48043 7.896 7.73478 7.896 8C7.896 8.26522 8.00135 8.51957 8.18889 8.70711C8.37643 8.89464 8.63078 9 8.896 9C11.14 9 13.164 9.999 14.639 11.41" fill="#254E16"/>
<path fill-rule="evenodd" clip-rule="evenodd" d="M8.57406 7.00903C8.83714 6.97622 9.10248 7.04923 9.31175 7.21199C9.52103 7.37476 9.6571 7.61397 9.69006 7.87703C10.1821 11.807 13.6351 13.877 16.4241 14.992C16.6703 15.0906 16.8673 15.2829 16.9718 15.5267C17.0763 15.7705 17.0796 16.0458 16.9811 16.292C16.8825 16.5383 16.6902 16.7353 16.4464 16.8398C16.2026 16.9442 15.9273 16.9476 15.6811 16.849C12.8121 15.702 8.34606 13.245 7.70606 8.12503C7.67325 7.86195 7.74625 7.59661 7.90902 7.38734C8.07178 7.17806 8.31099 7.04199 8.57406 7.00903ZM25.7621 13.903C24.6101 13.639 23.4281 13.837 22.1921 14.451C21.1721 14.957 20.4451 15.191 19.8751 15.304C19.3051 15.417 18.8531 15.419 18.3151 15.419C18.0498 15.419 17.7955 15.5244 17.6079 15.7119C17.4204 15.8995 17.3151 16.1538 17.3151 16.419C17.3151 16.6843 17.4204 16.9386 17.6079 17.1261C17.7955 17.3137 18.0498 17.419 18.3151 17.419H18.3341C18.8711 17.419 19.4941 17.419 20.2641 17.266C21.0451 17.111 21.9401 16.808 23.0801 16.242C24.0041 15.784 24.7121 15.714 25.3161 15.852C25.9421 15.996 26.5931 16.394 27.3331 17.129C29.0491 18.832 29.5681 20.581 29.7471 21.913C29.7859 22.1727 29.9254 22.4067 30.1353 22.5645C30.3452 22.7222 30.6088 22.791 30.8691 22.7561C31.1293 22.7212 31.3654 22.5853 31.5263 22.3778C31.6872 22.1703 31.76 21.9078 31.7291 21.647C31.5071 19.994 30.8451 17.797 28.7421 15.709C27.8611 14.835 26.8921 14.161 25.7621 13.903ZM26.7071 34.28C26.6124 34.189 26.5008 34.1174 26.3785 34.0695C26.2563 34.0215 26.1258 33.9982 25.9945 34.0007C25.8632 34.0032 25.7336 34.0315 25.6133 34.0841C25.4929 34.1367 25.3841 34.2124 25.2931 34.307C24.5361 35.093 23.9001 35.357 23.3621 35.269C20.1101 34.731 19.5021 34.719 18.8771 34.719C18.6118 34.719 18.3575 34.8244 18.1699 35.0119C17.9824 35.1995 17.8771 35.4538 17.8771 35.719C17.8771 35.9843 17.9824 36.2386 18.1699 36.4261C18.3575 36.6137 18.6118 36.719 18.8771 36.719H18.9051C19.3521 36.719 19.8721 36.719 23.0351 37.242C24.5571 37.494 25.8201 36.643 26.7341 35.694C26.8253 35.5994 26.897 35.4877 26.945 35.3653C26.993 35.243 27.0164 35.1124 27.0139 34.9809C27.0114 34.8495 26.983 34.7199 26.9304 34.5994C26.8777 34.479 26.8018 34.3711 26.7071 34.28Z" fill="#254E16"/>
<path fill-rule="evenodd" clip-rule="evenodd" d="M32.65 16.103C31.647 17.913 31.387 19.812 31.786 21.095C31.825 21.2204 31.8389 21.3523 31.827 21.4831C31.815 21.6138 31.7774 21.741 31.7163 21.8573C31.6552 21.9735 31.5718 22.0766 31.4709 22.1606C31.3699 22.2447 31.2534 22.308 31.128 22.347C31.0026 22.386 30.8707 22.3999 30.7399 22.3879C30.6092 22.376 30.482 22.3384 30.3657 22.2773C30.2495 22.2162 30.1464 22.1328 30.0624 22.0318C29.9783 21.9309 29.915 21.8144 29.876 21.689C29.267 19.73 29.723 17.259 30.901 15.133C32.094 12.981 34.107 11.032 36.826 10.186C36.9514 10.147 37.0833 10.1331 37.2141 10.145C37.3449 10.157 37.472 10.1946 37.5883 10.2557C37.7045 10.3168 37.8076 10.4002 37.8917 10.5011C37.9757 10.6021 38.039 10.7186 38.078 10.844C38.117 10.9694 38.1309 11.1013 38.119 11.2321C38.107 11.3628 38.0694 11.49 38.0083 11.6063C37.9472 11.7225 37.8638 11.8256 37.7629 11.9096C37.6619 11.9937 37.5454 12.057 37.42 12.096C35.277 12.762 33.64 14.318 32.65 16.103Z" fill="#254E16"/>
<path fill-rule="evenodd" clip-rule="evenodd" d="M34.719 17.379C33.551 19.089 31.971 20.172 30.646 20.392C30.5148 20.4116 30.3888 20.4571 30.2754 20.5258C30.1619 20.5945 30.0633 20.6851 29.9852 20.7923C29.9071 20.8996 29.8511 21.0212 29.8205 21.1503C29.7898 21.2794 29.7852 21.4132 29.8068 21.5441C29.8285 21.675 29.8759 21.8003 29.9464 21.9126C30.0169 22.025 30.1091 22.1222 30.2175 22.1986C30.326 22.275 30.4485 22.3291 30.578 22.3576C30.7076 22.3862 30.8415 22.3887 30.972 22.365C32.995 22.03 34.999 20.514 36.37 18.507C37.758 16.475 38.597 13.801 38.132 10.992C38.1106 10.8624 38.0639 10.7383 37.9945 10.6267C37.9251 10.5152 37.8345 10.4184 37.7277 10.3419C37.6209 10.2653 37.5001 10.2106 37.3721 10.1808C37.2442 10.151 37.1116 10.1466 36.982 10.168C36.8524 10.1894 36.7283 10.2362 36.6167 10.3055C36.5052 10.3749 36.4084 10.4656 36.3318 10.5724C36.2553 10.6792 36.2006 10.8 36.1708 10.9279C36.1409 11.0559 36.1366 11.1884 36.158 11.318C36.525 13.532 35.87 15.693 34.718 17.378" fill="#254E16"/>
<path fill-rule="evenodd" clip-rule="evenodd" d="M31.78 23C31.117 23 30.4811 23.2634 30.0123 23.7322C29.5434 24.2011 29.28 24.837 29.28 25.5C29.28 26.163 29.5434 26.7989 30.0123 27.2678C30.4811 27.7366 31.117 28 31.78 28C32.4431 28 33.079 27.7366 33.5478 27.2678C34.0166 26.7989 34.28 26.163 34.28 25.5C34.28 24.837 34.0166 24.2011 33.5478 23.7322C33.079 23.2634 32.4431 23 31.78 23ZM27.28 25.5C27.28 24.9091 27.3964 24.3239 27.6226 23.7779C27.8487 23.232 28.1802 22.7359 28.598 22.318C29.0159 21.9002 29.512 21.5687 30.058 21.3425C30.6039 21.1164 31.1891 21 31.78 21C32.371 21 32.9561 21.1164 33.5021 21.3425C34.0481 21.5687 34.5441 21.9002 34.962 22.318C35.3799 22.7359 35.7113 23.232 35.9375 23.7779C36.1636 24.3239 36.28 24.9091 36.28 25.5C36.28 26.6935 35.8059 27.8381 34.962 28.682C34.1181 29.5259 32.9735 30 31.78 30C30.5866 30 29.442 29.5259 28.598 28.682C27.7541 27.8381 27.28 26.6935 27.28 25.5Z" fill="#254E16"/>
<path fill-rule="evenodd" clip-rule="evenodd" d="M37.8451 18.0899C38.9684 18.493 39.8856 19.3257 40.3949 20.405C40.9042 21.4842 40.964 22.7216 40.5611 23.8449C40.5168 23.9686 40.4485 24.0823 40.3602 24.1795C40.272 24.2768 40.1654 24.3557 40.0467 24.4118C39.9279 24.4679 39.7992 24.5001 39.6681 24.5064C39.5369 24.5128 39.4057 24.4933 39.2821 24.4489C39.1584 24.4046 39.0447 24.3364 38.9475 24.2481C38.8502 24.1599 38.7713 24.0533 38.7152 23.9345C38.6591 23.8158 38.6269 23.6871 38.6206 23.5559C38.6142 23.4247 38.6338 23.2936 38.6781 23.1699C38.9022 22.5459 38.8692 21.8584 38.5864 21.2586C38.3036 20.6589 37.7941 20.196 37.1701 19.9719C36.546 19.7478 35.8585 19.7808 35.2588 20.0636C34.659 20.3464 34.1962 20.8559 33.9721 21.4799C33.8779 21.7233 33.6924 21.9202 33.4551 22.0287C33.2178 22.1371 32.9474 22.1485 32.7018 22.0604C32.4562 21.9723 32.2548 21.7917 32.1405 21.5572C32.0262 21.3226 32.0081 21.0527 32.0901 20.8049C32.4933 19.6818 33.3261 18.7649 34.4054 18.2557C35.4846 17.7466 36.7219 17.6869 37.8451 18.0899Z" fill="#254E16"/>
<path fill-rule="evenodd" clip-rule="evenodd" d="M36.253 23.176C37.2768 22.8824 38.3715 22.9613 39.3426 23.3987C40.3137 23.8361 41.0982 24.6037 41.5566 25.5651C42.0151 26.5264 42.1178 27.6191 41.8466 28.649C41.5753 29.679 40.9476 30.5793 40.075 31.19C39.9675 31.2684 39.8454 31.3244 39.7159 31.355C39.5864 31.3855 39.4522 31.3899 39.321 31.368C39.1897 31.346 39.0642 31.298 38.9518 31.2269C38.8394 31.1558 38.7422 31.063 38.6661 30.9538C38.59 30.8447 38.5364 30.7215 38.5085 30.5914C38.4806 30.4614 38.479 30.327 38.5036 30.1963C38.5283 30.0656 38.5788 29.9411 38.6522 29.8301C38.7256 29.7191 38.8204 29.6239 38.931 29.55C39.2062 29.3576 39.4398 29.1117 39.6179 28.8269C39.7959 28.5422 39.9148 28.2245 39.9674 27.8929C40.02 27.5612 40.0052 27.2223 39.924 26.8965C39.8428 26.5707 39.6967 26.2645 39.4945 25.9964C39.2924 25.7282 39.0383 25.5036 38.7474 25.3358C38.4565 25.168 38.1348 25.0605 37.8014 25.0198C37.4681 24.9791 37.13 25.0059 36.8072 25.0987C36.4845 25.1916 36.1838 25.3485 35.923 25.56C35.8211 25.6429 35.7039 25.7049 35.578 25.7425C35.4522 25.78 35.3201 25.7924 35.1895 25.7789C35.0588 25.7655 34.9321 25.7264 34.8166 25.664C34.701 25.6015 34.5989 25.517 34.516 25.415C34.4332 25.3131 34.3712 25.1959 34.3336 25.0701C34.2961 24.9442 34.2837 24.8122 34.2971 24.6815C34.3106 24.5509 34.3497 24.4241 34.4121 24.3086C34.4745 24.193 34.5591 24.0909 34.661 24.008C35.1304 23.6266 35.6718 23.3436 36.253 23.176ZM27.78 29C27.117 29 26.4811 29.2634 26.0123 29.7323C25.5434 30.2011 25.28 30.837 25.28 31.5C25.28 32.1631 25.5434 32.799 26.0123 33.2678C26.4811 33.7367 27.117 34 27.78 34C28.4431 34 29.079 33.7367 29.5478 33.2678C30.0166 32.799 30.28 32.1631 30.28 31.5C30.28 30.837 30.0166 30.2011 29.5478 29.7323C29.079 29.2634 28.4431 29 27.78 29ZM23.28 31.5C23.28 30.3066 23.7541 29.162 24.598 28.3181C25.442 27.4742 26.5866 27 27.78 27C28.9735 27 30.1181 27.4742 30.962 28.3181C31.8059 29.162 32.28 30.3066 32.28 31.5C32.28 32.6935 31.8059 33.8381 30.962 34.682C30.1181 35.5259 28.9735 36 27.78 36C26.5866 36 25.442 35.5259 24.598 34.682C23.7541 33.8381 23.28 32.6935 23.28 31.5Z" fill="#254E16"/>
<path fill-rule="evenodd" clip-rule="evenodd" d="M35.78 29C35.117 29 34.4811 29.2634 34.0123 29.7322C33.5434 30.2011 33.28 30.837 33.28 31.5C33.28 32.163 33.5434 32.7989 34.0123 33.2678C34.4811 33.7366 35.117 34 35.78 34C36.4431 34 37.079 33.7366 37.5478 33.2678C38.0166 32.7989 38.28 32.163 38.28 31.5C38.28 30.837 38.0166 30.2011 37.5478 29.7322C37.079 29.2634 36.4431 29 35.78 29ZM31.28 31.5C31.28 30.3065 31.7541 29.1619 32.598 28.318C33.442 27.4741 34.5866 27 35.78 27C36.9735 27 38.1181 27.4741 38.962 28.318C39.8059 29.1619 40.28 30.3065 40.28 31.5C40.28 32.6935 39.8059 33.8381 38.962 34.682C38.1181 35.5259 36.9735 36 35.78 36C34.5866 36 33.442 35.5259 32.598 34.682C31.7541 33.8381 31.28 32.6935 31.28 31.5Z" fill="#254E16"/>
<path fill-rule="evenodd" clip-rule="evenodd" d="M31.78 35C31.117 35 30.4811 35.2634 30.0123 35.7322C29.5434 36.2011 29.28 36.837 29.28 37.5C29.28 38.163 29.5434 38.7989 30.0123 39.2678C30.4811 39.7366 31.117 40 31.78 40C32.4431 40 33.079 39.7366 33.5478 39.2678C34.0166 38.7989 34.28 38.163 34.28 37.5C34.28 36.837 34.0166 36.2011 33.5478 35.7322C33.079 35.2634 32.4431 35 31.78 35ZM27.28 37.5C27.28 36.9091 27.3964 36.3239 27.6226 35.7779C27.8487 35.232 28.1802 34.7359 28.598 34.318C29.0159 33.9002 29.512 33.5687 30.058 33.3425C30.6039 33.1164 31.1891 33 31.78 33C32.371 33 32.9561 33.1164 33.5021 33.3425C34.0481 33.5687 34.5441 33.9002 34.962 34.318C35.3799 34.7359 35.7113 35.232 35.9375 35.7779C36.1636 36.3239 36.28 36.9091 36.28 37.5C36.28 38.6935 35.8059 39.8381 34.962 40.682C34.1181 41.5259 32.9735 42 31.78 42C30.5866 42 29.442 41.5259 28.598 40.682C27.7541 39.8381 27.28 38.6935 27.28 37.5Z" fill="#254E16"/>
<path fill-rule="evenodd" clip-rule="evenodd" d="M37.8341 33.966C37.8782 33.8423 37.9462 33.7285 38.0343 33.6311C38.1224 33.5337 38.2289 33.4546 38.3475 33.3983C38.4662 33.342 38.5948 33.3097 38.726 33.3031C38.8572 33.2966 38.9884 33.3159 39.1121 33.36C39.7465 33.5866 40.3219 33.9526 40.796 34.4312C41.27 34.9098 41.6306 35.4887 41.851 36.1253C42.0715 36.7618 42.1462 37.4397 42.0697 38.109C41.9932 38.7782 41.7675 39.4218 41.4091 39.9922C41.0507 40.5626 40.5688 41.0452 39.999 41.4045C39.4292 41.7638 38.7859 41.9905 38.1168 42.0681C37.4476 42.1456 36.7696 42.0719 36.1327 41.8525C35.4959 41.633 34.9164 41.2733 34.4371 40.8C34.3411 40.7084 34.2644 40.5985 34.2114 40.4769C34.1584 40.3553 34.1301 40.2243 34.1282 40.0916C34.1262 39.959 34.1507 39.8272 34.2002 39.7041C34.2497 39.581 34.3232 39.469 34.4165 39.3746C34.5097 39.2802 34.6208 39.2053 34.7432 39.1542C34.8657 39.1031 34.9971 39.077 35.1298 39.0772C35.2625 39.0774 35.3938 39.104 35.5161 39.1555C35.6383 39.207 35.7492 39.2823 35.8421 39.377C36.1083 39.64 36.4302 39.8398 36.784 39.9617C37.1378 40.0837 37.5144 40.1247 37.8862 40.0816C38.2579 40.0386 38.6152 39.9127 38.9318 39.7131C39.2484 39.5136 39.5161 39.2455 39.7153 38.9287C39.9144 38.6119 40.0399 38.2544 40.0825 37.8826C40.125 37.5108 40.0836 37.1342 39.9612 36.7806C39.8388 36.4269 39.6386 36.1053 39.3753 35.8394C39.1121 35.5734 38.7924 35.37 38.4401 35.244C38.3163 35.1999 38.2025 35.1319 38.1051 35.0438C38.0077 34.9557 37.9286 34.8493 37.8723 34.7306C37.8161 34.6119 37.7837 34.4833 37.7771 34.3521C37.7706 34.2209 37.7899 34.0897 37.8341 33.966Z" fill="#254E16"/>
</svg>
