<svg width="244" height="48" viewBox="0 0 244 48" fill="none" xmlns="http://www.w3.org/2000/svg">
<rect x="11.25" y="15" width="20" height="21" rx="8" fill="#FFC43F"/>
<rect x="27.25" y="28" width="12" height="13" rx="6" fill="#FFF73F"/>
<rect x="28.25" y="21" width="10" height="11" rx="5" fill="#FFF73F"/>
<rect x="24.25" y="27" width="8" height="9" rx="4" fill="#FFF73F"/>
<path fill-rule="evenodd" clip-rule="evenodd" d="M18.88 7.56604C19.1452 7.56604 19.3996 7.6714 19.5871 7.85893C19.7746 8.04647 19.88 8.30082 19.88 8.56604V15.166C19.88 15.4313 19.7746 15.6856 19.5871 15.8731C19.3996 16.0607 19.1452 16.166 18.88 16.166C18.6148 16.166 18.3604 16.0607 18.1729 15.8731C17.9854 15.6856 17.88 15.4313 17.88 15.166V8.56604C17.88 8.30082 17.9854 8.04647 18.1729 7.85893C18.3604 7.6714 18.6148 7.56604 18.88 7.56604Z" fill="#254E16"/>
<path fill-rule="evenodd" clip-rule="evenodd" d="M11.78 13.905C12.91 13.635 14.063 13.84 15.26 14.458C16.235 14.963 16.927 15.194 17.466 15.305C18.004 15.417 18.432 15.419 18.949 15.419V17.419H18.929C18.413 17.419 17.809 17.419 17.061 17.264C16.304 17.107 15.439 16.802 14.341 16.234C13.463 15.781 12.801 15.717 12.245 15.85C11.661 15.99 11.044 16.38 10.333 17.114C8.70103 18.802 8.19403 20.54 8.01703 21.876C7.91703 23.52 8.21403 26.766 9.68503 29.939C10.185 31.019 10.895 32.509 11.761 33.676C12.193 34.258 12.627 34.706 13.044 34.982C13.449 35.249 13.785 35.322 14.09 35.27C17.213 34.732 17.8 34.719 18.409 34.719H19.446V36.719H18.38C17.958 36.719 17.46 36.719 14.43 37.241C13.49 37.403 12.643 37.114 11.942 36.651C11.253 36.196 10.658 35.545 10.155 34.868C9.15003 33.515 8.36403 31.844 7.87103 30.78C6.23303 27.248 5.89903 23.643 6.02303 21.716L6.02603 21.684L6.03003 21.652C6.24203 20.008 6.87403 17.813 8.89603 15.724C9.74103 14.85 10.679 14.168 11.781 13.904" fill="#254E16"/>
<path fill-rule="evenodd" clip-rule="evenodd" d="M14.64 11.41C16.136 12.841 16.947 14.576 16.947 15.92C16.947 16.1852 17.0524 16.4396 17.2399 16.6271C17.4274 16.8146 17.6818 16.92 17.947 16.92C18.2122 16.92 18.4666 16.8146 18.6541 16.6271C18.8416 16.4396 18.947 16.1852 18.947 15.92C18.947 13.87 17.779 11.645 16.022 9.964C14.244 8.265 11.743 7 8.896 7C8.63078 7 8.37643 7.10536 8.18889 7.29289C8.00135 7.48043 7.896 7.73478 7.896 8C7.896 8.26522 8.00135 8.51957 8.18889 8.70711C8.37643 8.89464 8.63078 9 8.896 9C11.14 9 13.164 9.999 14.639 11.41" fill="#254E16"/>
<path fill-rule="evenodd" clip-rule="evenodd" d="M8.57406 7.00903C8.83714 6.97622 9.10248 7.04923 9.31175 7.21199C9.52103 7.37476 9.6571 7.61397 9.69006 7.87703C10.1821 11.807 13.6351 13.877 16.4241 14.992C16.6703 15.0906 16.8673 15.2829 16.9718 15.5267C17.0763 15.7705 17.0796 16.0458 16.9811 16.292C16.8825 16.5383 16.6902 16.7353 16.4464 16.8398C16.2026 16.9442 15.9273 16.9476 15.6811 16.849C12.8121 15.702 8.34606 13.245 7.70606 8.12503C7.67325 7.86195 7.74625 7.59661 7.90902 7.38734C8.07178 7.17806 8.31099 7.04199 8.57406 7.00903ZM25.7621 13.903C24.6101 13.639 23.4281 13.837 22.1921 14.451C21.1721 14.957 20.4451 15.191 19.8751 15.304C19.3051 15.417 18.8531 15.419 18.3151 15.419C18.0498 15.419 17.7955 15.5244 17.6079 15.7119C17.4204 15.8995 17.3151 16.1538 17.3151 16.419C17.3151 16.6843 17.4204 16.9386 17.6079 17.1261C17.7955 17.3137 18.0498 17.419 18.3151 17.419H18.3341C18.8711 17.419 19.4941 17.419 20.2641 17.266C21.0451 17.111 21.9401 16.808 23.0801 16.242C24.0041 15.784 24.7121 15.714 25.3161 15.852C25.9421 15.996 26.5931 16.394 27.3331 17.129C29.0491 18.832 29.5681 20.581 29.7471 21.913C29.7859 22.1727 29.9254 22.4067 30.1353 22.5645C30.3452 22.7222 30.6088 22.791 30.8691 22.7561C31.1293 22.7212 31.3654 22.5853 31.5263 22.3778C31.6872 22.1703 31.76 21.9078 31.7291 21.647C31.5071 19.994 30.8451 17.797 28.7421 15.709C27.8611 14.835 26.8921 14.161 25.7621 13.903ZM26.7071 34.28C26.6124 34.189 26.5008 34.1174 26.3785 34.0695C26.2563 34.0215 26.1258 33.9982 25.9945 34.0007C25.8632 34.0032 25.7336 34.0315 25.6133 34.0841C25.4929 34.1367 25.3841 34.2124 25.2931 34.307C24.5361 35.093 23.9001 35.357 23.3621 35.269C20.1101 34.731 19.5021 34.719 18.8771 34.719C18.6118 34.719 18.3575 34.8244 18.1699 35.0119C17.9824 35.1995 17.8771 35.4538 17.8771 35.719C17.8771 35.9843 17.9824 36.2386 18.1699 36.4261C18.3575 36.6137 18.6118 36.719 18.8771 36.719H18.9051C19.3521 36.719 19.8721 36.719 23.0351 37.242C24.5571 37.494 25.8201 36.643 26.7341 35.694C26.8253 35.5994 26.897 35.4877 26.945 35.3653C26.993 35.243 27.0164 35.1124 27.0139 34.9809C27.0114 34.8495 26.983 34.7199 26.9304 34.5994C26.8777 34.479 26.8018 34.3711 26.7071 34.28Z" fill="#254E16"/>
<path fill-rule="evenodd" clip-rule="evenodd" d="M32.65 16.103C31.647 17.913 31.387 19.812 31.786 21.095C31.825 21.2204 31.8389 21.3523 31.827 21.4831C31.815 21.6138 31.7774 21.741 31.7163 21.8573C31.6552 21.9735 31.5718 22.0766 31.4709 22.1606C31.3699 22.2447 31.2534 22.308 31.128 22.347C31.0026 22.386 30.8707 22.3999 30.7399 22.3879C30.6092 22.376 30.482 22.3384 30.3657 22.2773C30.2495 22.2162 30.1464 22.1328 30.0624 22.0318C29.9783 21.9309 29.915 21.8144 29.876 21.689C29.267 19.73 29.723 17.259 30.901 15.133C32.094 12.981 34.107 11.032 36.826 10.186C36.9514 10.147 37.0833 10.1331 37.2141 10.145C37.3449 10.157 37.472 10.1946 37.5883 10.2557C37.7045 10.3168 37.8076 10.4002 37.8917 10.5011C37.9757 10.6021 38.039 10.7186 38.078 10.844C38.117 10.9694 38.1309 11.1013 38.119 11.2321C38.107 11.3628 38.0694 11.49 38.0083 11.6063C37.9472 11.7225 37.8638 11.8256 37.7629 11.9096C37.6619 11.9937 37.5454 12.057 37.42 12.096C35.277 12.762 33.64 14.318 32.65 16.103Z" fill="#254E16"/>
<path fill-rule="evenodd" clip-rule="evenodd" d="M34.719 17.379C33.551 19.089 31.971 20.172 30.646 20.392C30.5148 20.4116 30.3888 20.4571 30.2754 20.5258C30.1619 20.5945 30.0633 20.6851 29.9852 20.7923C29.9071 20.8996 29.8511 21.0212 29.8205 21.1503C29.7898 21.2794 29.7852 21.4132 29.8068 21.5441C29.8285 21.675 29.8759 21.8003 29.9464 21.9126C30.0169 22.025 30.1091 22.1222 30.2175 22.1986C30.326 22.275 30.4485 22.3291 30.578 22.3576C30.7076 22.3862 30.8415 22.3887 30.972 22.365C32.995 22.03 34.999 20.514 36.37 18.507C37.758 16.475 38.597 13.801 38.132 10.992C38.1106 10.8624 38.0639 10.7383 37.9945 10.6267C37.9251 10.5152 37.8345 10.4184 37.7277 10.3419C37.6209 10.2653 37.5001 10.2106 37.3721 10.1808C37.2442 10.151 37.1116 10.1466 36.982 10.168C36.8524 10.1894 36.7283 10.2362 36.6167 10.3055C36.5052 10.3749 36.4084 10.4656 36.3318 10.5724C36.2553 10.6792 36.2006 10.8 36.1708 10.9279C36.1409 11.0559 36.1366 11.1884 36.158 11.318C36.525 13.532 35.87 15.693 34.718 17.378" fill="#254E16"/>
<path fill-rule="evenodd" clip-rule="evenodd" d="M31.78 23C31.117 23 30.4811 23.2634 30.0123 23.7322C29.5434 24.2011 29.28 24.837 29.28 25.5C29.28 26.163 29.5434 26.7989 30.0123 27.2678C30.4811 27.7366 31.117 28 31.78 28C32.4431 28 33.079 27.7366 33.5478 27.2678C34.0166 26.7989 34.28 26.163 34.28 25.5C34.28 24.837 34.0166 24.2011 33.5478 23.7322C33.079 23.2634 32.4431 23 31.78 23ZM27.28 25.5C27.28 24.9091 27.3964 24.3239 27.6226 23.7779C27.8487 23.232 28.1802 22.7359 28.598 22.318C29.0159 21.9002 29.512 21.5687 30.058 21.3425C30.6039 21.1164 31.1891 21 31.78 21C32.371 21 32.9561 21.1164 33.5021 21.3425C34.0481 21.5687 34.5441 21.9002 34.962 22.318C35.3799 22.7359 35.7113 23.232 35.9375 23.7779C36.1636 24.3239 36.28 24.9091 36.28 25.5C36.28 26.6935 35.8059 27.8381 34.962 28.682C34.1181 29.5259 32.9735 30 31.78 30C30.5866 30 29.442 29.5259 28.598 28.682C27.7541 27.8381 27.28 26.6935 27.28 25.5Z" fill="#254E16"/>
<path fill-rule="evenodd" clip-rule="evenodd" d="M37.8451 18.0899C38.9684 18.493 39.8856 19.3257 40.3949 20.405C40.9042 21.4842 40.964 22.7216 40.5611 23.8449C40.5168 23.9686 40.4485 24.0823 40.3602 24.1795C40.272 24.2768 40.1654 24.3557 40.0467 24.4118C39.9279 24.4679 39.7992 24.5001 39.6681 24.5064C39.5369 24.5128 39.4057 24.4933 39.2821 24.4489C39.1584 24.4046 39.0447 24.3364 38.9475 24.2481C38.8502 24.1599 38.7713 24.0533 38.7152 23.9345C38.6591 23.8158 38.6269 23.6871 38.6206 23.5559C38.6142 23.4247 38.6338 23.2936 38.6781 23.1699C38.9022 22.5459 38.8692 21.8584 38.5864 21.2586C38.3036 20.6589 37.7941 20.196 37.1701 19.9719C36.546 19.7478 35.8585 19.7808 35.2588 20.0636C34.659 20.3464 34.1962 20.8559 33.9721 21.4799C33.8779 21.7233 33.6924 21.9202 33.4551 22.0287C33.2178 22.1371 32.9474 22.1485 32.7018 22.0604C32.4562 21.9723 32.2548 21.7917 32.1405 21.5572C32.0262 21.3226 32.0081 21.0527 32.0901 20.8049C32.4933 19.6818 33.3261 18.7649 34.4054 18.2557C35.4846 17.7466 36.7219 17.6869 37.8451 18.0899Z" fill="#254E16"/>
<path fill-rule="evenodd" clip-rule="evenodd" d="M36.253 23.176C37.2768 22.8824 38.3715 22.9613 39.3426 23.3987C40.3137 23.8361 41.0982 24.6037 41.5566 25.5651C42.0151 26.5264 42.1178 27.6191 41.8466 28.649C41.5753 29.679 40.9476 30.5793 40.075 31.19C39.9675 31.2684 39.8454 31.3244 39.7159 31.355C39.5864 31.3855 39.4522 31.3899 39.321 31.368C39.1897 31.346 39.0642 31.298 38.9518 31.2269C38.8394 31.1558 38.7422 31.063 38.6661 30.9538C38.59 30.8447 38.5364 30.7215 38.5085 30.5914C38.4806 30.4614 38.479 30.327 38.5036 30.1963C38.5283 30.0656 38.5788 29.9411 38.6522 29.8301C38.7256 29.7191 38.8204 29.6239 38.931 29.55C39.2062 29.3576 39.4398 29.1117 39.6179 28.8269C39.7959 28.5422 39.9148 28.2245 39.9674 27.8929C40.02 27.5612 40.0052 27.2223 39.924 26.8965C39.8428 26.5707 39.6967 26.2645 39.4945 25.9964C39.2924 25.7282 39.0383 25.5036 38.7474 25.3358C38.4565 25.168 38.1348 25.0605 37.8014 25.0198C37.4681 24.9791 37.13 25.0059 36.8072 25.0987C36.4845 25.1916 36.1838 25.3485 35.923 25.56C35.8211 25.6429 35.7039 25.7049 35.578 25.7425C35.4522 25.78 35.3201 25.7924 35.1895 25.7789C35.0588 25.7655 34.9321 25.7264 34.8166 25.664C34.701 25.6015 34.5989 25.517 34.516 25.415C34.4332 25.3131 34.3712 25.1959 34.3336 25.0701C34.2961 24.9442 34.2837 24.8122 34.2971 24.6815C34.3106 24.5509 34.3497 24.4241 34.4121 24.3086C34.4745 24.193 34.5591 24.0909 34.661 24.008C35.1304 23.6266 35.6718 23.3436 36.253 23.176ZM27.78 29C27.117 29 26.4811 29.2634 26.0123 29.7323C25.5434 30.2011 25.28 30.837 25.28 31.5C25.28 32.1631 25.5434 32.799 26.0123 33.2678C26.4811 33.7367 27.117 34 27.78 34C28.4431 34 29.079 33.7367 29.5478 33.2678C30.0166 32.799 30.28 32.1631 30.28 31.5C30.28 30.837 30.0166 30.2011 29.5478 29.7323C29.079 29.2634 28.4431 29 27.78 29ZM23.28 31.5C23.28 30.3066 23.7541 29.162 24.598 28.3181C25.442 27.4742 26.5866 27 27.78 27C28.9735 27 30.1181 27.4742 30.962 28.3181C31.8059 29.162 32.28 30.3066 32.28 31.5C32.28 32.6935 31.8059 33.8381 30.962 34.682C30.1181 35.5259 28.9735 36 27.78 36C26.5866 36 25.442 35.5259 24.598 34.682C23.7541 33.8381 23.28 32.6935 23.28 31.5Z" fill="#254E16"/>
<path fill-rule="evenodd" clip-rule="evenodd" d="M35.78 29C35.117 29 34.4811 29.2634 34.0123 29.7322C33.5434 30.2011 33.28 30.837 33.28 31.5C33.28 32.163 33.5434 32.7989 34.0123 33.2678C34.4811 33.7366 35.117 34 35.78 34C36.4431 34 37.079 33.7366 37.5478 33.2678C38.0166 32.7989 38.28 32.163 38.28 31.5C38.28 30.837 38.0166 30.2011 37.5478 29.7322C37.079 29.2634 36.4431 29 35.78 29ZM31.28 31.5C31.28 30.3065 31.7541 29.1619 32.598 28.318C33.442 27.4741 34.5866 27 35.78 27C36.9735 27 38.1181 27.4741 38.962 28.318C39.8059 29.1619 40.28 30.3065 40.28 31.5C40.28 32.6935 39.8059 33.8381 38.962 34.682C38.1181 35.5259 36.9735 36 35.78 36C34.5866 36 33.442 35.5259 32.598 34.682C31.7541 33.8381 31.28 32.6935 31.28 31.5Z" fill="#254E16"/>
<path fill-rule="evenodd" clip-rule="evenodd" d="M31.78 35C31.117 35 30.4811 35.2634 30.0123 35.7322C29.5434 36.2011 29.28 36.837 29.28 37.5C29.28 38.163 29.5434 38.7989 30.0123 39.2678C30.4811 39.7366 31.117 40 31.78 40C32.4431 40 33.079 39.7366 33.5478 39.2678C34.0166 38.7989 34.28 38.163 34.28 37.5C34.28 36.837 34.0166 36.2011 33.5478 35.7322C33.079 35.2634 32.4431 35 31.78 35ZM27.28 37.5C27.28 36.9091 27.3964 36.3239 27.6226 35.7779C27.8487 35.232 28.1802 34.7359 28.598 34.318C29.0159 33.9002 29.512 33.5687 30.058 33.3425C30.6039 33.1164 31.1891 33 31.78 33C32.371 33 32.9561 33.1164 33.5021 33.3425C34.0481 33.5687 34.5441 33.9002 34.962 34.318C35.3799 34.7359 35.7113 35.232 35.9375 35.7779C36.1636 36.3239 36.28 36.9091 36.28 37.5C36.28 38.6935 35.8059 39.8381 34.962 40.682C34.1181 41.5259 32.9735 42 31.78 42C30.5866 42 29.442 41.5259 28.598 40.682C27.7541 39.8381 27.28 38.6935 27.28 37.5Z" fill="#254E16"/>
<path fill-rule="evenodd" clip-rule="evenodd" d="M37.8341 33.966C37.8782 33.8423 37.9462 33.7285 38.0343 33.6311C38.1224 33.5337 38.2289 33.4546 38.3475 33.3983C38.4662 33.342 38.5948 33.3097 38.726 33.3031C38.8572 33.2966 38.9884 33.3159 39.1121 33.36C39.7465 33.5866 40.3219 33.9526 40.796 34.4312C41.27 34.9098 41.6306 35.4887 41.851 36.1253C42.0715 36.7618 42.1462 37.4397 42.0697 38.109C41.9932 38.7782 41.7675 39.4218 41.4091 39.9922C41.0507 40.5626 40.5688 41.0452 39.999 41.4045C39.4292 41.7638 38.7859 41.9905 38.1168 42.0681C37.4476 42.1456 36.7696 42.0719 36.1327 41.8525C35.4959 41.633 34.9164 41.2733 34.4371 40.8C34.3411 40.7084 34.2644 40.5985 34.2114 40.4769C34.1584 40.3553 34.1301 40.2243 34.1282 40.0916C34.1262 39.959 34.1507 39.8272 34.2002 39.7041C34.2497 39.581 34.3232 39.469 34.4165 39.3746C34.5097 39.2802 34.6208 39.2053 34.7432 39.1542C34.8657 39.1031 34.9971 39.077 35.1298 39.0772C35.2625 39.0774 35.3938 39.104 35.5161 39.1555C35.6383 39.207 35.7492 39.2823 35.8421 39.377C36.1083 39.64 36.4302 39.8398 36.784 39.9617C37.1378 40.0837 37.5144 40.1247 37.8862 40.0816C38.2579 40.0386 38.6152 39.9127 38.9318 39.7131C39.2484 39.5136 39.5161 39.2455 39.7153 38.9287C39.9144 38.6119 40.0399 38.2544 40.0825 37.8826C40.125 37.5108 40.0836 37.1342 39.9612 36.7806C39.8388 36.4269 39.6386 36.1053 39.3753 35.8394C39.1121 35.5734 38.7924 35.37 38.4401 35.244C38.3163 35.1999 38.2025 35.1319 38.1051 35.0438C38.0077 34.9557 37.9286 34.8493 37.8723 34.7306C37.8161 34.6119 37.7837 34.4833 37.7771 34.3521C37.7706 34.2209 37.7899 34.0897 37.8341 33.966Z" fill="#254E16"/>
<path d="M67.4922 10.3359C67.4141 11.5599 67.3424 12.7708 67.2773 13.9688C67.2122 15.1667 67.1276 16.3776 67.0234 17.6016L58.7422 18.0312V20.4922H65.9297L65.5391 26.5469L58.7031 26.7422L58.7422 38.3047L48.8594 38.5L49.4844 10.3359H67.4922ZM92.2383 23.5391C92.2383 24.724 92.1016 25.8698 91.8281 26.9766C91.5547 28.0703 91.1576 29.099 90.6367 30.0625C90.1289 31.026 89.5039 31.9115 88.7617 32.7188C88.0326 33.513 87.2057 34.1966 86.2812 34.7695C85.3698 35.3424 84.3737 35.7917 83.293 36.1172C82.2122 36.4297 81.0664 36.5859 79.8555 36.5859C78.6836 36.5859 77.5638 36.4362 76.4961 36.1367C75.4414 35.8372 74.4518 35.4206 73.5273 34.8867C72.6029 34.3398 71.763 33.6888 71.0078 32.9336C70.2656 32.1654 69.6276 31.319 69.0938 30.3945C68.5729 29.457 68.1628 28.4544 67.8633 27.3867C67.5768 26.319 67.4336 25.2057 67.4336 24.0469C67.4336 22.9141 67.5703 21.8073 67.8438 20.7266C68.1172 19.6328 68.5078 18.6042 69.0156 17.6406C69.5365 16.6771 70.1615 15.7917 70.8906 14.9844C71.6198 14.1771 72.4336 13.4805 73.332 12.8945C74.2435 12.3086 75.2266 11.8529 76.2812 11.5273C77.3359 11.2018 78.4492 11.0391 79.6211 11.0391C81.5091 11.0391 83.2279 11.332 84.7773 11.918C86.3398 12.5039 87.668 13.3438 88.7617 14.4375C89.8685 15.5182 90.7214 16.8333 91.3203 18.3828C91.9323 19.9193 92.2383 21.638 92.2383 23.5391ZM83.5664 24.0469C83.5664 23.487 83.4818 22.9466 83.3125 22.4258C83.1562 21.8919 82.9219 21.4232 82.6094 21.0195C82.2969 20.6029 81.9062 20.2708 81.4375 20.0234C80.9818 19.763 80.4544 19.6328 79.8555 19.6328C79.2435 19.6328 78.6966 19.7435 78.2148 19.9648C77.7331 20.1862 77.3164 20.4922 76.9648 20.8828C76.6263 21.2604 76.3659 21.7096 76.1836 22.2305C76.0013 22.7383 75.9102 23.2786 75.9102 23.8516C75.9102 24.3984 75.9883 24.9453 76.1445 25.4922C76.3008 26.0391 76.5352 26.5339 76.8477 26.9766C77.1602 27.4193 77.5443 27.7773 78 28.0508C78.4688 28.3242 79.0091 28.4609 79.6211 28.4609C80.2331 28.4609 80.7799 28.3438 81.2617 28.1094C81.7565 27.862 82.1732 27.5365 82.5117 27.1328C82.8503 26.7161 83.1107 26.2409 83.293 25.707C83.4753 25.1732 83.5664 24.6198 83.5664 24.0469ZM117.746 23.5391C117.746 24.724 117.609 25.8698 117.336 26.9766C117.062 28.0703 116.665 29.099 116.145 30.0625C115.637 31.026 115.012 31.9115 114.27 32.7188C113.54 33.513 112.714 34.1966 111.789 34.7695C110.878 35.3424 109.882 35.7917 108.801 36.1172C107.72 36.4297 106.574 36.5859 105.363 36.5859C104.191 36.5859 103.072 36.4362 102.004 36.1367C100.949 35.8372 99.9596 35.4206 99.0352 34.8867C98.1107 34.3398 97.2708 33.6888 96.5156 32.9336C95.7734 32.1654 95.1354 31.319 94.6016 30.3945C94.0807 29.457 93.6706 28.4544 93.3711 27.3867C93.0846 26.319 92.9414 25.2057 92.9414 24.0469C92.9414 22.9141 93.0781 21.8073 93.3516 20.7266C93.625 19.6328 94.0156 18.6042 94.5234 17.6406C95.0443 16.6771 95.6693 15.7917 96.3984 14.9844C97.1276 14.1771 97.9414 13.4805 98.8398 12.8945C99.7513 12.3086 100.734 11.8529 101.789 11.5273C102.844 11.2018 103.957 11.0391 105.129 11.0391C107.017 11.0391 108.736 11.332 110.285 11.918C111.848 12.5039 113.176 13.3438 114.27 14.4375C115.376 15.5182 116.229 16.8333 116.828 18.3828C117.44 19.9193 117.746 21.638 117.746 23.5391ZM109.074 24.0469C109.074 23.487 108.99 22.9466 108.82 22.4258C108.664 21.8919 108.43 21.4232 108.117 21.0195C107.805 20.6029 107.414 20.2708 106.945 20.0234C106.49 19.763 105.962 19.6328 105.363 19.6328C104.751 19.6328 104.204 19.7435 103.723 19.9648C103.241 20.1862 102.824 20.4922 102.473 20.8828C102.134 21.2604 101.874 21.7096 101.691 22.2305C101.509 22.7383 101.418 23.2786 101.418 23.8516C101.418 24.3984 101.496 24.9453 101.652 25.4922C101.809 26.0391 102.043 26.5339 102.355 26.9766C102.668 27.4193 103.052 27.7773 103.508 28.0508C103.977 28.3242 104.517 28.4609 105.129 28.4609C105.741 28.4609 106.288 28.3438 106.77 28.1094C107.264 27.862 107.681 27.5365 108.02 27.1328C108.358 26.7161 108.618 26.2409 108.801 25.707C108.983 25.1732 109.074 24.6198 109.074 24.0469ZM141.242 22.9922C141.242 24.8151 141.008 26.4492 140.539 27.8945C140.07 29.3398 139.413 30.6224 138.566 31.7422C137.733 32.849 136.737 33.793 135.578 34.5742C134.419 35.3555 133.15 36 131.77 36.5078C130.389 37.0026 128.918 37.3672 127.355 37.6016C125.806 37.8359 124.211 37.9531 122.57 37.9531C121.958 37.9531 121.359 37.9401 120.773 37.9141C120.188 37.875 119.589 37.8229 118.977 37.7578L119.523 12.3281C120.956 11.8724 122.427 11.5534 123.938 11.3711C125.461 11.1758 126.971 11.0781 128.469 11.0781C130.331 11.0781 132.043 11.3385 133.605 11.8594C135.168 12.3802 136.516 13.1484 137.648 14.1641C138.781 15.1667 139.66 16.4102 140.285 17.8945C140.923 19.3659 141.242 21.0651 141.242 22.9922ZM127.961 30.4922C128.742 30.375 129.452 30.1406 130.09 29.7891C130.741 29.4245 131.301 28.9818 131.77 28.4609C132.238 27.9271 132.596 27.3281 132.844 26.6641C133.104 25.987 133.234 25.2708 133.234 24.5156C133.234 23.7734 133.156 23.0833 133 22.4453C132.844 21.7943 132.59 21.2344 132.238 20.7656C131.887 20.2839 131.424 19.9062 130.852 19.6328C130.279 19.3464 129.576 19.1901 128.742 19.1641L127.961 30.4922Z" fill="#254E16"/>
<path d="M160.969 10.3359C160.891 11.5599 160.819 12.7708 160.754 13.9688C160.689 15.1667 160.604 16.3776 160.5 17.6016L152.219 18.0312V20.4922H159.406L159.016 26.5469L152.18 26.7422L152.219 38.3047L142.336 38.5L142.961 10.3359H160.969ZM184.016 36.8203L174.328 38.0703L173.156 33.6562H168.703L167.727 38.0703L157.766 37.0938L165.539 11.0781L176.398 10.5312L184.016 36.8203ZM172.453 27.6797L170.969 20.8828L169.523 27.6797H172.453ZM207.316 19.6719C207.316 20.6875 207.225 21.612 207.043 22.4453C206.874 23.2656 206.6 24.0208 206.223 24.7109C205.845 25.401 205.357 26.0391 204.758 26.625C204.159 27.2109 203.436 27.7708 202.59 28.3047L207.238 36.5859L198.449 38.3047L195.441 29.9844L193.02 30.0625L192.668 38.1875H184.27C184.335 35.2188 184.393 32.263 184.445 29.3203C184.51 26.3776 184.582 23.4219 184.66 20.4531C184.686 18.9557 184.712 17.4714 184.738 16C184.764 14.5286 184.816 13.0443 184.895 11.5469C185.806 11.2083 186.704 10.9284 187.59 10.707C188.475 10.4857 189.361 10.3164 190.246 10.1992C191.145 10.069 192.049 9.98438 192.961 9.94531C193.885 9.89323 194.829 9.86719 195.793 9.86719C197.277 9.86719 198.71 10.0755 200.09 10.4922C201.483 10.8958 202.714 11.5078 203.781 12.3281C204.849 13.1484 205.702 14.1706 206.34 15.3945C206.991 16.6185 207.316 18.0443 207.316 19.6719ZM198.566 20.2969C198.566 19.75 198.488 19.2487 198.332 18.793C198.189 18.3372 197.967 17.9466 197.668 17.6211C197.382 17.2826 197.017 17.0221 196.574 16.8398C196.145 16.6445 195.637 16.5469 195.051 16.5469C194.79 16.5469 194.536 16.5664 194.289 16.6055C194.042 16.6315 193.801 16.6771 193.566 16.7422L193.254 24.0078H193.723C194.283 24.0078 194.849 23.9362 195.422 23.793C196.008 23.6497 196.529 23.4284 196.984 23.1289C197.453 22.8294 197.831 22.4453 198.117 21.9766C198.417 21.5078 198.566 20.9479 198.566 20.2969ZM242.824 25.2578C242.824 27.1198 242.766 28.9753 242.648 30.8242C242.531 32.6732 242.395 34.5286 242.238 36.3906L232.199 36.8594C232.499 34.5938 232.766 32.3281 233 30.0625C233.247 27.7839 233.371 25.5052 233.371 23.2266C233.371 23.0833 233.365 22.8359 233.352 22.4844C233.339 22.1198 233.312 21.7096 233.273 21.2539C233.247 20.7982 233.202 20.3294 233.137 19.8477C233.085 19.3529 233.007 18.9036 232.902 18.5C232.811 18.0833 232.694 17.7448 232.551 17.4844C232.408 17.224 232.238 17.0938 232.043 17.0938C231.587 17.0938 231.229 17.2695 230.969 17.6211C230.708 17.9596 230.513 18.3698 230.383 18.8516C230.266 19.3333 230.194 19.8281 230.168 20.3359C230.142 20.8307 230.129 21.2344 230.129 21.5469C230.129 22.0938 230.142 22.6406 230.168 23.1875C230.194 23.7344 230.207 24.2943 230.207 24.8672C230.207 26.8854 230.155 28.8971 230.051 30.9023C229.96 32.9076 229.842 34.9193 229.699 36.9375L220.441 37.2891C220.741 35.0234 221.001 32.7643 221.223 30.5117C221.457 28.2461 221.574 25.974 221.574 23.6953C221.574 23.5521 221.568 23.2917 221.555 22.9141C221.542 22.5365 221.516 22.1133 221.477 21.6445C221.451 21.1758 221.405 20.6875 221.34 20.1797C221.275 19.6719 221.19 19.2096 221.086 18.793C220.995 18.3633 220.878 18.0117 220.734 17.7383C220.591 17.4648 220.415 17.3281 220.207 17.3281C219.882 17.3281 219.608 17.4583 219.387 17.7188C219.165 17.9661 218.983 18.2917 218.84 18.6953C218.71 19.099 218.605 19.5482 218.527 20.043C218.462 20.5247 218.41 21 218.371 21.4688C218.345 21.9375 218.326 22.3737 218.312 22.7773C218.312 23.168 218.306 23.4609 218.293 23.6562L217.863 37.9141H208.02C208.228 35.7135 208.436 33.5065 208.645 31.293C208.866 29.0794 209.055 26.8724 209.211 24.6719C209.38 22.4583 209.517 20.2448 209.621 18.0312C209.725 15.8177 209.777 13.6042 209.777 11.3906L219.074 11L219.035 13.2656C219.322 12.901 219.647 12.5365 220.012 12.1719C220.376 11.7943 220.76 11.4622 221.164 11.1758C221.581 10.8763 222.017 10.6354 222.473 10.4531C222.941 10.2708 223.423 10.1797 223.918 10.1797C224.556 10.1797 225.129 10.2318 225.637 10.3359C226.145 10.4271 226.6 10.5898 227.004 10.8242C227.421 11.0586 227.785 11.3841 228.098 11.8008C228.41 12.2044 228.684 12.7188 228.918 13.3438C229.335 12.888 229.751 12.4648 230.168 12.0742C230.598 11.6836 231.047 11.3516 231.516 11.0781C231.984 10.7917 232.492 10.5703 233.039 10.4141C233.586 10.2578 234.191 10.1797 234.855 10.1797C236.118 10.1797 237.193 10.4271 238.078 10.9219C238.964 11.4036 239.699 12.0482 240.285 12.8555C240.884 13.6628 241.346 14.5872 241.672 15.6289C242.01 16.6706 242.264 17.7513 242.434 18.8711C242.603 19.9909 242.707 21.1042 242.746 22.2109C242.798 23.3177 242.824 24.3333 242.824 25.2578Z" fill="#6BB252"/>
</svg>
