<svg width="40" height="40" viewBox="0 0 40 40" fill="none" xmlns="http://www.w3.org/2000/svg">
<path d="M21.6666 31.6666C21.6666 31.1 21.7333 30.55 21.8166 30H4.99996V20H31.6666V21.6666C32.8333 21.6666 33.95 21.8833 35 22.25V9.99996C35 8.14996 33.5166 6.66663 31.6666 6.66663H4.99996C3.14996 6.66663 1.66663 8.14996 1.66663 9.99996V30C1.66663 30.884 2.01782 31.7319 2.64294 32.357C3.26806 32.9821 4.1159 33.3333 4.99996 33.3333H21.8166C21.7333 32.7833 21.6666 32.2333 21.6666 31.6666ZM4.99996 9.99996H31.6666V13.3333H4.99996V9.99996ZM29.5833 36.6666L25 31.6666L26.9333 29.7333L29.5833 32.3833L35.5666 26.4L37.5 28.75L29.5833 36.6666Z" fill="white"/>
</svg>
