<svg width="24" height="25" viewBox="0 0 24 25" fill="none" xmlns="http://www.w3.org/2000/svg">
<path d="M2.57146 16.7857C3.51775 16.7857 4.28575 15.6337 4.28575 14.2143C4.28575 12.7949 3.51775 11.6429 2.57146 11.6429C1.62518 11.6429 0.857178 12.7949 0.857178 14.2143C0.857178 15.6337 1.62518 16.7857 2.57146 16.7857ZM7.71432 9.07143C8.66061 9.07143 9.42861 7.91943 9.42861 6.5C9.42861 5.08057 8.66061 3.92857 7.71432 3.92857C6.76803 3.92857 6.00003 5.08057 6.00003 6.5C6.00003 7.91943 6.76803 9.07143 7.71432 9.07143ZM16.2857 9.07143C17.232 9.07143 18 7.91943 18 6.5C18 5.08057 17.232 3.92857 16.2857 3.92857C15.3395 3.92857 14.5715 5.08057 14.5715 6.5C14.5715 7.91943 15.3395 9.07143 16.2857 9.07143ZM21.4286 16.7857C22.3749 16.7857 23.1429 15.6337 23.1429 14.2143C23.1429 12.7949 22.3749 11.6429 21.4286 11.6429C20.4823 11.6429 19.7143 12.7949 19.7143 14.2143C19.7143 15.6337 20.4823 16.7857 21.4286 16.7857ZM17.1429 17.6429C17.1429 20.0086 14.3657 21.0714 12 21.0714C9.63432 21.0714 6.85718 20.0086 6.85718 17.6429C6.85718 15.2771 8.57146 11.6429 12 11.6429C15.4286 11.6429 17.1429 15.2771 17.1429 17.6429Z" stroke="#060809" stroke-linecap="round" stroke-linejoin="round"/>
</svg>
