<svg width="112" height="216" viewBox="0 0 112 216" fill="none" xmlns="http://www.w3.org/2000/svg">
<path d="M14.5508 13.8418C14.5508 14.9421 14.4108 15.9447 14.1309 16.8496C13.8574 17.748 13.444 18.5228 12.8906 19.1738C12.3372 19.8184 11.6439 20.3164 10.8105 20.668C9.97721 21.0195 9.00065 21.1953 7.88086 21.1953C6.74154 21.1953 5.75195 21.0195 4.91211 20.668C4.07878 20.3164 3.38542 19.8151 2.83203 19.1641C2.28516 18.513 1.875 17.735 1.60156 16.8301C1.32812 15.9251 1.19141 14.9225 1.19141 13.8223C1.19141 12.3509 1.43229 11.0684 1.91406 9.97461C2.40234 8.87435 3.14128 8.02148 4.13086 7.41602C5.12695 6.80404 6.38346 6.49805 7.90039 6.49805C9.38477 6.49805 10.6185 6.80078 11.6016 7.40625C12.5846 8.01172 13.3203 8.86458 13.8086 9.96484C14.3034 11.0586 14.5508 12.3509 14.5508 13.8418ZM3.65234 13.8418C3.65234 14.9421 3.80208 15.8958 4.10156 16.7031C4.40104 17.5039 4.86003 18.1224 5.47852 18.5586C6.10352 18.9883 6.9043 19.2031 7.88086 19.2031C8.86393 19.2031 9.66471 18.9883 10.2832 18.5586C10.9017 18.1224 11.3574 17.5039 11.6504 16.7031C11.9434 15.8958 12.0898 14.9421 12.0898 13.8418C12.0898 12.1686 11.7546 10.86 11.084 9.91602C10.4199 8.96549 9.35872 8.49023 7.90039 8.49023C6.92383 8.49023 6.11979 8.70508 5.48828 9.13477C4.86328 9.56445 4.40104 10.1797 4.10156 10.9805C3.80208 11.7747 3.65234 12.7285 3.65234 13.8418ZM26.8066 10.1895V21H25L24.6875 19.5449H24.5605C24.3327 19.916 24.043 20.2253 23.6914 20.4727C23.3398 20.7135 22.9492 20.8926 22.5195 21.0098C22.0898 21.1335 21.6374 21.1953 21.1621 21.1953C20.3483 21.1953 19.6517 21.0586 19.0723 20.7852C18.4993 20.5052 18.0599 20.0755 17.7539 19.4961C17.4479 18.9167 17.2949 18.168 17.2949 17.25V10.1895H19.5996V16.8203C19.5996 17.6602 19.7689 18.2884 20.1074 18.7051C20.4525 19.1217 20.9863 19.3301 21.709 19.3301C22.4056 19.3301 22.959 19.1868 23.3691 18.9004C23.7793 18.6139 24.069 18.1908 24.2383 17.6309C24.4141 17.071 24.502 16.3841 24.502 15.5703V10.1895H26.8066ZM32.3926 10.1895V21H30.0977V10.1895H32.3926ZM31.2598 6.04883C31.6113 6.04883 31.9141 6.14323 32.168 6.33203C32.4284 6.52083 32.5586 6.84635 32.5586 7.30859C32.5586 7.76432 32.4284 8.08984 32.168 8.28516C31.9141 8.47396 31.6113 8.56836 31.2598 8.56836C30.8952 8.56836 30.5859 8.47396 30.332 8.28516C30.0846 8.08984 29.9609 7.76432 29.9609 7.30859C29.9609 6.84635 30.0846 6.52083 30.332 6.33203C30.5859 6.14323 30.8952 6.04883 31.2598 6.04883ZM40.0391 21.1953C39.0169 21.1953 38.1315 20.9967 37.3828 20.5996C36.6341 20.2025 36.0579 19.5938 35.6543 18.7734C35.2507 17.9531 35.0488 16.9115 35.0488 15.6484C35.0488 14.3333 35.2702 13.2591 35.7129 12.4258C36.1556 11.5924 36.7676 10.9772 37.5488 10.5801C38.3366 10.1829 39.2383 9.98438 40.2539 9.98438C40.8984 9.98438 41.4811 10.0495 42.002 10.1797C42.5293 10.3034 42.9753 10.4564 43.3398 10.6387L42.6562 12.4746C42.2591 12.3118 41.8522 12.1751 41.4355 12.0645C41.0189 11.9538 40.6185 11.8984 40.2344 11.8984C39.6029 11.8984 39.0755 12.0384 38.6523 12.3184C38.2357 12.5983 37.9232 13.015 37.7148 13.5684C37.513 14.1217 37.4121 14.8086 37.4121 15.6289C37.4121 16.4232 37.5163 17.0938 37.7246 17.6406C37.9329 18.181 38.2422 18.5911 38.6523 18.8711C39.0625 19.1445 39.5671 19.2812 40.166 19.2812C40.7585 19.2812 41.2891 19.2096 41.7578 19.0664C42.2266 18.9232 42.6693 18.7376 43.0859 18.5098V20.502C42.6758 20.7363 42.2363 20.9089 41.7676 21.0195C41.2988 21.1367 40.7227 21.1953 40.0391 21.1953ZM47.9199 5.80469V13.1484C47.9199 13.4805 47.9069 13.8451 47.8809 14.2422C47.8548 14.6328 47.8288 15.0007 47.8027 15.3457H47.8516C48.0208 15.1178 48.2227 14.8509 48.457 14.5449C48.6979 14.2389 48.9258 13.972 49.1406 13.7441L52.4414 10.1895H55.0781L50.752 14.8379L55.3613 21H52.666L49.209 16.2539L47.9199 17.3574V21H45.625V5.80469H47.9199ZM62.5195 21V6.72266H64.8633V19.0078H70.9277V21H62.5195ZM75.459 10.1895V21H73.1641V10.1895H75.459ZM74.3262 6.04883C74.6777 6.04883 74.9805 6.14323 75.2344 6.33203C75.4948 6.52083 75.625 6.84635 75.625 7.30859C75.625 7.76432 75.4948 8.08984 75.2344 8.28516C74.9805 8.47396 74.6777 8.56836 74.3262 8.56836C73.9616 8.56836 73.6523 8.47396 73.3984 8.28516C73.151 8.08984 73.0273 7.76432 73.0273 7.30859C73.0273 6.84635 73.151 6.52083 73.3984 6.33203C73.6523 6.14323 73.9616 6.04883 74.3262 6.04883ZM84.3848 9.98438C85.6022 9.98438 86.5495 10.3001 87.2266 10.9316C87.9102 11.5566 88.252 12.5625 88.252 13.9492V21H85.957V14.3789C85.957 13.5391 85.7845 12.9108 85.4395 12.4941C85.0944 12.071 84.5605 11.8594 83.8379 11.8594C82.7897 11.8594 82.0605 12.1816 81.6504 12.8262C81.2467 13.4707 81.0449 14.4049 81.0449 15.6289V21H78.75V10.1895H80.5371L80.8594 11.6543H80.9863C81.2207 11.2767 81.5104 10.9674 81.8555 10.7266C82.207 10.4792 82.5977 10.2936 83.0273 10.1699C83.4635 10.0462 83.916 9.98438 84.3848 9.98438ZM93.7598 5.80469V13.1484C93.7598 13.4805 93.7467 13.8451 93.7207 14.2422C93.6947 14.6328 93.6686 15.0007 93.6426 15.3457H93.6914C93.8607 15.1178 94.0625 14.8509 94.2969 14.5449C94.5378 14.2389 94.7656 13.972 94.9805 13.7441L98.2812 10.1895H100.918L96.5918 14.8379L101.201 21H98.5059L95.0488 16.2539L93.7598 17.3574V21H91.4648V5.80469H93.7598ZM110.195 17.9141C110.195 18.6237 110.023 19.2227 109.678 19.7109C109.333 20.1992 108.828 20.5703 108.164 20.8242C107.507 21.0716 106.699 21.1953 105.742 21.1953C104.987 21.1953 104.336 21.14 103.789 21.0293C103.249 20.9251 102.738 20.7624 102.256 20.541V18.5586C102.77 18.7995 103.346 19.0078 103.984 19.1836C104.629 19.3594 105.238 19.4473 105.811 19.4473C106.566 19.4473 107.109 19.3301 107.441 19.0957C107.773 18.8548 107.939 18.5358 107.939 18.1387C107.939 17.9043 107.871 17.696 107.734 17.5137C107.604 17.3249 107.357 17.1328 106.992 16.9375C106.634 16.7357 106.107 16.4948 105.41 16.2148C104.727 15.9414 104.15 15.668 103.682 15.3945C103.213 15.1211 102.858 14.7923 102.617 14.4082C102.376 14.0176 102.256 13.5195 102.256 12.9141C102.256 11.957 102.633 11.2311 103.389 10.7363C104.15 10.235 105.156 9.98438 106.406 9.98438C107.07 9.98438 107.695 10.0527 108.281 10.1895C108.874 10.3197 109.453 10.5117 110.02 10.7656L109.297 12.4941C108.809 12.2793 108.317 12.1035 107.822 11.9668C107.334 11.8236 106.836 11.752 106.328 11.752C105.736 11.752 105.283 11.8431 104.971 12.0254C104.665 12.2077 104.512 12.4681 104.512 12.8066C104.512 13.0605 104.587 13.2754 104.736 13.4512C104.886 13.627 105.143 13.8027 105.508 13.9785C105.879 14.1543 106.393 14.3724 107.051 14.6328C107.695 14.8802 108.252 15.1406 108.721 15.4141C109.196 15.681 109.561 16.0098 109.814 16.4004C110.068 16.791 110.195 17.2956 110.195 17.9141Z" fill="white"/>
<path d="M10.2422 69H8.91406V63.625H2.89844V69H1.57031V57.5781H2.89844V62.4375H8.91406V57.5781H10.2422V69ZM20.8981 64.7109C20.8981 66.1068 20.5466 67.1979 19.8434 67.9844C19.1403 68.7656 18.169 69.1562 16.9294 69.1562C16.1637 69.1562 15.4841 68.9766 14.8903 68.6172C14.2966 68.2578 13.8382 67.7422 13.5153 67.0703C13.1924 66.3984 13.0309 65.612 13.0309 64.7109C13.0309 63.3151 13.3799 62.2292 14.0778 61.4531C14.7757 60.6719 15.7445 60.2812 16.9841 60.2812C18.182 60.2812 19.1325 60.6797 19.8356 61.4766C20.544 62.2734 20.8981 63.3516 20.8981 64.7109ZM14.3747 64.7109C14.3747 65.8047 14.5934 66.638 15.0309 67.2109C15.4684 67.7839 16.1117 68.0703 16.9606 68.0703C17.8096 68.0703 18.4528 67.7865 18.8903 67.2188C19.333 66.6458 19.5544 65.8099 19.5544 64.7109C19.5544 63.6224 19.333 62.7969 18.8903 62.2344C18.4528 61.6667 17.8044 61.3828 16.945 61.3828C16.096 61.3828 15.4554 61.6615 15.0231 62.2188C14.5908 62.776 14.3747 63.6068 14.3747 64.7109ZM34.4134 69V63.4297C34.4134 62.7474 34.2676 62.237 33.9759 61.8984C33.6843 61.5547 33.2311 61.3828 32.6166 61.3828C31.8093 61.3828 31.2129 61.6146 30.8275 62.0781C30.4421 62.5417 30.2494 63.2552 30.2494 64.2188V69H28.9525V63.4297C28.9525 62.7474 28.8067 62.237 28.515 61.8984C28.2233 61.5547 27.7676 61.3828 27.1478 61.3828C26.3353 61.3828 25.739 61.6276 25.3587 62.1172C24.9837 62.6016 24.7962 63.3984 24.7962 64.5078V69H23.4994V60.4375H24.5541L24.765 61.6094H24.8275C25.0723 61.1927 25.416 60.8672 25.8587 60.6328C26.3067 60.3984 26.8067 60.2812 27.3587 60.2812C28.6973 60.2812 29.5723 60.7656 29.9837 61.7344H30.0462C30.3015 61.2865 30.6712 60.9323 31.1556 60.6719C31.64 60.4115 32.1921 60.2812 32.8119 60.2812C33.7806 60.2812 34.5046 60.5312 34.9837 61.0312C35.4681 61.526 35.7103 62.3203 35.7103 63.4141V69H34.4134ZM42.3272 69.1562C41.0616 69.1562 40.0616 68.7708 39.3272 68C38.598 67.2292 38.2334 66.1589 38.2334 64.7891C38.2334 63.4089 38.572 62.3125 39.2491 61.5C39.9314 60.6875 40.8454 60.2812 41.9912 60.2812C43.0642 60.2812 43.9131 60.6354 44.5381 61.3438C45.1631 62.0469 45.4756 62.9766 45.4756 64.1328V64.9531H39.5772C39.6032 65.9583 39.8558 66.7214 40.335 67.2422C40.8194 67.763 41.4991 68.0234 42.3741 68.0234C43.2959 68.0234 44.2074 67.8307 45.1084 67.4453V68.6016C44.6501 68.7995 44.2152 68.9401 43.8037 69.0234C43.3975 69.112 42.9053 69.1562 42.3272 69.1562ZM41.9756 61.3672C41.2881 61.3672 40.7386 61.5911 40.3272 62.0391C39.9209 62.487 39.6814 63.1068 39.6084 63.8984H44.085C44.085 63.0807 43.9027 62.4557 43.5381 62.0234C43.1735 61.5859 42.6527 61.3672 41.9756 61.3672ZM8.75 103L7.32812 99.3672H2.75L1.34375 103H0L4.51562 91.5312H5.63281L10.125 103H8.75ZM6.91406 98.1719L5.58594 94.6328C5.41406 94.1849 5.23698 93.6354 5.05469 92.9844C4.9401 93.4844 4.77604 94.0339 4.5625 94.6328L3.21875 98.1719H6.91406ZM15.8044 94.2969C16.9294 94.2969 17.8018 94.6823 18.4216 95.4531C19.0466 96.2188 19.3591 97.3047 19.3591 98.7109C19.3591 100.117 19.044 101.211 18.4137 101.992C17.7887 102.768 16.919 103.156 15.8044 103.156C15.2471 103.156 14.7367 103.055 14.2731 102.852C13.8148 102.643 13.4294 102.326 13.1169 101.898H13.0231L12.7497 103H11.82V90.8438H13.1169V93.7969C13.1169 94.4583 13.096 95.0521 13.0544 95.5781H13.1169C13.721 94.724 14.6169 94.2969 15.8044 94.2969ZM15.6169 95.3828C14.7315 95.3828 14.0934 95.638 13.7028 96.1484C13.3122 96.6536 13.1169 97.5078 13.1169 98.7109C13.1169 99.9141 13.3174 100.776 13.7184 101.297C14.1195 101.812 14.7627 102.07 15.6481 102.07C16.445 102.07 17.0387 101.781 17.4294 101.203C17.82 100.62 18.0153 99.7839 18.0153 98.6953C18.0153 97.5807 17.82 96.75 17.4294 96.2031C17.0387 95.6562 16.4346 95.3828 15.6169 95.3828ZM29.3431 98.7109C29.3431 100.107 28.9916 101.198 28.2884 101.984C27.5853 102.766 26.614 103.156 25.3744 103.156C24.6087 103.156 23.9291 102.977 23.3353 102.617C22.7416 102.258 22.2832 101.742 21.9603 101.07C21.6374 100.398 21.4759 99.612 21.4759 98.7109C21.4759 97.3151 21.8249 96.2292 22.5228 95.4531C23.2207 94.6719 24.1895 94.2812 25.4291 94.2812C26.627 94.2812 27.5775 94.6797 28.2806 95.4766C28.989 96.2734 29.3431 97.3516 29.3431 98.7109ZM22.8197 98.7109C22.8197 99.8047 23.0384 100.638 23.4759 101.211C23.9134 101.784 24.5567 102.07 25.4056 102.07C26.2546 102.07 26.8978 101.786 27.3353 101.219C27.778 100.646 27.9994 99.8099 27.9994 98.7109C27.9994 97.6224 27.778 96.7969 27.3353 96.2344C26.8978 95.6667 26.2494 95.3828 25.39 95.3828C24.541 95.3828 23.9004 95.6615 23.4681 96.2188C23.0358 96.776 22.8197 97.6068 22.8197 98.7109ZM33.1631 94.4375V99.9922C33.1631 100.69 33.322 101.211 33.6397 101.555C33.9574 101.898 34.4548 102.07 35.1319 102.07C36.0277 102.07 36.6814 101.826 37.0928 101.336C37.5095 100.846 37.7178 100.047 37.7178 98.9375V94.4375H39.0147V103H37.9444L37.7569 101.852H37.6866C37.4209 102.273 37.0511 102.596 36.5772 102.82C36.1084 103.044 35.572 103.156 34.9678 103.156C33.9261 103.156 33.1449 102.909 32.6241 102.414C32.1084 101.919 31.8506 101.128 31.8506 100.039V94.4375H33.1631ZM44.8581 102.086C45.0873 102.086 45.3086 102.07 45.5222 102.039C45.7357 102.003 45.905 101.966 46.03 101.93V102.922C45.8894 102.99 45.681 103.044 45.405 103.086C45.1342 103.133 44.8894 103.156 44.6706 103.156C43.0144 103.156 42.1862 102.284 42.1862 100.539V95.4453H40.9597V94.8203L42.1862 94.2812L42.7331 92.4531H43.4831V94.4375H45.9675V95.4453H43.4831V100.484C43.4831 101 43.6055 101.396 43.8503 101.672C44.0951 101.948 44.431 102.086 44.8581 102.086ZM61.3653 91.5781V98.9688C61.3653 100.271 60.9721 101.294 60.1856 102.039C59.3992 102.784 58.3184 103.156 56.9434 103.156C55.5684 103.156 54.5033 102.781 53.7481 102.031C52.9981 101.281 52.6231 100.25 52.6231 98.9375V91.5781H53.9512V99.0312C53.9512 99.9844 54.2117 100.716 54.7325 101.227C55.2533 101.737 56.019 101.992 57.0294 101.992C57.9929 101.992 58.7351 101.737 59.2559 101.227C59.7768 100.711 60.0372 99.974 60.0372 99.0156V91.5781H61.3653ZM70.0447 100.664C70.0447 101.461 69.7478 102.076 69.1541 102.508C68.5603 102.94 67.727 103.156 66.6541 103.156C65.5186 103.156 64.6332 102.977 63.9978 102.617V101.414C64.4093 101.622 64.8494 101.786 65.3181 101.906C65.7921 102.026 66.2478 102.086 66.6853 102.086C67.3624 102.086 67.8832 101.979 68.2478 101.766C68.6124 101.547 68.7947 101.216 68.7947 100.773C68.7947 100.44 68.6489 100.156 68.3572 99.9219C68.0707 99.6823 67.5082 99.401 66.6697 99.0781C65.8728 98.7812 65.3051 98.5234 64.9666 98.3047C64.6332 98.0807 64.3832 97.8281 64.2166 97.5469C64.0551 97.2656 63.9744 96.9297 63.9744 96.5391C63.9744 95.8411 64.2582 95.2917 64.8259 94.8906C65.3936 94.4844 66.1723 94.2812 67.1619 94.2812C68.0838 94.2812 68.9848 94.4688 69.865 94.8438L69.4041 95.8984C68.5447 95.5443 67.766 95.3672 67.0681 95.3672C66.4535 95.3672 65.99 95.4635 65.6775 95.6562C65.365 95.849 65.2088 96.1146 65.2088 96.4531C65.2088 96.6823 65.266 96.8776 65.3806 97.0391C65.5004 97.2005 65.6905 97.3542 65.9509 97.5C66.2114 97.6458 66.7114 97.8568 67.4509 98.1328C68.4666 98.5026 69.1515 98.875 69.5056 99.25C69.865 99.625 70.0447 100.096 70.0447 100.664ZM11.4844 131.273C11.4844 133.102 11.0208 134.539 10.0938 135.586C9.17188 136.633 7.88802 137.156 6.24219 137.156C4.5599 137.156 3.26042 136.643 2.34375 135.617C1.43229 134.586 0.976562 133.133 0.976562 131.258C0.976562 129.398 1.4349 127.958 2.35156 126.938C3.26823 125.911 4.57031 125.398 6.25781 125.398C7.89844 125.398 9.17969 125.919 10.1016 126.961C11.0234 128.003 11.4844 129.44 11.4844 131.273ZM2.38281 131.273C2.38281 132.82 2.71094 133.995 3.36719 134.797C4.02865 135.594 4.98698 135.992 6.24219 135.992C7.50781 135.992 8.46354 135.594 9.10938 134.797C9.75521 134 10.0781 132.826 10.0781 131.273C10.0781 129.737 9.75521 128.573 9.10938 127.781C8.46875 126.984 7.51823 126.586 6.25781 126.586C4.99219 126.586 4.02865 126.987 3.36719 127.789C2.71094 128.586 2.38281 129.747 2.38281 131.273ZM23.445 129.445H21.2653V137H19.9684V129.445H18.4372V128.859L19.9684 128.391V127.914C19.9684 125.81 20.8877 124.758 22.7262 124.758C23.1794 124.758 23.7106 124.849 24.32 125.031L23.9841 126.07C23.4841 125.909 23.057 125.828 22.7028 125.828C22.2132 125.828 21.8512 125.992 21.6169 126.32C21.3825 126.643 21.2653 127.164 21.2653 127.883V128.438H23.445V129.445ZM18.0231 129.445H15.8434V137H14.5466V129.445H13.0153V128.859L14.5466 128.391V127.914C14.5466 125.81 15.4658 124.758 17.3044 124.758C17.7575 124.758 18.2887 124.849 18.8981 125.031L18.5622 126.07C18.0622 125.909 17.6351 125.828 17.2809 125.828C16.7914 125.828 16.4294 125.992 16.195 126.32C15.9606 126.643 15.8434 127.164 15.8434 127.883V128.438H18.0231V129.445ZM28.9603 137.156C27.6947 137.156 26.6947 136.771 25.9603 136C25.2311 135.229 24.8666 134.159 24.8666 132.789C24.8666 131.409 25.2051 130.312 25.8822 129.5C26.5645 128.688 27.4785 128.281 28.6244 128.281C29.6973 128.281 30.5462 128.635 31.1712 129.344C31.7962 130.047 32.1087 130.977 32.1087 132.133V132.953H26.2103C26.2364 133.958 26.489 134.721 26.9681 135.242C27.4525 135.763 28.1322 136.023 29.0072 136.023C29.9291 136.023 30.8405 135.831 31.7416 135.445V136.602C31.2832 136.799 30.8483 136.94 30.4369 137.023C30.0306 137.112 29.5384 137.156 28.9603 137.156ZM28.6087 129.367C27.9212 129.367 27.3718 129.591 26.9603 130.039C26.5541 130.487 26.3145 131.107 26.2416 131.898H30.7181C30.7181 131.081 30.5358 130.456 30.1712 130.023C29.8067 129.586 29.2858 129.367 28.6087 129.367ZM38.5537 128.281C38.934 128.281 39.2751 128.312 39.5772 128.375L39.3975 129.578C39.0433 129.5 38.7308 129.461 38.46 129.461C37.7673 129.461 37.1735 129.742 36.6787 130.305C36.1892 130.867 35.9444 131.568 35.9444 132.406V137H34.6475V128.438H35.7178L35.8662 130.023H35.9287C36.2465 129.466 36.6293 129.036 37.0772 128.734C37.5251 128.432 38.0173 128.281 38.5537 128.281ZM47.0222 134.664C47.0222 135.461 46.7253 136.076 46.1316 136.508C45.5378 136.94 44.7045 137.156 43.6316 137.156C42.4961 137.156 41.6107 136.977 40.9753 136.617V135.414C41.3868 135.622 41.8269 135.786 42.2956 135.906C42.7696 136.026 43.2253 136.086 43.6628 136.086C44.3399 136.086 44.8607 135.979 45.2253 135.766C45.5899 135.547 45.7722 135.216 45.7722 134.773C45.7722 134.44 45.6264 134.156 45.3347 133.922C45.0482 133.682 44.4857 133.401 43.6472 133.078C42.8503 132.781 42.2826 132.523 41.9441 132.305C41.6107 132.081 41.3607 131.828 41.1941 131.547C41.0326 131.266 40.9519 130.93 40.9519 130.539C40.9519 129.841 41.2357 129.292 41.8034 128.891C42.3711 128.484 43.1498 128.281 44.1394 128.281C45.0612 128.281 45.9623 128.469 46.8425 128.844L46.3816 129.898C45.5222 129.544 44.7435 129.367 44.0456 129.367C43.431 129.367 42.9675 129.464 42.655 129.656C42.3425 129.849 42.1862 130.115 42.1862 130.453C42.1862 130.682 42.2435 130.878 42.3581 131.039C42.4779 131.201 42.668 131.354 42.9284 131.5C43.1889 131.646 43.6889 131.857 44.4284 132.133C45.4441 132.503 46.129 132.875 46.4831 133.25C46.8425 133.625 47.0222 134.096 47.0222 134.664ZM8.01562 167.961C8.01562 168.966 7.65104 169.75 6.92188 170.312C6.19271 170.875 5.20312 171.156 3.95312 171.156C2.59896 171.156 1.55729 170.982 0.828125 170.633V169.352C1.29688 169.549 1.80729 169.706 2.35938 169.82C2.91146 169.935 3.45833 169.992 4 169.992C4.88542 169.992 5.55208 169.826 6 169.492C6.44792 169.154 6.67188 168.685 6.67188 168.086C6.67188 167.69 6.59115 167.367 6.42969 167.117C6.27344 166.862 6.00781 166.628 5.63281 166.414C5.26302 166.201 4.69792 165.958 3.9375 165.688C2.875 165.307 2.11458 164.857 1.65625 164.336C1.20312 163.815 0.976562 163.135 0.976562 162.297C0.976562 161.417 1.30729 160.716 1.96875 160.195C2.63021 159.674 3.50521 159.414 4.59375 159.414C5.72917 159.414 6.77344 159.622 7.72656 160.039L7.3125 161.195C6.36979 160.799 5.45312 160.602 4.5625 160.602C3.85938 160.602 3.3099 160.753 2.91406 161.055C2.51823 161.357 2.32031 161.776 2.32031 162.312C2.32031 162.708 2.39323 163.034 2.53906 163.289C2.6849 163.539 2.92969 163.771 3.27344 163.984C3.6224 164.193 4.15365 164.424 4.86719 164.68C6.0651 165.107 6.88802 165.565 7.33594 166.055C7.78906 166.544 8.01562 167.18 8.01562 167.961ZM14.0934 171.156C12.8278 171.156 11.8278 170.771 11.0934 170C10.3643 169.229 9.99969 168.159 9.99969 166.789C9.99969 165.409 10.3382 164.312 11.0153 163.5C11.6976 162.688 12.6117 162.281 13.7575 162.281C14.8304 162.281 15.6794 162.635 16.3044 163.344C16.9294 164.047 17.2419 164.977 17.2419 166.133V166.953H11.3434C11.3695 167.958 11.6221 168.721 12.1012 169.242C12.5856 169.763 13.2653 170.023 14.1403 170.023C15.0622 170.023 15.9736 169.831 16.8747 169.445V170.602C16.4164 170.799 15.9815 170.94 15.57 171.023C15.1637 171.112 14.6716 171.156 14.0934 171.156ZM13.7419 163.367C13.0544 163.367 12.5049 163.591 12.0934 164.039C11.6872 164.487 11.4476 165.107 11.3747 165.898H15.8512C15.8512 165.081 15.669 164.456 15.3044 164.023C14.9398 163.586 14.419 163.367 13.7419 163.367ZM23.6869 162.281C24.0671 162.281 24.4082 162.312 24.7103 162.375L24.5306 163.578C24.1765 163.5 23.864 163.461 23.5931 163.461C22.9004 163.461 22.3067 163.742 21.8119 164.305C21.3223 164.867 21.0775 165.568 21.0775 166.406V171H19.7806V162.438H20.8509L20.9994 164.023H21.0619C21.3796 163.466 21.7624 163.036 22.2103 162.734C22.6582 162.432 23.1504 162.281 23.6869 162.281ZM28.5069 171L25.2569 162.438H26.6475L28.4912 167.516C28.9079 168.703 29.1527 169.474 29.2256 169.828H29.2881C29.3454 169.552 29.5251 168.982 29.8272 168.117C30.1345 167.247 30.8194 165.354 31.8819 162.438H33.2725L30.0225 171H28.5069ZM36.2644 171H34.9675V162.438H36.2644V171ZM34.8581 160.117C34.8581 159.82 34.931 159.604 35.0769 159.469C35.2227 159.328 35.405 159.258 35.6237 159.258C35.8321 159.258 36.0118 159.328 36.1628 159.469C36.3139 159.609 36.3894 159.826 36.3894 160.117C36.3894 160.409 36.3139 160.628 36.1628 160.773C36.0118 160.914 35.8321 160.984 35.6237 160.984C35.405 160.984 35.2227 160.914 35.0769 160.773C34.931 160.628 34.8581 160.409 34.8581 160.117ZM42.7562 171.156C41.5167 171.156 40.5557 170.776 39.8734 170.016C39.1964 169.25 38.8578 168.169 38.8578 166.773C38.8578 165.341 39.2016 164.234 39.8891 163.453C40.5818 162.672 41.5661 162.281 42.8422 162.281C43.2536 162.281 43.6651 162.326 44.0766 162.414C44.488 162.503 44.8109 162.607 45.0453 162.727L44.6469 163.828C44.3604 163.714 44.0479 163.62 43.7094 163.547C43.3708 163.469 43.0714 163.43 42.8109 163.43C41.0714 163.43 40.2016 164.539 40.2016 166.758C40.2016 167.81 40.4125 168.617 40.8344 169.18C41.2615 169.742 41.8917 170.023 42.725 170.023C43.4385 170.023 44.1703 169.87 44.9203 169.562V170.711C44.3474 171.008 43.626 171.156 42.7562 171.156ZM50.8966 171.156C49.6309 171.156 48.6309 170.771 47.8966 170C47.1674 169.229 46.8028 168.159 46.8028 166.789C46.8028 165.409 47.1414 164.312 47.8184 163.5C48.5007 162.688 49.4148 162.281 50.5606 162.281C51.6335 162.281 52.4825 162.635 53.1075 163.344C53.7325 164.047 54.045 164.977 54.045 166.133V166.953H48.1466C48.1726 167.958 48.4252 168.721 48.9044 169.242C49.3887 169.763 50.0684 170.023 50.9434 170.023C51.8653 170.023 52.7768 169.831 53.6778 169.445V170.602C53.2195 170.799 52.7846 170.94 52.3731 171.023C51.9669 171.112 51.4747 171.156 50.8966 171.156ZM50.545 163.367C49.8575 163.367 49.308 163.591 48.8966 164.039C48.4903 164.487 48.2507 165.107 48.1778 165.898H52.6544C52.6544 165.081 52.4721 164.456 52.1075 164.023C51.7429 163.586 51.2221 163.367 50.545 163.367ZM62.1072 168.664C62.1072 169.461 61.8103 170.076 61.2166 170.508C60.6228 170.94 59.7895 171.156 58.7166 171.156C57.5811 171.156 56.6957 170.977 56.0603 170.617V169.414C56.4718 169.622 56.9119 169.786 57.3806 169.906C57.8546 170.026 58.3103 170.086 58.7478 170.086C59.4249 170.086 59.9457 169.979 60.3103 169.766C60.6749 169.547 60.8572 169.216 60.8572 168.773C60.8572 168.44 60.7114 168.156 60.4197 167.922C60.1332 167.682 59.5707 167.401 58.7322 167.078C57.9353 166.781 57.3676 166.523 57.0291 166.305C56.6957 166.081 56.4457 165.828 56.2791 165.547C56.1176 165.266 56.0369 164.93 56.0369 164.539C56.0369 163.841 56.3207 163.292 56.8884 162.891C57.4561 162.484 58.2348 162.281 59.2244 162.281C60.1463 162.281 61.0473 162.469 61.9275 162.844L61.4666 163.898C60.6072 163.544 59.8285 163.367 59.1306 163.367C58.516 163.367 58.0525 163.464 57.74 163.656C57.4275 163.849 57.2713 164.115 57.2713 164.453C57.2713 164.682 57.3285 164.878 57.4431 165.039C57.5629 165.201 57.753 165.354 58.0134 165.5C58.2739 165.646 58.7739 165.857 59.5134 166.133C60.5291 166.503 61.214 166.875 61.5681 167.25C61.9275 167.625 62.1072 168.096 62.1072 168.664ZM6.46094 194.602C5.20573 194.602 4.21354 195.021 3.48438 195.859C2.76042 196.693 2.39844 197.836 2.39844 199.289C2.39844 200.784 2.7474 201.94 3.44531 202.758C4.14844 203.57 5.14844 203.977 6.44531 203.977C7.24219 203.977 8.15104 203.833 9.17188 203.547V204.711C8.38021 205.008 7.40365 205.156 6.24219 205.156C4.5599 205.156 3.26042 204.646 2.34375 203.625C1.43229 202.604 0.976562 201.154 0.976562 199.273C0.976562 198.096 1.19531 197.065 1.63281 196.18C2.07552 195.294 2.71094 194.612 3.53906 194.133C4.3724 193.654 5.35156 193.414 6.47656 193.414C7.67448 193.414 8.72135 193.633 9.61719 194.07L9.05469 195.211C8.1901 194.805 7.32552 194.602 6.46094 194.602ZM19.1794 200.711C19.1794 202.107 18.8278 203.198 18.1247 203.984C17.4216 204.766 16.4502 205.156 15.2106 205.156C14.445 205.156 13.7653 204.977 13.1716 204.617C12.5778 204.258 12.1195 203.742 11.7966 203.07C11.4736 202.398 11.3122 201.612 11.3122 200.711C11.3122 199.315 11.6611 198.229 12.3591 197.453C13.057 196.672 14.0257 196.281 15.2653 196.281C16.4632 196.281 17.4137 196.68 18.1169 197.477C18.8252 198.273 19.1794 199.352 19.1794 200.711ZM12.6559 200.711C12.6559 201.805 12.8747 202.638 13.3122 203.211C13.7497 203.784 14.3929 204.07 15.2419 204.07C16.0908 204.07 16.7341 203.786 17.1716 203.219C17.6143 202.646 17.8356 201.81 17.8356 200.711C17.8356 199.622 17.6143 198.797 17.1716 198.234C16.7341 197.667 16.0856 197.383 15.2262 197.383C14.3773 197.383 13.7367 197.661 13.3044 198.219C12.8721 198.776 12.6559 199.607 12.6559 200.711ZM27.64 205V199.461C27.64 198.763 27.4811 198.242 27.1634 197.898C26.8457 197.555 26.3483 197.383 25.6712 197.383C24.7754 197.383 24.1192 197.625 23.7025 198.109C23.2858 198.594 23.0775 199.393 23.0775 200.508V205H21.7806V196.438H22.8353L23.0462 197.609H23.1087C23.3744 197.188 23.7468 196.862 24.2259 196.633C24.7051 196.398 25.239 196.281 25.8275 196.281C26.8587 196.281 27.6348 196.531 28.1556 197.031C28.6765 197.526 28.9369 198.32 28.9369 199.414V205H27.64ZM34.6944 204.086C34.9235 204.086 35.1449 204.07 35.3584 204.039C35.572 204.003 35.7412 203.966 35.8662 203.93V204.922C35.7256 204.99 35.5173 205.044 35.2412 205.086C34.9704 205.133 34.7256 205.156 34.5069 205.156C32.8506 205.156 32.0225 204.284 32.0225 202.539V197.445H30.7959V196.82L32.0225 196.281L32.5694 194.453H33.3194V196.438H35.8037V197.445H33.3194V202.484C33.3194 203 33.4418 203.396 33.6866 203.672C33.9314 203.948 34.2673 204.086 34.6944 204.086ZM43.1706 205L42.9128 203.781H42.8503C42.4232 204.318 41.9961 204.682 41.5691 204.875C41.1472 205.062 40.6185 205.156 39.9831 205.156C39.1342 205.156 38.4675 204.938 37.9831 204.5C37.504 204.062 37.2644 203.44 37.2644 202.633C37.2644 200.904 38.6472 199.997 41.4128 199.914L42.8659 199.867V199.336C42.8659 198.664 42.7201 198.169 42.4284 197.852C42.142 197.529 41.681 197.367 41.0456 197.367C40.3321 197.367 39.5248 197.586 38.6237 198.023L38.2253 197.031C38.6472 196.802 39.1081 196.622 39.6081 196.492C40.1133 196.362 40.6185 196.297 41.1237 196.297C42.1446 196.297 42.8998 196.523 43.3894 196.977C43.8842 197.43 44.1316 198.156 44.1316 199.156V205H43.1706ZM40.2409 204.086C41.0482 204.086 41.681 203.865 42.1394 203.422C42.6029 202.979 42.8347 202.359 42.8347 201.562V200.789L41.5378 200.844C40.5066 200.88 39.7618 201.042 39.3034 201.328C38.8503 201.609 38.6237 202.049 38.6237 202.648C38.6237 203.117 38.7644 203.474 39.0456 203.719C39.3321 203.964 39.7305 204.086 40.2409 204.086ZM50.5531 205.156C49.3135 205.156 48.3526 204.776 47.6703 204.016C46.9932 203.25 46.6547 202.169 46.6547 200.773C46.6547 199.341 46.9984 198.234 47.6859 197.453C48.3786 196.672 49.363 196.281 50.6391 196.281C51.0505 196.281 51.462 196.326 51.8734 196.414C52.2849 196.503 52.6078 196.607 52.8422 196.727L52.4437 197.828C52.1573 197.714 51.8448 197.62 51.5062 197.547C51.1677 197.469 50.8682 197.43 50.6078 197.43C48.8682 197.43 47.9984 198.539 47.9984 200.758C47.9984 201.81 48.2094 202.617 48.6312 203.18C49.0583 203.742 49.6885 204.023 50.5219 204.023C51.2354 204.023 51.9672 203.87 52.7172 203.562V204.711C52.1443 205.008 51.4229 205.156 50.5531 205.156ZM57.8419 204.086C58.071 204.086 58.2924 204.07 58.5059 204.039C58.7195 204.003 58.8887 203.966 59.0137 203.93V204.922C58.8731 204.99 58.6648 205.044 58.3887 205.086C58.1179 205.133 57.8731 205.156 57.6544 205.156C55.9981 205.156 55.17 204.284 55.17 202.539V197.445H53.9434V196.82L55.17 196.281L55.7169 194.453H56.4669V196.438H58.9512V197.445H56.4669V202.484C56.4669 203 56.5893 203.396 56.8341 203.672C57.0789 203.948 57.4148 204.086 57.8419 204.086ZM74.3491 193.578V200.969C74.3491 202.271 73.9558 203.294 73.1694 204.039C72.3829 204.784 71.3022 205.156 69.9272 205.156C68.5522 205.156 67.4871 204.781 66.7319 204.031C65.9819 203.281 65.6069 202.25 65.6069 200.938V193.578H66.935V201.031C66.935 201.984 67.1954 202.716 67.7162 203.227C68.2371 203.737 69.0027 203.992 70.0131 203.992C70.9767 203.992 71.7189 203.737 72.2397 203.227C72.7605 202.711 73.0209 201.974 73.0209 201.016V193.578H74.3491ZM83.0284 202.664C83.0284 203.461 82.7316 204.076 82.1378 204.508C81.5441 204.94 80.7107 205.156 79.6378 205.156C78.5024 205.156 77.617 204.977 76.9816 204.617V203.414C77.393 203.622 77.8331 203.786 78.3019 203.906C78.7758 204.026 79.2316 204.086 79.6691 204.086C80.3461 204.086 80.867 203.979 81.2316 203.766C81.5961 203.547 81.7784 203.216 81.7784 202.773C81.7784 202.44 81.6326 202.156 81.3409 201.922C81.0545 201.682 80.492 201.401 79.6534 201.078C78.8566 200.781 78.2889 200.523 77.9503 200.305C77.617 200.081 77.367 199.828 77.2003 199.547C77.0389 199.266 76.9581 198.93 76.9581 198.539C76.9581 197.841 77.242 197.292 77.8097 196.891C78.3774 196.484 79.156 196.281 80.1456 196.281C81.0675 196.281 81.9685 196.469 82.8487 196.844L82.3878 197.898C81.5284 197.544 80.7498 197.367 80.0519 197.367C79.4373 197.367 78.9737 197.464 78.6612 197.656C78.3487 197.849 78.1925 198.115 78.1925 198.453C78.1925 198.682 78.2498 198.878 78.3644 199.039C78.4842 199.201 78.6743 199.354 78.9347 199.5C79.1951 199.646 79.6951 199.857 80.4347 200.133C81.4503 200.503 82.1352 200.875 82.4894 201.25C82.8487 201.625 83.0284 202.096 83.0284 202.664Z" fill="#A1A1A1"/>
</svg>
