<svg width="40" height="40" viewBox="0 0 40 40" fill="none" xmlns="http://www.w3.org/2000/svg">
<path d="M35.6834 19.2999L20.6834 4.29992C20.0584 3.68005 19.2136 3.33255 18.3334 3.33325H6.66671C5.78265 3.33325 4.93481 3.68444 4.30969 4.30956C3.68456 4.93468 3.33338 5.78253 3.33338 6.66659V18.3333C3.33303 18.7731 3.41974 19.2087 3.5885 19.6149C3.75727 20.0211 4.00476 20.3898 4.31671 20.6999L19.3167 35.6999C19.9417 36.3198 20.7865 36.6673 21.6667 36.6666C22.5493 36.6629 23.3945 36.3092 24.0167 35.6833L35.6834 24.0166C36.3094 23.3943 36.663 22.5492 36.6667 21.6666C36.6671 21.2267 36.5803 20.7912 36.4116 20.385C36.2428 19.9788 35.9953 19.61 35.6834 19.2999ZM21.6667 33.3333L6.66671 18.3333V6.66659H18.3334L33.3334 21.6666M10.8334 8.33325C11.3278 8.33325 11.8112 8.47988 12.2223 8.75458C12.6334 9.02928 12.9539 9.41973 13.1431 9.87654C13.3323 10.3334 13.3818 10.836 13.2853 11.321C13.1889 11.8059 12.9508 12.2514 12.6011 12.601C12.2515 12.9507 11.8061 13.1888 11.3211 13.2852C10.8361 13.3817 10.3335 13.3322 9.87667 13.143C9.41985 12.9537 9.0294 12.6333 8.7547 12.2222C8.48 11.8111 8.33337 11.3277 8.33337 10.8333C8.33337 10.1702 8.59677 9.53433 9.06561 9.06549C9.53445 8.59664 10.1703 8.33325 10.8334 8.33325Z" fill="white"/>
</svg>
