<svg width="40" height="40" viewBox="0 0 40 40" fill="none" xmlns="http://www.w3.org/2000/svg">
<path d="M1.25 12.5H17.5L18.75 15H2.5L1.25 12.5ZM2.91667 17.5H19.1667L20.4167 20H4.16667L2.91667 17.5ZM30 30.8333C31.3833 30.8333 32.5 29.7166 32.5 28.3333C32.5 26.95 31.3833 25.8333 30 25.8333C28.6167 25.8333 27.5 26.95 27.5 28.3333C27.5 29.7166 28.6167 30.8333 30 30.8333ZM32.5 15.8333H28.3333V20H35.7667L32.5 15.8333ZM13.3333 30.8333C14.7167 30.8333 15.8333 29.7166 15.8333 28.3333C15.8333 26.95 14.7167 25.8333 13.3333 25.8333C11.95 25.8333 10.8333 26.95 10.8333 28.3333C10.8333 29.7166 11.95 30.8333 13.3333 30.8333ZM33.3333 13.3333L38.3333 20V28.3333H35C35 31.1 32.7667 33.3333 30 33.3333C27.2333 33.3333 25 31.1 25 28.3333H18.3333C18.3333 31.1 16.0833 33.3333 13.3333 33.3333C10.5667 33.3333 8.33333 31.1 8.33333 28.3333H5V22.5H8.33333V25H9.6C10.5167 23.9833 11.85 23.3333 13.3333 23.3333C14.8167 23.3333 16.15 23.9833 17.0667 25H25V9.99996H5C5 8.14996 6.48333 6.66663 8.33333 6.66663H28.3333V13.3333H33.3333Z" fill="white"/>
</svg>
